{
.appVersion = "3340";
.formatVersion = 3;
axes = (
{
name = Weight;
tag = wght;
}
);
classes = (
{
automatic = 1;

glyphs = (
{
glyphname = A;
lastChange = "2025-01-15 13:13:32 +0000";
layers = (
{
layerId = "CCBD71C2-CFAF-4DB2-A010-494EF6BDA443";
shapes = (
{
closed = 1;
nodes = (
(53,0,l),
(138,174,l),
(419,174,l),
(430,0,l),
(515,0,l),
(465,700,l),
(305,700,l),
(-42,0,l)
);
},
{
closed = 1;
nodes = (
(376,663,l),
(388,663,l),
(414,252,l),
(176,252,l)
);
}
);
width = 612;
},
{
layerId = "8275915C-4C26-4DD7-A30E-5590CD7E6050";
shapes = (
{
closed = 1;
nodes = (
(93,0,l),
(157,150,l),
(388,150,l),
(390,0,l),
(521,0,l),
(504,700,l),
(260,700,l),
(-48,0,l)
);
},
{
closed = 1;
nodes = (
(363,634,l),
(381,634,l),
(386,276,l),
(210,276,l)
);
}
);
width = 612;
}
);
unicode = 65;
},
{
glyphname = Abrevehookabove;
lastChange = "2025-01-15 13:17:44 +0000";
layers = (
{
associatedMasterId = "CCBD71C2-CFAF-4DB2-A010-494EF6BDA443";
layerId = "B5F68FDA-8C9D-4654-935C-D86EAB7081E6";
name = img;
width = 612;
},
{
guides = (
{
angle = 90;
pos = (369,0);
},
{
angle = 90;
pos = (449,0);
}
);
layerId = "CCBD71C2-CFAF-4DB2-A010-494EF6BDA443";
shapes = (
{
closed = 1;
nodes = (
(442,878,l),
(442,946,l),
(448,946,l),
(456,926,o),
(478,914,o),
(506,914,cs),
(554,914,o),
(590,956,o),
(590,1006,cs),
(590,1054,o),
(552,1090,o),
(500,1090,cs),
(446,1090,o),
(418,1060,o),
(402,1020,c),
(447,1002,l),
(454,1026,o),
(470,1042,o),
(494,1042,cs),
(520,1042,o),
(536,1026,o),
(536,1002,cs),
(536,976,o),
(522,961,o),
(498,961,cs),
(486,961,o),
(476,966,o),
(470,976,c),
(398,976,l),
(393,970,l),
(393,878,l)
);
},
{
alignment = -1;
ref = A;
},
{
alignment = -1;
pos = (39,160);
ref = breve;
}
);
width = 612;
},
{
associatedMasterId = "8275915C-4C26-4DD7-A30E-5590CD7E6050";
layerId = "70EA2DAF-7DEB-462F-B9D9-2FC0D584A3F0";
name = img;
width = 612;
},
{
layerId = "8275915C-4C26-4DD7-A30E-5590CD7E6050";
shapes = (
{
alignment = -1;
ref = A;
},
{
alignment = -1;
pos = (37,172);
ref = breve;
},
{
alignment = -1;
pos = (193,250);
ref = hookabovecomb;
}
);
width = 612;
}
);
unicode = 7858;
},
{
glyphname = Acircumflexhookabove;
lastChange = "2025-01-15 13:17:44 +0000";
layers = (
{
guides = (
{
pos = (0,770);
}
);
layerId = "CCBD71C2-CFAF-4DB2-A010-494EF6BDA443";
shapes = (
{
closed = 1;
nodes = (
(586,858,l),
(586,926,l),
(592,926,l),
(600,906,o),
(622,894,o),
(650,894,cs),
(698,894,o),
(734,936,o),
(734,986,cs),
(734,1034,o),
(696,1070,o),
(644,1070,cs),
(590,1070,o),
(562,1040,o),
(546,1000,c),
(591,982,l),
(598,1006,o),
(614,1022,o),
(638,1022,cs),
(664,1022,o),
(680,1006,o),
(680,982,cs),
(680,956,o),
(666,941,o),
(642,941,cs),
(630,941,o),
(620,946,o),
(614,956,c),
(542,956,l),
(537,950,l),
(537,858,l)
);
},
{
alignment = -1;
ref = A;
},
{
alignment = -1;
pos = (51,204);
ref = circumflex;
}
);
width = 612;
},
{
associatedMasterId = "8275915C-4C26-4DD7-A30E-5590CD7E6050";
layerId = "6D74D620-26AE-4A6B-9B21-54E6C1DA9446";
name = img;
width = 612;
},
{
layerId = "8275915C-4C26-4DD7-A30E-5590CD7E6050";
shapes = (
{
alignment = -1;
ref = A;
},
{
alignment = -1;
pos = (39,204);
ref = circumflex;
},
{
alignment = -1;
pos = (357,200);
ref = hookabovecomb;
}
);
width = 612;
}
);
unicode = 7848;
},
{
glyphname = Ahookabove;
lastChange = "2025-01-15 13:17:44 +0000";
layers = (
{
guides = (
{
angle = 90;
pos = (305,0);
},
{
angle = 90;
pos = (376,0);
},
{
angle = 90;
pos = (388,0);
},
{
angle = 90;
pos = (465,0);
}
);
layerId = "CCBD71C2-CFAF-4DB2-A010-494EF6BDA443";
shapes = (
{
closed = 1;
nodes = (
(409,750,l),
(409,818,l),
(415,818,l),
(423,798,o),
(445,786,o),
(473,786,cs),
(521,786,o),
(557,828,o),
(557,878,cs),
(557,926,o),
(519,962,o),
(467,962,cs),
(413,962,o),
(385,932,o),
(369,892,c),
(414,874,l),
(421,898,o),
(437,914,o),
(461,914,cs),
(487,914,o),
(503,898,o),
(503,874,c),
(503,848,o),
(489,833,o),
(465,833,cs),
(453,833,o),
(443,838,o),
(437,848,c),
(365,848,l),
(360,842,l),
(360,750,l)
);
},
{
alignment = -1;
ref = A;
}
);
width = 612;
},
{
associatedMasterId = "8275915C-4C26-4DD7-A30E-5590CD7E6050";
layerId = "A6DFCBD4-33AB-41AE-8855-13E7C6EF2B3C";
name = img;
width = 612;
},
{
layerId = "8275915C-4C26-4DD7-A30E-5590CD7E6050";
shapes = (
{
alignment = -1;
ref = A;
},
{
alignment = -1;
pos = (149,92);
ref = hookabovecomb;
}
);
width = 612;
}
);
unicode = 7842;
},
{
glyphname = Aogonek;
lastChange = "2025-01-15 13:13:32 +0000";
layers = (
{
layerId = "CCBD71C2-CFAF-4DB2-A010-494EF6BDA443";
shapes = (
{
closed = 1;
nodes = (
(526,-164,l),
(526,-98,l),
(484,-98,ls),
(472,-98,o),
(465,-92,o),
(465,-81,cs),
(465,-76,o),
(466,-73,o),
(468,-68,cs),
(498,0,l),
(515,0,l),
(465,700,l),
(305,700,l),
(-42,0,l),
(53,0,l),
(138,174,l),
(419,174,l),
(430,0,l),
(402,-66,ls),
(396,-80,o),
(394,-92,o),
(394,-103,cs),
(394,-141,o),
(423,-164,o),
(456,-164,cs)
);
},
{
closed = 1;
nodes = (
(376,663,l),
(388,663,l),
(414,252,l),
(176,252,l)
);
}
);
width = 612;
},
{
associatedMasterId = "8275915C-4C26-4DD7-A30E-5590CD7E6050";
layerId = "E90D8D82-0A0F-49F0-8839-DE1854721110";
name = img;
width = 612;
},
{
layerId = "8275915C-4C26-4DD7-A30E-5590CD7E6050";
shapes = (
{
closed = 1;
nodes = (
(503,-170,l),
(503,-86,l),
(466,-86,ls),
(453,-86,o),
(447,-80,o),
(447,-70,cs),
(447,-65,o),
(448,-61,o),
(450,-56,cs),
(475,0,l),
(521,0,l),
(504,700,l),
(260,700,l),
(-48,0,l),
(93,0,l),
(157,150,l),
(388,150,l),
(390,0,l),
(361,-66,ls),
(354,-82,o),
(351,-96,o),
(351,-109,cs),
(351,-147,o),
(379,-170,o),
(421,-170,cs)
);
},
{
closed = 1;
nodes = (
(363,634,l),
(381,634,l),
(386,276,l),
(210,276,l)
);
}
);
width = 612;
}
);
unicode = 260;
},
{
glyphname = AE;
lastChange = "2025-01-15 13:13:32 +0000";
layers = (
{
layerId = "CCBD71C2-CFAF-4DB2-A010-494EF6BDA443";
shapes = (
{
closed = 1;
nodes = (
(44,0,l),
(132,174,l),
(276,174,l),
(239,0,l),
(473,0,l),
(473,78,l),
(340,78,l),
(389,312,l),
(527,312,l),
(527,390,l),
(406,390,l),
(455,622,l),
(599,622,l),
(599,700,l),
(312,700,l),
(-48,0,l)
);
},
{
closed = 1;
nodes = (
(359,622,l),
(371,622,l),
(293,252,l),
(172,252,l)
);
}
);
width = 612;
},
{
layerId = "8275915C-4C26-4DD7-A30E-5590CD7E6050";
shapes = (
{
closed = 1;
nodes = (
(63,0,l),
(129,150,l),
(243,150,l),
(214,12,l),
(214,0,l),
(518,0,l),
(518,126,l),
(370,126,l),
(404,288,l),
(567,288,l),
(567,414,l),
(431,414,l),
(465,574,l),
(628,574,l),
(628,700,l),
(241,700,l),
(-68,12,l),
(-68,0,l)
);
},
{
closed = 1;
nodes = (
(315,574,l),
(333,574,l),
(270,276,l),
(184,276,l)
);
}
);
width = 612;
}
);
unicode = 198;
},
{
glyphname = B;
lastChange = "2025-01-15 13:13:32 +0000";
layers = (
{
guides = (
{
pos = (0,350);
},
{
pos = (0,506);
},
{
pos = (0,195);
}
);
layerId = "CCBD71C2-CFAF-4DB2-A010-494EF6BDA443";
shapes = (
{
closed = 1;
nodes = (
(256,0,ls),
(400,0,o),
(506,90,o),
(506,219,cs),
(506,278,o),
(473,329,o),
(418,345,c),
(418,357,l),
(515,378,o),
(575,454,o),
(575,535,cs),
(575,631,o),
(514,700,o),
(393,700,cs),
(117,700,l),
(117,622,l),
(183,622,l),
(68,78,l),
(2,78,l),
(2,0,l)
);
},
{
closed = 1;
nodes = (
(201,312,l),
(319,312,ls),
(386,312,o),
(428,277,o),
(428,216,cs),
(428,135,o),
(356,78,o),
(267,78,cs),
(152,78,l)
);
},
{
closed = 1;
nodes = (
(267,622,l),
(382,622,ls),
(452,622,o),
(493,587,o),
(493,532,cs),
(493,442,o),
(417,390,o),
(336,390,cs),
(218,390,l)
);
}
);
width = 612;
},
{
guides = (
{
pos = (0,350);
},
{
pos = (0,480);
},
{
pos = (0,195);
}
);
layerId = "8275915C-4C26-4DD7-A30E-5590CD7E6050";
shapes = (
{
closed = 1;
nodes = (
(274,0,ls),
(418,0,o),
(522,93,o),
(522,210,cs),
(522,284,o),
(485,324,o),
(432,340,c),
(432,358,l),
(519,379,o),
(591,437,o),
(591,537,cs),
(591,628,o),
(530,700,o),
(396,700,cs),
(97,700,l),
(97,574,l),
(163,574,l),
(68,126,l),
(2,126,l),
(2,0,l)
);
},
{
closed = 1;
nodes = (
(232,288,l),
(318,288,ls),
(367,288,o),
(398,268,o),
(398,219,cs),
(398,159,o),
(349,126,o),
(284,126,cs),
(198,126,l)
);
},
{
closed = 1;
nodes = (
(293,574,l),
(379,574,ls),
(428,574,o),
(458,551,o),
(458,507,cs),
(458,446,o),
(414,414,o),
(345,414,cs),
(259,414,l)
);
}
);
width = 612;
}
);
unicode = 66;
},
{
glyphname = Bstroke;
lastChange = "2025-01-15 13:17:44 +0000";
layers = (
{
layerId = "CCBD71C2-CFAF-4DB2-A010-494EF6BDA443";
shapes = (
{
closed = 1;
nodes = (
(256,0,ls),
(400,0,o),
(506,90,o),
(506,219,cs),
(506,278,o),
(473,329,o),
(418,345,c),
(418,357,l),
(515,378,o),
(575,454,o),
(575,535,cs),
(575,631,o),
(514,700,o),
(393,700,cs),
(117,700,l),
(117,622,l),
(183,622,l),
(101,234,l),
(30,234,l),
(30,156,l),
(84,156,l),
(68,78,l),
(2,78,l),
(2,0,l)
);
},
{
closed = 1;
nodes = (
(168,156,l),
(282,156,l),
(282,234,l),
(184,234,l),
(201,312,l),
(319,312,ls),
(386,312,o),
(428,277,o),
(428,216,cs),
(428,135,o),
(356,78,o),
(267,78,cs),
(152,78,l)
);
},
{
closed = 1;
nodes = (
(267,622,l),
(382,622,ls),
(452,622,o),
(493,587,o),
(493,532,cs),
(493,442,o),
(417,390,o),
(336,390,cs),
(218,390,l)
);
}
);
width = 612;
},
{
layerId = "8275915C-4C26-4DD7-A30E-5590CD7E6050";
shapes = (
{
closed = 1;
nodes = (
(278,0,ls),
(422,0,o),
(526,93,o),
(526,210,cs),
(526,284,o),
(489,324,o),
(436,340,c),
(436,358,l),
(523,379,o),
(595,437,o),
(595,537,cs),
(595,628,o),
(534,700,o),
(400,700,cs),
(101,700,l),
(101,574,l),
(167,574,l),
(100,258,l),
(27,258,l),
(27,156,l),
(78,156,l),
(72,126,l),
(6,126,l),
(6,0,l)
);
},
{
closed = 1;
nodes = (
(208,156,l),
(288,156,l),
(288,258,l),
(229,258,l),
(236,288,l),
(322,288,ls),
(371,288,o),
(402,268,o),
(402,219,cs),
(402,159,o),
(353,126,o),
(288,126,cs),
(202,126,l)
);
},
{
closed = 1;
nodes = (
(297,574,l),
(383,574,ls),
(432,574,o),
(462,551,o),
(462,507,cs),
(462,446,o),
(418,414,o),
(349,414,cs),
(263,414,l)
);
}
);
width = 612;
}
);
unicode = 579;
},
{
glyphname = C;
lastChange = "2025-01-15 13:13:32 +0000";
layers = (
{
layerId = "CCBD71C2-CFAF-4DB2-A010-494EF6BDA443";
shapes = (
{
closed = 1;
nodes = (
(414,-14,o),
(487,79,o),
(527,240,cs),
(530,252,l),
(446,252,l),
(443,240,ls),
(417,136,o),
(364,64,o),
(248,64,cs),
(162,64,o),
(123,108,o),
(123,197,cs),
(123,221,o),
(127,248,o),
(133,278,cs),
(164,422,ls),
(191,550,o),
(263,638,o),
(369,638,cs),
(459,638,o),
(498,592,o),
(498,522,cs),
(498,503,o),
(496,485,o),
(490,460,cs),
(487,448,l),
(571,448,l),
(574,460,ls),
(580,484,o),
(583,506,o),
(583,528,cs),
(583,636,o),
(510,714,o),
(382,714,cs),
(220,714,o),
(121,616,o),
(81,428,cs),
(48,272,ls),
(41,238,o),
(38,206,o),
(38,178,cs),
(38,64,o),
(108,-14,o),
(238,-14,cs)
);
}
);
width = 612;
},
{
layerId = "8275915C-4C26-4DD7-A30E-5590CD7E6050";
shapes = (
{
closed = 1;
nodes = (
(417,-14,o),
(502,73,o),
(540,246,cs),
(544,264,l),
(412,264,l),
(408,246,ls),
(392,176,o),
(355,106,o),
(255,106,cs),
(182,106,o),
(153,145,o),
(153,205,cs),
(153,222,o),
(156,242,o),
(160,262,cs),
(197,438,ls),
(215,522,o),
(270,594,o),
(358,594,cs),
(433,594,o),
(459,552,o),
(459,500,cs),
(459,485,o),
(457,470,o),
(453,454,cs),
(449,436,l),
(581,436,l),
(585,454,ls),
(589,474,o),
(592,492,o),
(592,511,cs),
(592,624,o),
(513,714,o),
(379,714,cs),
(211,714,o),
(104,620,o),
(63,428,cs),
(30,272,ls),
(24,242,o),
(21,219,o),
(21,195,cs),
(21,63,o),
(107,-14,o),
(233,-14,cs)
);
}
);
width = 612;
}
);
unicode = 67;
},
{
glyphname = Ccedilla;
lastChange = "2025-01-15 13:13:32 +0000";
layers = (
{
guides = (
{
angle = 90;
pos = (230,0);
},
{
angle = 90;
pos = (248,0);
}
);
layerId = "CCBD71C2-CFAF-4DB2-A010-494EF6BDA443";
shapes = (
{
closed = 1;
nodes = (
(327,-212,o),
(361,-170,o),
(361,-110,cs),
(361,-70,o),
(337,-36,o),
(293,-36,cs),
(267,-36,o),
(250,-47,o),
(239,-68,c),
(233,-68,l),
(252,-14,l),
(418,-11,o),
(489,88,o),
(527,240,cs),
(530,252,l),
(446,252,l),
(443,240,ls),
(417,136,o),
(364,64,o),
(248,64,cs),
(162,64,o),
(123,108,o),
(123,197,cs),
(123,221,o),
(127,248,o),
(133,278,cs),
(164,422,ls),
(191,550,o),
(263,638,o),
(369,638,cs),
(459,638,o),
(498,592,o),
(498,522,cs),
(498,503,o),
(496,485,o),
(490,460,cs),
(487,448,l),
(571,448,l),
(574,460,ls),
(580,484,o),
(583,506,o),
(583,528,cs),
(583,636,o),
(510,714,o),
(382,714,cs),
(220,714,o),
(121,616,o),
(81,428,cs),
(48,272,ls),
(41,238,o),
(38,206,o),
(38,178,cs),
(38,74,o),
(97,3,o),
(199,-12,c),
(173,-86,l),
(173,-98,l),
(248,-98,l),
(253,-90,o),
(261,-84,o),
(275,-84,cs),
(292,-84,o),
(307,-94,o),
(307,-118,cs),
(307,-146,o),
(289,-164,o),
(259,-164,cs),
(229,-164,o),
(215,-146,o),
(213,-125,c),
(163,-142,l),
(169,-183,o),
(203,-212,o),
(257,-212,cs)
);
}
);
width = 612;
},
{
associatedMasterId = "8275915C-4C26-4DD7-A30E-5590CD7E6050";
layerId = "E885396E-C7C3-4765-87AD-6118EA460E56";
name = img;
width = 612;
},
{
layerId = "8275915C-4C26-4DD7-A30E-5590CD7E6050";
shapes = (
{
closed = 1;
nodes = (
(333,-212,o),
(377,-170,o),
(377,-102,cs),
(377,-52,o),
(349,-24,o),
(310,-24,cs),
(285,-24,o),
(269,-34,o),
(259,-46,c),
(247,-46,l),
(261,-13,l),
(426,-5,o),
(504,82,o),
(540,246,cs),
(544,264,l),
(412,264,l),
(408,246,ls),
(392,176,o),
(355,106,o),
(255,106,cs),
(182,106,o),
(153,145,o),
(153,205,cs),
(153,222,o),
(156,242,o),
(160,262,cs),
(197,438,ls),
(215,522,o),
(270,594,o),
(358,594,cs),
(433,594,o),
(459,552,o),
(459,500,cs),
(459,485,o),
(457,470,o),
(453,454,cs),
(449,436,l),
(581,436,l),
(585,454,ls),
(589,474,o),
(592,492,o),
(592,511,cs),
(592,624,o),
(513,714,o),
(379,714,cs),
(211,714,o),
(104,620,o),
(63,428,cs),
(30,272,ls),
(24,242,o),
(21,219,o),
(21,195,cs),
(21,80,o),
(85,7,o),
(184,-10,c),
(155,-92,l),
(155,-104,l),
(252,-104,l),
(256,-96,o),
(262,-90,o),
(273,-90,cs),
(284,-90,o),
(291,-97,o),
(291,-109,cs),
(291,-128,o),
(274,-138,o),
(251,-138,cs),
(230,-138,o),
(213,-132,o),
(200,-123,c),
(163,-192,l),
(183,-204,o),
(211,-212,o),
(256,-212,cs)
);
}
);
width = 612;
}
);
unicode = 199;
},
{
glyphname = D;
lastChange = "2025-01-15 13:13:32 +0000";
layers = (
{
layerId = "CCBD71C2-CFAF-4DB2-A010-494EF6BDA443";
shapes = (
{
closed = 1;
nodes = (
(227,0,ls),
(417,0,o),
(483,70,o),
(524,260,cs),
(562,434,ls),
(568,463,o),
(572,490,o),
(572,515,cs),
(572,634,o),
(499,700,o),
(358,700,cs),
(115,700,l),
(115,622,l),
(181,622,l),
(66,78,l),
(0,78,l),
(0,0,l)
);
},
{
closed = 1;
nodes = (
(265,622,l),
(341,622,ls),
(438,622,o),
(486,595,o),
(486,510,cs),
(486,489,o),
(484,468,o),
(477,434,cs),
(442,266,ls),
(412,120,o),
(350,78,o),
(226,78,c),
(150,78,l)
);
}
);
width = 612;
},
{
layerId = "8275915C-4C26-4DD7-A30E-5590CD7E6050";
shapes = (
{
closed = 1;
nodes = (
(223,0,ls),
(404,0,o),
(495,72,o),
(531,242,cs),
(575,452,ls),
(579,473,o),
(582,493,o),
(582,512,cs),
(582,625,o),
(503,700,o),
(368,700,cs),
(103,700,l),
(103,574,l),
(169,574,l),
(74,126,l),
(2,126,l),
(2,0,l)
);
},
{
closed = 1;
nodes = (
(301,574,l),
(345,574,ls),
(415,574,o),
(448,544,o),
(448,490,cs),
(448,478,o),
(445,462,o),
(443,452,cs),
(402,260,ls),
(383,168,o),
(342,126,o),
(250,126,c),
(206,126,l)
);
}
);
width = 612;
}
);
unicode = 68;
},
{
glyphname = Dcroat;
lastChange = "2025-01-15 13:13:32 +0000";
layers = (
{
layerId = "CCBD71C2-CFAF-4DB2-A010-494EF6BDA443";
shapes = (
{
closed = 1;
nodes = (
(227,0,ls),
(417,0,o),
(483,70,o),
(524,260,cs),
(562,434,ls),
(568,463,o),
(572,490,o),
(572,515,cs),
(572,634,o),
(499,700,o),
(358,700,cs),
(115,700,l),
(115,622,l),
(181,622,l),
(132,389,l),
(55,389,l),
(55,311,l),
(115,311,l),
(66,78,l),
(0,78,l),
(0,0,l)
);
},
{
closed = 1;
nodes = (
(199,311,l),
(307,311,l),
(307,389,l),
(216,389,l),
(265,622,l),
(341,622,ls),
(438,622,o),
(486,595,o),
(486,510,cs),
(486,489,o),
(484,468,o),
(477,434,cs),
(442,266,ls),
(412,120,o),
(350,78,o),
(226,78,c),
(150,78,l)
);
}
);
width = 612;
},
{
associatedMasterId = "8275915C-4C26-4DD7-A30E-5590CD7E6050";
layerId = "67090B7F-C227-4FA7-BF48-548B28709126";
name = img;
width = 612;
},
{
layerId = "8275915C-4C26-4DD7-A30E-5590CD7E6050";
shapes = (
{
closed = 1;
nodes = (
(223,0,ls),
(404,0,o),
(495,72,o),
(531,242,cs),
(575,452,ls),
(579,473,o),
(582,493,o),
(582,512,cs),
(582,625,o),
(503,700,o),
(368,700,cs),
(103,700,l),
(103,574,l),
(169,574,l),
(134,410,l),
(51,410,l),
(51,290,l),
(109,290,l),
(74,126,l),
(2,126,l),
(2,0,l)
);
},
{
closed = 1;
nodes = (
(241,290,l),
(339,290,l),
(339,410,l),
(266,410,l),
(301,574,l),
(345,574,ls),
(415,574,o),
(448,544,o),
(448,490,cs),
(448,478,o),
(445,462,o),
(443,452,cs),
(402,260,ls),
(383,168,o),
(342,126,o),
(250,126,c),
(206,126,l)
);
}
);
width = 612;
}
);
unicode = 272;
},
{
glyphname = Eth;
lastChange = "2025-01-15 13:13:32 +0000";
layers = (
{
layerId = "CCBD71C2-CFAF-4DB2-A010-494EF6BDA443";
shapes = (
{
closed = 1;
nodes = (
(227,0,ls),
(417,0,o),
(483,70,o),
(524,260,cs),
(562,434,ls),
(568,463,o),
(572,490,o),
(572,515,cs),
(572,634,o),
(499,700,o),
(358,700,cs),
(115,700,l),
(115,622,l),
(181,622,l),
(132,389,l),
(55,389,l),
(55,311,l),
(115,311,l),
(66,78,l),
(0,78,l),
(0,0,l)
);
},
{
closed = 1;
nodes = (
(199,311,l),
(307,311,l),
(307,389,l),
(216,389,l),
(265,622,l),
(341,622,ls),
(438,622,o),
(486,595,o),
(486,510,cs),
(486,489,o),
(484,468,o),
(477,434,cs),
(442,266,ls),
(412,120,o),
(350,78,o),
(226,78,c),
(150,78,l)
);
}
);
width = 612;
},
{
layerId = "8275915C-4C26-4DD7-A30E-5590CD7E6050";
shapes = (
{
closed = 1;
nodes = (
(223,0,ls),
(404,0,o),
(495,72,o),
(531,242,cs),
(575,452,ls),
(579,473,o),
(582,493,o),
(582,512,cs),
(582,625,o),
(503,700,o),
(368,700,cs),
(103,700,l),
(103,574,l),
(169,574,l),
(134,410,l),
(51,410,l),
(51,290,l),
(109,290,l),
(74,126,l),
(2,126,l),
(2,0,l)
);
},
{
closed = 1;
nodes = (
(241,290,l),
(339,290,l),
(339,410,l),
(266,410,l),
(301,574,l),
(345,574,ls),
(415,574,o),
(448,544,o),
(448,490,cs),
(448,478,o),
(445,462,o),
(443,452,cs),
(402,260,ls),
(383,168,o),
(342,126,o),
(250,126,c),
(206,126,l)
);
}
);
width = 612;
}
);
unicode = 208;
},
{
glyphname = E;
lastChange = "2025-01-15 13:13:32 +0000";
layers = (
{
layerId = "CCBD71C2-CFAF-4DB2-A010-494EF6BDA443";
shapes = (
{
closed = 1;
nodes = (
(446,0,l),
(446,78,l),
(129,78,l),
(178,312,l),
(500,312,l),
(500,390,l),
(195,390,l),
(244,622,l),
(572,622,l),
(572,700,l),
(177,700,l),
(28,0,l)
);
}
);
width = 612;
},
{
layerId = "8275915C-4C26-4DD7-A30E-5590CD7E6050";
shapes = (
{
closed = 1;
nodes = (
(469,0,l),
(469,126,l),
(174,126,l),
(208,288,l),
(506,288,l),
(506,414,l),
(235,414,l),
(269,574,l),
(579,574,l),
(579,700,l),
(164,700,l),
(18,12,l),
(18,0,l)
);
}
);
width = 612;
}
);
unicode = 69;
},
{
glyphname = Ecircumflexhookabove;
lastChange = "2025-01-15 13:17:44 +0000";
layers = (
{
guides = (
{
pos = (0,774);
}
);
layerId = "CCBD71C2-CFAF-4DB2-A010-494EF6BDA443";
shapes = (
{
closed = 1;
nodes = (
(577,858,l),
(577,926,l),
(583,926,l),
(591,906,o),
(613,894,o),
(641,894,cs),
(689,894,o),
(725,936,o),
(725,986,cs),
(725,1034,o),
(687,1070,o),
(635,1070,cs),
(581,1070,o),
(553,1040,o),
(537,1000,c),
(582,982,l),
(589,1006,o),
(605,1022,o),
(629,1022,cs),
(655,1022,o),
(671,1006,o),
(671,982,cs),
(671,956,o),
(657,941,o),
(633,941,cs),
(621,941,o),
(611,946,o),
(605,956,c),
(533,956,l),
(528,950,l),
(528,858,l)
);
},
{
alignment = -1;
ref = E;
},
{
alignment = -1;
pos = (42,204);
ref = circumflex;
}
);
width = 612;
},
{
associatedMasterId = "8275915C-4C26-4DD7-A30E-5590CD7E6050";
layerId = "B5B7103D-ECD4-4B5C-B0A3-4C2F30254748";
name = img;
width = 612;
},
{
layerId = "8275915C-4C26-4DD7-A30E-5590CD7E6050";
shapes = (
{
alignment = -1;
ref = E;
},
{
alignment = -1;
pos = (40,204);
ref = circumflex;
},
{
alignment = -1;
pos = (358,204);
ref = hookabovecomb;
}
);
width = 612;
}
);
unicode = 7874;
},
{
glyphname = Ehookabove;
lastChange = "2025-01-15 13:17:44 +0000";
layers = (
{
guides = (
{
angle = 90;
pos = (500,0);
},
{
angle = 90;
pos = (446,0);
},
{
angle = 90;
pos = (572,0);
},
{
angle = 90;
pos = (300,0);
},
{
angle = 90;
pos = (512,0);
}
);
layerId = "CCBD71C2-CFAF-4DB2-A010-494EF6BDA443";
shapes = (
{
closed = 1;
nodes = (
(390,750,l),
(390,818,l),
(396,818,l),
(404,798,o),
(426,786,o),
(454,786,cs),
(502,786,o),
(538,828,o),
(538,878,cs),
(538,926,o),
(500,962,o),
(448,962,cs),
(394,962,o),
(366,932,o),
(350,892,c),
(395,874,l),
(402,898,o),
(418,914,o),
(442,914,cs),
(468,914,o),
(484,898,o),
(484,874,cs),
(484,848,o),
(470,833,o),
(446,833,cs),
(434,833,o),
(424,838,o),
(418,848,c),
(346,848,l),
(341,842,l),
(341,750,l)
);
},
{
alignment = -1;
ref = E;
}
);
width = 612;
},
{
associatedMasterId = "8275915C-4C26-4DD7-A30E-5590CD7E6050";
layerId = "0BDC1EC2-FD17-441E-9869-107FEFEEB920";
name = img;
width = 612;
},
{
layerId = "8275915C-4C26-4DD7-A30E-5590CD7E6050";
shapes = (
{
alignment = -1;
ref = E;
},
{
alignment = -1;
pos = (132,92);
ref = hookabovecomb;
}
);
width = 612;
}
);
unicode = 7866;
},
{
glyphname = Eogonek;
lastChange = "2025-01-15 13:13:32 +0000";
layers = (
{
layerId = "CCBD71C2-CFAF-4DB2-A010-494EF6BDA443";
shapes = (
{
closed = 1;
nodes = (
(473,-164,l),
(473,-98,l),
(431,-98,ls),
(419,-98,o),
(412,-92,o),
(412,-81,cs),
(412,-76,o),
(413,-73,o),
(415,-68,cs),
(446,0,l),
(446,78,l),
(129,78,l),
(178,312,l),
(500,312,l),
(500,390,l),
(195,390,l),
(244,622,l),
(572,622,l),
(572,700,l),
(177,700,l),
(28,0,l),
(377,0,l),
(349,-66,ls),
(343,-80,o),
(341,-92,o),
(341,-103,cs),
(341,-141,o),
(370,-164,o),
(403,-164,cs)
);
}
);
width = 612;
},
{
associatedMasterId = "8275915C-4C26-4DD7-A30E-5590CD7E6050";
layerId = "881F59E1-234F-4AB1-9040-030D9EC25D22";
name = img;
width = 612;
},
{
layerId = "8275915C-4C26-4DD7-A30E-5590CD7E6050";
shapes = (
{
closed = 1;
nodes = (
(496,-170,l),
(496,-86,l),
(459,-86,ls),
(446,-86,o),
(440,-80,o),
(440,-70,cs),
(440,-64,o),
(441,-61,o),
(443,-56,cs),
(469,0,l),
(469,126,l),
(174,126,l),
(208,288,l),
(506,288,l),
(506,414,l),
(235,414,l),
(269,574,l),
(579,574,l),
(579,700,l),
(164,700,l),
(18,12,l),
(18,0,l),
(383,0,l),
(354,-66,ls),
(347,-82,o),
(344,-96,o),
(344,-109,cs),
(344,-147,o),
(372,-170,o),
(414,-170,cs)
);
}
);
width = 612;
}
);
unicode = 280;
},
{
glyphname = Schwa;
lastChange = "2025-01-15 13:17:44 +0000";
layers = (
{
associatedMasterId = "CCBD71C2-CFAF-4DB2-A010-494EF6BDA443";
layerId = "B5F68FDA-8C9D-4654-935C-D86EAB7081E6";
name = img;
width = 612;
},
{
layerId = "CCBD71C2-CFAF-4DB2-A010-494EF6BDA443";
shapes = (
{
closed = 1;
nodes = (
(398,-14,o),
(490,78,o),
(532,272,cs),
(563,416,ls),
(569,445,o),
(572,473,o),
(572,499,cs),
(572,629,o),
(495,714,o),
(362,714,cs),
(202,714,o),
(110,608,o),
(82,472,cs),
(77,448,l),
(160,448,l),
(164,466,ls),
(185,562,o),
(250,638,o),
(354,638,cs),
(447,638,o),
(489,580,o),
(489,496,cs),
(489,475,o),
(487,457,o),
(481,429,cs),
(467,362,l),
(59,362,l),
(35,250,ls),
(30,228,o),
(28,206,o),
(28,186,cs),
(28,72,o),
(101,-14,o),
(239,-14,cs)
);
},
{
closed = 1;
nodes = (
(149,62,o),
(112,119,o),
(112,190,cs),
(112,206,o),
(113,220,o),
(117,240,cs),
(126,284,l),
(450,284,l),
(449,278,ls),
(420,142,o),
(355,62,o),
(252,62,cs)
);
}
);
width = 612;
},
{
layerId = "8275915C-4C26-4DD7-A30E-5590CD7E6050";
shapes = (
{
closed = 1;
nodes = (
(402,-14,o),
(506,68,o),
(549,272,cs),
(582,428,ls),
(586,449,o),
(590,476,o),
(590,498,cs),
(590,623,o),
(511,714,o),
(372,714,cs),
(210,714,o),
(108,628,o),
(70,448,c),
(202,448,l),
(216,522,o),
(258,594,o),
(352,594,cs),
(425,594,o),
(457,550,o),
(457,486,cs),
(457,471,o),
(456,456,o),
(452,438,cs),
(440,380,l),
(56,380,l),
(29,252,ls),
(24,229,o),
(22,207,o),
(22,186,cs),
(22,65,o),
(102,-14,o),
(230,-14,cs)
);
},
{
closed = 1;
nodes = (
(177,106,o),
(153,147,o),
(153,198,cs),
(153,213,o),
(156,232,o),
(159,246,cs),
(161,254,l),
(413,254,l),
(395,167,o),
(348,106,o),
(254,106,cs)
);
}
);
width = 612;
}
);
unicode = 399;
},
{
glyphname = F;
lastChange = "2025-01-15 13:13:32 +0000";
layers = (
{
layerId = "CCBD71C2-CFAF-4DB2-A010-494EF6BDA443";
shapes = (
{
closed = 1;
nodes = (
(109,0,l),
(175,312,l),
(503,312,l),
(503,390,l),
(192,390,l),
(241,622,l),
(575,622,l),
(575,700,l),
(174,700,l),
(25,0,l)
);
}
);
width = 612;
},
{
layerId = "8275915C-4C26-4DD7-A30E-5590CD7E6050";
shapes = (
{
closed = 1;
nodes = (
(148,0,l),
(209,288,l),
(519,288,l),
(519,414,l),
(236,414,l),
(270,574,l),
(586,574,l),
(586,700,l),
(165,700,l),
(16,0,l)
);
}
);
width = 612;
}
);
unicode = 70;
},
{
glyphname = G;
lastChange = "2025-01-15 13:13:32 +0000";
layers = (
{
layerId = "CCBD71C2-CFAF-4DB2-A010-494EF6BDA443";
shapes = (
{
closed = 1;
nodes = (
(304,-14,o),
(370,26,o),
(404,84,c),
(416,84,l),
(396,0,l),
(476,0,l),
(548,336,l),
(242,336,l),
(242,258,l),
(449,258,l),
(443,234,ls),
(417,131,o),
(346,62,o),
(245,62,cs),
(159,62,o),
(118,111,o),
(118,198,cs),
(118,222,o),
(121,248,o),
(127,278,cs),
(158,422,ls),
(185,550,o),
(258,638,o),
(366,638,cs),
(457,638,o),
(497,587,o),
(497,516,cs),
(497,498,o),
(495,480,o),
(490,460,cs),
(487,448,l),
(571,448,l),
(574,460,ls),
(579,480,o),
(581,497,o),
(581,520,cs),
(581,632,o),
(508,714,o),
(380,714,cs),
(218,714,o),
(114,614,o),
(75,428,cs),
(42,272,ls),
(34,236,o),
(32,210,o),
(32,183,cs),
(32,54,o),
(111,-14,o),
(223,-14,cs)
);
}
);
width = 612;
},
{
layerId = "8275915C-4C26-4DD7-A30E-5590CD7E6050";
shapes = (
{
closed = 1;
nodes = (
(290,-14,o),
(342,26,o),
(368,78,c),
(386,78,l),
(369,0,l),
(489,0,l),
(561,342,l),
(561,354,l),
(252,354,l),
(252,228,l),
(406,228,l),
(391,158,o),
(339,112,o),
(261,112,cs),
(197,112,o),
(157,148,o),
(157,220,cs),
(157,236,o),
(158,250,o),
(163,274,cs),
(195,422,ls),
(221,544,o),
(284,588,o),
(358,588,cs),
(424,588,o),
(460,554,o),
(460,499,cs),
(460,487,o),
(459,476,o),
(455,460,cs),
(452,448,l),
(584,448,l),
(587,460,ls),
(591,477,o),
(594,499,o),
(594,518,cs),
(594,625,o),
(516,714,o),
(382,714,cs),
(214,714,o),
(106,624,o),
(65,432,cs),
(30,268,ls),
(23,235,o),
(20,208,o),
(20,182,cs),
(20,54,o),
(95,-14,o),
(200,-14,cs)
);
}
);
width = 612;
}
);
unicode = 71;
},
{
glyphname = Gcommaaccent;
lastChange = "2025-01-15 13:17:44 +0000";
layers = (
{
guides = (
{
angle = 90;
pos = (223,0);
},
{
angle = 90;
pos = (245,0);
},
{
angle = 90;
pos = (242,0);
}
);
layerId = "CCBD71C2-CFAF-4DB2-A010-494EF6BDA443";
shapes = (
{
alignment = -1;
ref = G;
},
{
alignment = -1;
pos = (-59,-170);
ref = comma;
}
);
width = 612;
},
{
associatedMasterId = "8275915C-4C26-4DD7-A30E-5590CD7E6050";
layerId = "0BEDB9DC-A9F0-481A-A6B3-F9F1914C23CE";
name = img;
width = 612;
},
{
layerId = "8275915C-4C26-4DD7-A30E-5590CD7E6050";
shapes = (
{
closed = 1;
nodes = (
(160,-338,ls),
(212,-338,o),
(251,-316,o),
(261,-269,cs),
(285,-155,ls),
(286,-148,o),
(287,-141,o),
(287,-135,cs),
(287,-85,o),
(245,-44,o),
(196,-44,cs),
(146,-44,o),
(105,-83,o),
(105,-134,cs),
(105,-192,o),
(150,-218,o),
(193,-218,c),
(190,-237,ls),
(187,-256,o),
(176,-260,o),
(154,-260,cs),
(112,-260,l),
(112,-338,l)
);
},
{
alignment = -1;
ref = G;
}
);
width = 612;
}
);
unicode = 290;
},
{
glyphname = H;
lastChange = "2025-01-15 13:13:32 +0000";
layers = (
{
layerId = "CCBD71C2-CFAF-4DB2-A010-494EF6BDA443";
shapes = (
{
closed = 1;
nodes = (
(93,0,l),
(159,312,l),
(435,312,l),
(369,0,l),
(455,0,l),
(604,700,l),
(518,700,l),
(452,390,l),
(176,390,l),
(242,700,l),
(156,700,l),
(8,0,l)
);
}
);
width = 612;
},
{
layerId = "8275915C-4C26-4DD7-A30E-5590CD7E6050";
shapes = (
{
closed = 1;
nodes = (
(131,0,l),
(192,288,l),
(392,288,l),
(331,0,l),
(463,0,l),
(612,700,l),
(480,700,l),
(419,414,l),
(219,414,l),
(280,700,l),
(148,700,l),
(0,0,l)
);
}
);
width = 612;
}
);
unicode = 72;
},
{
glyphname = Hbar;
lastChange = "2025-01-15 13:13:32 +0000";
layers = (
{
layerId = "CCBD71C2-CFAF-4DB2-A010-494EF6BDA443";
shapes = (
{
closed = 1;
nodes = (
(93,0,l),
(159,312,l),
(435,312,l),
(369,0,l),
(455,0,l),
(560,496,l),
(630,496,l),
(630,574,l),
(577,574,l),
(604,700,l),
(518,700,l),
(491,574,l),
(215,574,l),
(242,700,l),
(156,700,l),
(129,574,l),
(54,574,l),
(54,496,l),
(113,496,l),
(8,0,l)
);
},
{
closed = 1;
nodes = (
(198,496,l),
(474,496,l),
(452,390,l),
(176,390,l)
);
}
);
width = 612;
},
{
layerId = "8275915C-4C26-4DD7-A30E-5590CD7E6050";
shapes = (
{
closed = 1;
nodes = (
(131,0,l),
(192,288,l),
(386,288,l),
(325,0,l),
(457,0,l),
(562,496,l),
(643,496,l),
(643,616,l),
(588,616,l),
(606,700,l),
(474,700,l),
(456,616,l),
(262,616,l),
(280,700,l),
(148,700,l),
(130,616,l),
(50,616,l),
(50,496,l),
(105,496,l),
(0,0,l)
);
},
{
closed = 1;
nodes = (
(236,496,l),
(430,496,l),
(413,414,l),
(219,414,l)
);
}
);
width = 612;
}
);
unicode = 294;
},
{
glyphname = I;
lastChange = "2025-01-15 13:13:32 +0000";
layers = (
{
layerId = "CCBD71C2-CFAF-4DB2-A010-494EF6BDA443";
shapes = (
{
closed = 1;
nodes = (
(464,0,l),
(464,78,l),
(290,78,l),
(405,622,l),
(579,622,l),
(579,700,l),
(147,700,l),
(147,622,l),
(321,622,l),
(206,78,l),
(32,78,l),
(32,0,l)
);
}
);
width = 612;
},
{
layerId = "8275915C-4C26-4DD7-A30E-5590CD7E6050";
shapes = (
{
closed = 1;
nodes = (
(486,0,l),
(486,126,l),
(324,126,l),
(419,574,l),
(581,574,l),
(581,700,l),
(125,700,l),
(125,574,l),
(287,574,l),
(192,126,l),
(30,126,l),
(30,0,l)
);
}
);
width = 612;
}
);
unicode = 73;
},
{
glyphname = IJ;
lastChange = "2025-01-15 13:13:32 +0000";
layers = (
{
associatedMasterId = "CCBD71C2-CFAF-4DB2-A010-494EF6BDA443";
layerId = "B5F68FDA-8C9D-4654-935C-D86EAB7081E6";
name = img;
width = 612;
},
{
layerId = "CCBD71C2-CFAF-4DB2-A010-494EF6BDA443";
shapes = (
{
closed = 1;
nodes = (
(374,-14,o),
(445,68,o),
(475,206,cs),
(564,622,l),
(630,622,l),
(630,700,l),
(402,700,l),
(402,622,l),
(480,622,l),
(392,210,ls),
(374,124,o),
(328,64,o),
(235,64,cs),
(158,64,o),
(122,97,o),
(122,160,cs),
(122,175,o),
(124,192,o),
(128,210,cs),
(140,264,l),
(56,264,l),
(44,210,ls),
(40,191,o),
(38,172,o),
(38,155,cs),
(38,53,o),
(108,-14,o),
(224,-14,cs)
);
},
{
closed = 1;
nodes = (
(157,342,l),
(233,700,l),
(149,700,l),
(73,342,l)
);
}
);
width = 612;
},
{
layerId = "8275915C-4C26-4DD7-A30E-5590CD7E6050";
shapes = (
{
closed = 1;
nodes = (
(366,-14,o),
(445,52,o),
(479,210,cs),
(557,576,l),
(624,576,l),
(624,700,l),
(350,700,l),
(350,576,l),
(425,576,l),
(347,210,ls),
(334,146,o),
(293,110,o),
(236,110,cs),
(185,110,o),
(158,136,o),
(158,181,cs),
(158,190,o),
(159,201,o),
(161,210,cs),
(175,276,l),
(43,276,l),
(33,229,ls),
(28,207,o),
(26,186,o),
(26,167,cs),
(26,51,o),
(107,-14,o),
(218,-14,cs)
);
},
{
closed = 1;
nodes = (
(189,342,l),
(265,700,l),
(133,700,l),
(57,342,l)
);
}
);
width = 612;
}
);
unicode = 306;
},
{
glyphname = Iogonek;
lastChange = "2025-01-15 13:13:32 +0000";
layers = (
{
associatedMasterId = "CCBD71C2-CFAF-4DB2-A010-494EF6BDA443";
layerId = "B5F68FDA-8C9D-4654-935C-D86EAB7081E6";
name = img;
width = 612;
},
{
layerId = "CCBD71C2-CFAF-4DB2-A010-494EF6BDA443";
shapes = (
{
closed = 1;
nodes = (
(491,-164,l),
(491,-98,l),
(449,-98,ls),
(437,-98,o),
(430,-92,o),
(430,-81,cs),
(430,-76,o),
(431,-73,o),
(433,-68,cs),
(464,0,l),
(464,78,l),
(290,78,l),
(405,622,l),
(579,622,l),
(579,700,l),
(147,700,l),
(147,622,l),
(321,622,l),
(206,78,l),
(32,78,l),
(32,0,l),
(395,0,l),
(367,-66,ls),
(361,-80,o),
(359,-92,o),
(359,-103,cs),
(359,-141,o),
(388,-164,o),
(421,-164,cs)
);
}
);
width = 612;
},
{
associatedMasterId = "8275915C-4C26-4DD7-A30E-5590CD7E6050";
layerId = "8A6A4C59-5303-4985-9D60-50A05A920377";
name = img;
width = 612;
},
{
layerId = "8275915C-4C26-4DD7-A30E-5590CD7E6050";
shapes = (
{
closed = 1;
nodes = (
(513,-170,l),
(513,-86,l),
(476,-86,ls),
(463,-86,o),
(457,-80,o),
(457,-70,cs),
(457,-64,o),
(458,-61,o),
(460,-56,cs),
(486,0,l),
(486,126,l),
(324,126,l),
(419,574,l),
(581,574,l),
(581,700,l),
(125,700,l),
(125,574,l),
(287,574,l),
(192,126,l),
(30,126,l),
(30,0,l),
(400,0,l),
(371,-66,ls),
(364,-82,o),
(361,-96,o),
(361,-109,cs),
(361,-147,o),
(389,-170,o),
(431,-170,cs)
);
}
);
width = 612;
}
);
unicode = 302;
},
{
glyphname = J;
lastChange = "2025-01-15 14:42:17 +0000";
layers = (
{
anchors = (
{
name = bottom;
pos = (253,0);
},
{
name = top;
pos = (514,700);
}
);
layerId = "CCBD71C2-CFAF-4DB2-A010-494EF6BDA443";
shapes = (
{
closed = 1;
nodes = (
(366,-14,o),
(437,68,o),
(467,206,cs),
(556,622,l),
(622,622,l),
(622,700,l),
(394,700,l),
(394,622,l),
(472,622,l),
(384,210,ls),
(366,124,o),
(320,64,o),
(227,64,cs),
(150,64,o),
(114,97,o),
(114,160,cs),
(114,175,o),
(116,192,o),
(120,210,cs),
(132,264,l),
(48,264,l),
(36,210,ls),
(32,191,o),
(30,172,o),
(30,155,cs),
(30,53,o),
(100,-14,o),
(216,-14,cs)
);
}
);
width = 612;
},
{
anchors = (
{
name = bottom;
pos = (253,0);
},
{
name = top;
pos = (510,700);
}
);
layerId = "8275915C-4C26-4DD7-A30E-5590CD7E6050";
shapes = (
{
closed = 1;
nodes = (
(363,-14,o),
(442,52,o),
(476,210,cs),
(554,576,l),
(621,576,l),
(621,700,l),
(347,700,l),
(347,576,l),
(422,576,l),
(344,210,ls),
(331,146,o),
(290,110,o),
(233,110,cs),
(182,110,o),
(155,136,o),
(155,181,cs),
(155,190,o),
(156,201,o),
(158,210,cs),
(172,276,l),
(40,276,l),
(30,229,ls),
(25,207,o),
(23,186,o),
(23,167,cs),
(23,51,o),
(104,-14,o),
(215,-14,cs)
);
}
);
width = 612;
}
);
unicode = 74;
},
{
glyphname = K;
lastChange = "2025-01-15 13:13:32 +0000";
layers = (
{
layerId = "CCBD71C2-CFAF-4DB2-A010-494EF6BDA443";
shapes = (
{
closed = 1;
nodes = (
(91,0,l),
(157,312,l),
(197,312,l),
(398,0,l),
(493,0,l),
(493,6,l),
(275,344,l),
(275,356,l),
(612,688,l),
(612,700,l),
(515,700,l),
(200,390,l),
(174,390,l),
(240,700,l),
(154,700,l),
(5,0,l)
);
}
);
width = 612;
},
{
layerId = "8275915C-4C26-4DD7-A30E-5590CD7E6050";
shapes = (
{
closed = 1;
nodes = (
(128,0,l),
(188,287,l),
(230,287,l),
(376,0,l),
(522,0,l),
(522,6,l),
(354,338,l),
(354,356,l),
(620,688,l),
(620,700,l),
(466,700,l),
(240,413,l),
(216,413,l),
(277,700,l),
(145,700,l),
(-4,0,l)
);
}
);
width = 612;
}
);
unicode = 75;
},
{
glyphname = Kcommaaccent;
lastChange = "2025-01-15 13:17:44 +0000";
layers = (
{
guides = (
{
angle = 90;
pos = (157,0);
},
{
angle = 90;
pos = (197,0);
},
{
angle = 90;
pos = (174,0);
},
{
angle = 90;
pos = (200,0);
}
);
layerId = "CCBD71C2-CFAF-4DB2-A010-494EF6BDA443";
shapes = (
{
alignment = -1;
ref = K;
},
{
alignment = -1;
pos = (-35,-170);
ref = comma;
}
);
width = 612;
},
{
associatedMasterId = "8275915C-4C26-4DD7-A30E-5590CD7E6050";
layerId = "5D65291A-1CB3-4738-8016-4FB294E82514";
name = img;
width = 612;
},
{
layerId = "8275915C-4C26-4DD7-A30E-5590CD7E6050";
shapes = (
{
closed = 1;
nodes = (
(201,-338,ls),
(253,-338,o),
(292,-316,o),
(302,-269,cs),
(326,-155,ls),
(327,-148,o),
(328,-141,o),
(328,-135,cs),
(328,-85,o),
(286,-44,o),
(237,-44,cs),
(187,-44,o),
(146,-83,o),
(146,-134,cs),
(146,-192,o),
(191,-218,o),
(234,-218,c),
(231,-237,ls),
(228,-256,o),
(217,-260,o),
(195,-260,cs),
(146,-260,l),
(146,-338,l)
);
},
{
alignment = -1;
ref = K;
}
);
width = 612;
}
);
unicode = 310;
},
{
glyphname = L;
lastChange = "2025-01-15 13:13:32 +0000";
layers = (
{
layerId = "CCBD71C2-CFAF-4DB2-A010-494EF6BDA443";
shapes = (
{
closed = 1;
nodes = (
(485,0,l),
(485,78,l),
(125,78,l),
(257,700,l),
(173,700,l),
(24,0,l)
);
}
);
width = 612;
},
{
layerId = "8275915C-4C26-4DD7-A30E-5590CD7E6050";
shapes = (
{
closed = 1;
nodes = (
(475,0,l),
(475,126,l),
(171,126,l),
(293,700,l),
(161,700,l),
(15,12,l),
(15,0,l)
);
}
);
width = 612;
}
);
unicode = 76;
},
{
glyphname = Lcaron;
lastChange = "2025-01-15 13:13:32 +0000";
layers = (
{
guides = (
{
angle = 90;
pos = (485,0);
}
);
layerId = "CCBD71C2-CFAF-4DB2-A010-494EF6BDA443";
shapes = (
{
alignment = -1;
ref = L;
},
{
alignment = -1;
pos = (154,-14);
ref = quoteright;
}
);
width = 612;
},
{
associatedMasterId = "8275915C-4C26-4DD7-A30E-5590CD7E6050";
layerId = "2071066F-F4F0-4918-BF87-1A086481FF38";
name = img;
width = 612;
},
{
layerId = "8275915C-4C26-4DD7-A30E-5590CD7E6050";
shapes = (
{
closed = 1;
nodes = (
(475,0,l),
(475,126,l),
(171,126,l),
(293,700,l),
(161,700,l),
(15,12,l),
(15,0,l)
);
},
{
closed = 1;
nodes = (
(470,406,ls),
(522,406,o),
(561,428,o),
(571,476,cs),
(595,590,ls),
(596,596,o),
(597,603,o),
(597,609,cs),
(597,660,o),
(555,700,o),
(506,700,cs),
(456,700,o),
(415,662,o),
(415,610,cs),
(415,550,o),
(459,523,o),
(503,523,c),
(500,508,ls),
(497,491,o),
(486,484,o),
(467,484,cs),
(392,484,l),
(392,406,l)
);
}
);
width = 612;
}
);
unicode = 317;
},
{
glyphname = Lcommaaccent;
lastChange = "2025-01-15 13:17:44 +0000";
layers = (
{
associatedMasterId = "CCBD71C2-CFAF-4DB2-A010-494EF6BDA443";
layerId = "B5F68FDA-8C9D-4654-935C-D86EAB7081E6";
name = img;
width = 612;
},
{
guides = (
{
angle = 90;
pos = (125,0);
},
{
angle = 90;
pos = (173,0);
},
{
angle = 90;
pos = (257,0);
}
);
layerId = "CCBD71C2-CFAF-4DB2-A010-494EF6BDA443";
shapes = (
{
alignment = -1;
ref = L;
},
{
alignment = -1;
pos = (-1,-170);
ref = comma;
}
);
width = 612;
},
{
associatedMasterId = "8275915C-4C26-4DD7-A30E-5590CD7E6050";
layerId = "957E8622-3D85-4238-AD49-35AC62ED606C";
name = img;
width = 612;
},
{
layerId = "8275915C-4C26-4DD7-A30E-5590CD7E6050";
shapes = (
{
closed = 1;
nodes = (
(195,-338,ls),
(247,-338,o),
(286,-316,o),
(296,-269,cs),
(320,-155,ls),
(321,-148,o),
(322,-141,o),
(322,-135,cs),
(322,-85,o),
(280,-44,o),
(231,-44,cs),
(181,-44,o),
(140,-83,o),
(140,-134,cs),
(140,-192,o),
(185,-218,o),
(228,-218,c),
(225,-237,ls),
(222,-256,o),
(211,-260,o),
(189,-260,cs),
(140,-260,l),
(140,-338,l)
);
},
{
alignment = -1;
ref = L;
}
);
width = 612;
}
);
unicode = 315;
},
{
glyphname = Lslash;
lastChange = "2025-01-15 13:13:32 +0000";
layers = (
{
layerId = "CCBD71C2-CFAF-4DB2-A010-494EF6BDA443";
shapes = (
{
closed = 1;
nodes = (
(497,0,l),
(497,78,l),
(137,78,l),
(185,307,l),
(304,340,l),
(284,412,l),
(203,390,l),
(269,700,l),
(185,700,l),
(114,367,l),
(12,340,l),
(32,266,l),
(96,283,l),
(36,0,l)
);
}
);
width = 612;
},
{
associatedMasterId = "8275915C-4C26-4DD7-A30E-5590CD7E6050";
layerId = "0B9595B7-18A4-40F0-87F5-2D8FA93E5724";
name = img;
width = 612;
},
{
layerId = "8275915C-4C26-4DD7-A30E-5590CD7E6050";
shapes = (
{
closed = 1;
nodes = (
(475,0,l),
(475,126,l),
(171,126,l),
(207,296,l),
(337,332,l),
(308,439,l),
(233,418,l),
(293,700,l),
(161,700,l),
(93,379,l),
(-13,350,l),
(14,243,l),
(67,257,l),
(15,12,l),
(15,0,l)
);
}
);
width = 612;
}
);
unicode = 321;
},
{
glyphname = M;
lastChange = "2025-01-15 13:13:32 +0000";
layers = (
{
layerId = "CCBD71C2-CFAF-4DB2-A010-494EF6BDA443";
shapes = (
{
closed = 1;
nodes = (
(61,0,l),
(202,664,l),
(214,664,l),
(157,0,l),
(311,0,l),
(530,664,l),
(542,664,l),
(401,0,l),
(479,0,l),
(628,700,l),
(464,700,l),
(245,36,l),
(233,36,l),
(291,700,l),
(132,700,l),
(-16,0,l)
);
}
);
width = 612;
},
{
layerId = "8275915C-4C26-4DD7-A30E-5590CD7E6050";
shapes = (
{
closed = 1;
nodes = (
(79,0,l),
(179,466,l),
(199,616,l),
(223,616,l),
(144,0,l),
(323,0,l),
(502,616,l),
(526,616,l),
(481,460,l),
(383,0,l),
(497,0,l),
(646,700,l),
(426,700,l),
(286,204,l),
(260,84,l),
(236,84,l),
(260,198,l),
(328,700,l),
(114,700,l),
(-34,0,l)
);
}
);
width = 612;
}
);
unicode = 77;
},
{
glyphname = N;
lastChange = "2025-01-15 13:13:32 +0000";
layers = (
{
layerId = "CCBD71C2-CFAF-4DB2-A010-494EF6BDA443";
shapes = (
{
closed = 1;
nodes = (
(94,0,l),
(235,664,l),
(247,664,l),
(287,0,l),
(452,0,l),
(601,700,l),
(517,700,l),
(376,36,l),
(364,36,l),
(324,700,l),
(159,700,l),
(10,0,l)
);
}
);
width = 612;
},
{
layerId = "8275915C-4C26-4DD7-A30E-5590CD7E6050";
shapes = (
{
closed = 1;
nodes = (
(118,0,l),
(253,634,l),
(271,634,l),
(224,0,l),
(470,0,l),
(619,700,l),
(493,700,l),
(358,66,l),
(340,66,l),
(387,700,l),
(141,700,l),
(-7,0,l)
);
}
);
width = 612;
}
);
unicode = 78;
},
{
glyphname = Ncommaaccent;
lastChange = "2025-01-15 13:17:44 +0000";
layers = (
{
associatedMasterId = "CCBD71C2-CFAF-4DB2-A010-494EF6BDA443";
layerId = "B5F68FDA-8C9D-4654-935C-D86EAB7081E6";
name = img;
width = 612;
},
{
guides = (
{
angle = 90;
pos = (94,0);
},
{
angle = 90;
pos = (287,0);
},
{
angle = 90;
pos = (159,0);
},
{
angle = 90;
pos = (235,0);
},
{
angle = 90;
pos = (247,0);
}
);
layerId = "CCBD71C2-CFAF-4DB2-A010-494EF6BDA443";
shapes = (
{
alignment = -1;
ref = N;
},
{
alignment = -1;
pos = (-74,-170);
ref = comma;
}
);
width = 612;
},
{
associatedMasterId = "8275915C-4C26-4DD7-A30E-5590CD7E6050";
layerId = "80794A59-E400-406D-B2C9-0D6F445BA140";
name = img;
width = 612;
},
{
layerId = "8275915C-4C26-4DD7-A30E-5590CD7E6050";
shapes = (
{
closed = 1;
nodes = (
(131,-338,ls),
(183,-338,o),
(222,-316,o),
(232,-269,cs),
(256,-155,ls),
(257,-148,o),
(258,-141,o),
(258,-135,cs),
(258,-85,o),
(216,-44,o),
(167,-44,cs),
(117,-44,o),
(76,-83,o),
(76,-134,cs),
(76,-192,o),
(121,-218,o),
(164,-218,c),
(161,-237,ls),
(158,-256,o),
(147,-260,o),
(125,-260,cs),
(83,-260,l),
(83,-338,l)
);
},
{
alignment = -1;
ref = N;
}
);
width = 612;
}
);
unicode = 325;
},
{
glyphname = Eng;
lastChange = "2025-01-15 13:13:32 +0000";
layers = (
{
associatedMasterId = "CCBD71C2-CFAF-4DB2-A010-494EF6BDA443";
layerId = "B5F68FDA-8C9D-4654-935C-D86EAB7081E6";
name = img;
width = 612;
},
{
layerId = "CCBD71C2-CFAF-4DB2-A010-494EF6BDA443";
shapes = (
{
closed = 1;
nodes = (
(290,-200,ls),
(368,-200,o),
(417,-166,o),
(435,-80,cs),
(601,700,l),
(517,700,l),
(376,36,l),
(364,36,l),
(324,700,l),
(159,700,l),
(10,0,l),
(94,0,l),
(235,664,l),
(247,664,l),
(287,0,l),
(368,0,l),
(354,-68,ls),
(346,-108,o),
(328,-122,o),
(288,-122,cs),
(128,-122,l),
(128,-200,l)
);
}
);
width = 612;
},
{
layerId = "8275915C-4C26-4DD7-A30E-5590CD7E6050";
shapes = (
{
closed = 1;
nodes = (
(326,-200,ls),
(386,-200,o),
(434,-167,o),
(449,-98,cs),
(619,700,l),
(493,700,l),
(358,66,l),
(340,66,l),
(387,700,l),
(141,700,l),
(-7,0,l),
(118,0,l),
(253,634,l),
(271,634,l),
(224,0,l),
(345,0,l),
(335,-47,ls),
(331,-68,o),
(319,-80,o),
(298,-80,cs),
(147,-80,l),
(147,-200,l)
);
}
);
width = 612;
}
);
unicode = 330;
},
{
glyphname = O;
lastChange = "2025-01-15 13:13:32 +0000";
layers = (
{
layerId = "CCBD71C2-CFAF-4DB2-A010-494EF6BDA443";
shapes = (
{
closed = 1;
nodes = (
(400,-14,o),
(497,86,o),
(536,272,cs),
(567,417,ls),
(574,448,o),
(577,478,o),
(577,505,cs),
(577,635,o),
(506,714,o),
(377,714,cs),
(213,714,o),
(116,614,o),
(77,428,cs),
(46,283,ls),
(39,252,o),
(36,222,o),
(36,195,cs),
(36,65,o),
(107,-14,o),
(236,-14,cs)
);
},
{
closed = 1;
nodes = (
(163,62,o),
(120,116,o),
(120,202,cs),
(120,223,o),
(123,247,o),
(128,272,cs),
(160,422,ls),
(188,553,o),
(255,638,o),
(365,638,cs),
(450,638,o),
(493,584,o),
(493,498,cs),
(493,477,o),
(490,453,o),
(485,428,cs),
(453,278,ls),
(425,148,o),
(358,62,o),
(248,62,cs)
);
}
);
width = 612;
},
{
layerId = "8275915C-4C26-4DD7-A30E-5590CD7E6050";
shapes = (
{
closed = 1;
nodes = (
(413,-14,o),
(507,76,o),
(548,272,cs),
(581,428,ls),
(586,451,o),
(588,474,o),
(588,496,cs),
(588,620,o),
(509,714,o),
(368,714,cs),
(200,714,o),
(106,624,o),
(65,428,cs),
(32,272,ls),
(27,249,o),
(25,226,o),
(25,204,cs),
(25,80,o),
(104,-14,o),
(245,-14,cs)
);
},
{
closed = 1;
nodes = (
(193,106,o),
(156,147,o),
(156,214,cs),
(156,229,o),
(158,246,o),
(162,264,cs),
(199,436,ls),
(218,524,o),
(265,594,o),
(356,594,cs),
(420,594,o),
(457,553,o),
(457,486,cs),
(457,471,o),
(455,457,o),
(451,436,cs),
(414,264,ls),
(395,176,o),
(348,106,o),
(257,106,cs)
);
}
);
width = 612;
}
);
unicode = 79;
},
{
glyphname = Ocircumflexhookabove;
lastChange = "2025-01-15 13:17:44 +0000";
layers = (
{
associatedMasterId = "CCBD71C2-CFAF-4DB2-A010-494EF6BDA443";
layerId = "B5F68FDA-8C9D-4654-935C-D86EAB7081E6";
name = img;
width = 612;
},
{
guides = (
{
pos = (0,858);
}
);
layerId = "CCBD71C2-CFAF-4DB2-A010-494EF6BDA443";
shapes = (
{
closed = 1;
nodes = (
(587,858,l),
(587,926,l),
(593,926,l),
(601,906,o),
(623,894,o),
(651,894,cs),
(699,894,o),
(735,936,o),
(735,986,cs),
(735,1034,o),
(697,1070,o),
(645,1070,cs),
(591,1070,o),
(563,1040,o),
(547,1000,c),
(592,982,l),
(599,1006,o),
(615,1022,o),
(639,1022,cs),
(665,1022,o),
(681,1006,o),
(681,982,cs),
(681,956,o),
(667,941,o),
(643,941,cs),
(631,941,o),
(621,946,o),
(615,956,c),
(543,956,l),
(538,950,l),
(538,858,l)
);
},
{
alignment = -1;
ref = O;
},
{
alignment = -1;
pos = (52,204);
ref = circumflex;
}
);
width = 612;
},
{
associatedMasterId = "8275915C-4C26-4DD7-A30E-5590CD7E6050";
layerId = "22D10CE2-9E64-4DB9-8397-E7CCBAE8DA02";
name = img;
width = 612;
},
{
layerId = "8275915C-4C26-4DD7-A30E-5590CD7E6050";
shapes = (
{
alignment = -1;
ref = O;
},
{
alignment = -1;
pos = (50,204);
ref = circumflex;
},
{
alignment = -1;
pos = (368,204);
ref = hookabovecomb;
}
);
width = 612;
}
);
unicode = 7892;
},
{
glyphname = Ohookabove;
lastChange = "2025-01-15 13:17:44 +0000";
layers = (
{
guides = (
{
angle = 90;
pos = (365,0);
},
{
angle = 90;
pos = (377,0);
}
);
layerId = "CCBD71C2-CFAF-4DB2-A010-494EF6BDA443";
shapes = (
{
closed = 1;
nodes = (
(405,750,l),
(405,818,l),
(411,818,l),
(419,798,o),
(441,786,o),
(469,786,cs),
(517,786,o),
(553,828,o),
(553,878,cs),
(553,926,o),
(515,962,o),
(463,962,cs),
(409,962,o),
(381,932,o),
(365,892,c),
(410,874,l),
(417,898,o),
(433,914,o),
(457,914,cs),
(483,914,o),
(499,898,o),
(499,874,cs),
(499,848,o),
(485,833,o),
(461,833,cs),
(449,833,o),
(439,838,o),
(433,848,c),
(361,848,l),
(356,842,l),
(356,750,l)
);
},
{
alignment = -1;
ref = O;
}
);
width = 612;
},
{
associatedMasterId = "8275915C-4C26-4DD7-A30E-5590CD7E6050";
layerId = "7CC7F08F-CA51-424F-9A4B-DEF63D749448";
name = img;
width = 612;
},
{
layerId = "8275915C-4C26-4DD7-A30E-5590CD7E6050";
shapes = (
{
alignment = -1;
ref = O;
},
{
alignment = -1;
pos = (153,92);
ref = hookabovecomb;
}
);
width = 612;
}
);
unicode = 7886;
},
{
glyphname = Ohorn;
lastChange = "2025-01-15 13:17:44 +0000";
layers = (
{
associatedMasterId = "CCBD71C2-CFAF-4DB2-A010-494EF6BDA443";
layerId = "B5F68FDA-8C9D-4654-935C-D86EAB7081E6";
name = img;
width = 612;
},
{
layerId = "CCBD71C2-CFAF-4DB2-A010-494EF6BDA443";
shapes = (
{
closed = 1;
nodes = (
(307,-14,o),
(392,55,o),
(427,218,cs),
(478,454,l),
(542,454,ls),
(594,454,o),
(625,482,o),
(635,532,cs),
(653,618,ls),
(654,623,o),
(654,627,o),
(654,630,cs),
(654,668,o),
(622,700,o),
(584,700,cs),
(546,700,o),
(514,668,o),
(514,630,cs),
(514,592,o),
(546,560,o),
(584,560,cs),
(588,560,l),
(583,538,ls),
(579,519,o),
(568,508,o),
(549,508,cs),
(488,508,l),
(490,520,o),
(491,532,o),
(491,544,cs),
(491,643,o),
(424,714,o),
(317,714,cs),
(187,714,o),
(106,626,o),
(74,476,cs),
(22,232,ls),
(17,206,o),
(14,183,o),
(14,161,cs),
(14,47,o),
(84,-14,o),
(184,-14,cs)
);
},
{
closed = 1;
nodes = (
(127,62,o),
(97,96,o),
(97,160,cs),
(97,179,o),
(100,200,o),
(105,224,cs),
(158,476,ls),
(180,578,o),
(229,638,o),
(309,638,cs),
(377,638,o),
(406,603,o),
(406,540,cs),
(406,521,o),
(403,500,o),
(398,476,cs),
(345,224,ls),
(321,114,o),
(272,62,o),
(190,62,cs)
);
}
);
width = 612;
},
{
associatedMasterId = "8275915C-4C26-4DD7-A30E-5590CD7E6050";
layerId = "E5934050-B3BF-47A6-BC09-0FD0B3B968B9";
name = img;
width = 612;
},
{
layerId = "8275915C-4C26-4DD7-A30E-5590CD7E6050";
shapes = (
{
closed = 1;
nodes = (
(285,-14,o),
(352,64,o),
(374,171,cs),
(422,402,l),
(501,402,ls),
(560,402,o),
(597,427,o),
(609,484,cs),
(632,592,ls),
(634,601,o),
(635,609,o),
(635,617,cs),
(635,665,o),
(603,700,o),
(554,700,cs),
(505,700,o),
(464,659,o),
(464,610,cs),
(464,560,o),
(504,526,o),
(540,526,c),
(537,510,ls),
(533,491,o),
(521,480,o),
(502,480,cs),
(438,480,l),
(446,515,ls),
(449,530,o),
(451,544,o),
(451,558,cs),
(451,646,o),
(389,714,o),
(278,714,cs),
(151,714,o),
(84,636,o),
(62,529,cs),
(-10,185,ls),
(-13,170,o),
(-15,156,o),
(-15,142,cs),
(-15,54,o),
(47,-14,o),
(158,-14,cs)
);
},
{
closed = 1;
nodes = (
(140,112,o),
(119,133,o),
(119,166,cs),
(119,174,o),
(120,179,o),
(121,185,cs),
(192,519,ls),
(200,558,o),
(217,588,o),
(262,588,cs),
(296,588,o),
(317,567,o),
(317,534,cs),
(317,526,o),
(316,521,o),
(315,515,cs),
(244,181,ls),
(236,142,o),
(219,112,o),
(174,112,cs)
);
}
);
width = 612;
}
);
unicode = 416;
},
{
glyphname = Ohornacute;
lastChange = "2025-01-15 13:17:44 +0000";
layers = (
{
associatedMasterId = "CCBD71C2-CFAF-4DB2-A010-494EF6BDA443";
layerId = "B5F68FDA-8C9D-4654-935C-D86EAB7081E6";
name = img;
width = 612;
},
{
guides = (
{
angle = 90;
pos = (-175,0);
},
{
angle = 90;
pos = (325,0);
},
{
angle = 90;
pos = (314,0);
}
);
layerId = "CCBD71C2-CFAF-4DB2-A010-494EF6BDA443";
shapes = (
{
closed = 1;
nodes = (
(307,-14,o),
(392,55,o),
(427,218,cs),
(478,454,l),
(542,454,ls),
(594,454,o),
(625,482,o),
(635,532,cs),
(653,618,ls),
(654,623,o),
(654,627,o),
(654,630,cs),
(654,668,o),
(622,700,o),
(584,700,cs),
(546,700,o),
(514,668,o),
(514,630,cs),
(514,592,o),
(546,560,o),
(584,560,cs),
(588,560,l),
(583,538,ls),
(579,519,o),
(568,508,o),
(549,508,cs),
(488,508,l),
(490,520,o),
(491,532,o),
(491,544,cs),
(491,643,o),
(424,714,o),
(317,714,cs),
(187,714,o),
(106,626,o),
(74,476,cs),
(22,232,ls),
(17,206,o),
(14,183,o),
(14,161,cs),
(14,47,o),
(84,-14,o),
(184,-14,cs)
);
},
{
closed = 1;
nodes = (
(127,62,o),
(97,96,o),
(97,160,cs),
(97,179,o),
(100,200,o),
(105,224,cs),
(158,476,ls),
(180,578,o),
(229,638,o),
(309,638,cs),
(377,638,o),
(406,603,o),
(406,540,cs),
(406,521,o),
(403,500,o),
(398,476,cs),
(345,224,ls),
(321,114,o),
(272,62,o),
(190,62,cs)
);
},
{
alignment = -1;
pos = (23,204);
ref = acute;
}
);
width = 612;
},
{
associatedMasterId = "8275915C-4C26-4DD7-A30E-5590CD7E6050";
layerId = "5E32EF13-218A-4CD9-BA40-52E4D5044C2E";
name = img;
width = 612;
},
{
layerId = "8275915C-4C26-4DD7-A30E-5590CD7E6050";
shapes = (
{
alignment = -1;
ref = Ohorn;
},
{
alignment = -1;
pos = (-20,204);
ref = acute;
}
);
width = 612;
}
);
unicode = 7898;
},
{
glyphname = Ohorndotbelow;
lastChange = "2025-01-15 13:17:44 +0000";
layers = (
{
associatedMasterId = "CCBD71C2-CFAF-4DB2-A010-494EF6BDA443";
layerId = "B5F68FDA-8C9D-4654-935C-D86EAB7081E6";
name = img;
width = 612;
},
{
guides = (
{
angle = 90;
pos = (181,0);
}
);
layerId = "CCBD71C2-CFAF-4DB2-A010-494EF6BDA443";
shapes = (
{
closed = 1;
nodes = (
(307,-14,o),
(392,55,o),
(427,218,cs),
(478,454,l),
(542,454,ls),
(594,454,o),
(625,482,o),
(635,532,cs),
(653,618,ls),
(654,623,o),
(654,627,o),
(654,630,cs),
(654,668,o),
(622,700,o),
(584,700,cs),
(546,700,o),
(514,668,o),
(514,630,cs),
(514,592,o),
(546,560,o),
(584,560,cs),
(588,560,l),
(583,538,ls),
(579,519,o),
(568,508,o),
(549,508,cs),
(488,508,l),
(490,520,o),
(491,532,o),
(491,544,cs),
(491,643,o),
(424,714,o),
(317,714,cs),
(187,714,o),
(106,626,o),
(74,476,cs),
(22,232,ls),
(17,206,o),
(14,183,o),
(14,161,cs),
(14,47,o),
(84,-14,o),
(184,-14,cs)
);
},
{
closed = 1;
nodes = (
(127,62,o),
(97,96,o),
(97,160,cs),
(97,179,o),
(100,200,o),
(105,224,cs),
(158,476,ls),
(180,578,o),
(229,638,o),
(309,638,cs),
(377,638,o),
(406,603,o),
(406,540,cs),
(406,521,o),
(403,500,o),
(398,476,cs),
(345,224,ls),
(321,114,o),
(272,62,o),
(190,62,cs)
);
},
{
alignment = -1;
pos = (-75,-190);
ref = period;
}
);
width = 612;
},
{
associatedMasterId = "8275915C-4C26-4DD7-A30E-5590CD7E6050";
layerId = "CEE4C36E-1BA7-4DA9-94A0-A13F8C432139";
name = img;
width = 612;
},
{
layerId = "8275915C-4C26-4DD7-A30E-5590CD7E6050";
shapes = (
{
alignment = -1;
ref = Ohorn;
},
{
alignment = -1;
pos = (-162,-240);
ref = period;
}
);
width = 612;
}
);
unicode = 7906;
},
{
glyphname = Ohorngrave;
lastChange = "2025-01-15 13:17:44 +0000";
layers = (
{
associatedMasterId = "CCBD71C2-CFAF-4DB2-A010-494EF6BDA443";
layerId = "B5F68FDA-8C9D-4654-935C-D86EAB7081E6";
name = img;
width = 612;
},
{
layerId = "CCBD71C2-CFAF-4DB2-A010-494EF6BDA443";
shapes = (
{
closed = 1;
nodes = (
(307,-14,o),
(392,55,o),
(427,218,cs),
(478,454,l),
(542,454,ls),
(594,454,o),
(625,482,o),
(635,532,cs),
(653,618,ls),
(654,623,o),
(654,627,o),
(654,630,cs),
(654,668,o),
(622,700,o),
(584,700,cs),
(546,700,o),
(514,668,o),
(514,630,cs),
(514,592,o),
(546,560,o),
(584,560,cs),
(588,560,l),
(583,538,ls),
(579,519,o),
(568,508,o),
(549,508,cs),
(488,508,l),
(490,520,o),
(491,532,o),
(491,544,cs),
(491,643,o),
(424,714,o),
(317,714,cs),
(187,714,o),
(106,626,o),
(74,476,cs),
(22,232,ls),
(17,206,o),
(14,183,o),
(14,161,cs),
(14,47,o),
(84,-14,o),
(184,-14,cs)
);
},
{
closed = 1;
nodes = (
(127,62,o),
(97,96,o),
(97,160,cs),
(97,179,o),
(100,200,o),
(105,224,cs),
(158,476,ls),
(180,578,o),
(229,638,o),
(309,638,cs),
(377,638,o),
(406,603,o),
(406,540,cs),
(406,521,o),
(403,500,o),
(398,476,cs),
(345,224,ls),
(321,114,o),
(272,62,o),
(190,62,cs)
);
},
{
alignment = -1;
pos = (-55,204);
ref = grave;
}
);
width = 612;
},
{
associatedMasterId = "8275915C-4C26-4DD7-A30E-5590CD7E6050";
layerId = "B802AA21-412B-45AA-8359-02CCD46BC9FC";
name = img;
width = 612;
},
{
layerId = "8275915C-4C26-4DD7-A30E-5590CD7E6050";
shapes = (
{
alignment = -1;
ref = Ohorn;
},
{
alignment = -1;
pos = (-90,204);
ref = grave;
}
);
width = 612;
}
);
unicode = 7900;
},
{
glyphname = Ohornhookabove;
lastChange = "2025-01-15 13:17:44 +0000";
layers = (
{
guides = (
{
angle = 90;
pos = (325,0);
},
{
angle = 90;
pos = (314,0);
}
);
layerId = "CCBD71C2-CFAF-4DB2-A010-494EF6BDA443";
shapes = (
{
closed = 1;
nodes = (
(307,-14,o),
(392,55,o),
(427,218,cs),
(478,454,l),
(542,454,ls),
(594,454,o),
(625,482,o),
(635,532,cs),
(653,618,ls),
(654,623,o),
(654,627,o),
(654,630,cs),
(654,668,o),
(622,700,o),
(584,700,cs),
(546,700,o),
(514,668,o),
(514,630,cs),
(514,592,o),
(546,560,o),
(584,560,cs),
(588,560,l),
(583,538,ls),
(579,519,o),
(568,508,o),
(549,508,cs),
(488,508,l),
(490,520,o),
(491,532,o),
(491,544,cs),
(491,643,o),
(424,714,o),
(317,714,cs),
(187,714,o),
(106,626,o),
(74,476,cs),
(22,232,ls),
(17,206,o),
(14,183,o),
(14,161,cs),
(14,47,o),
(84,-14,o),
(184,-14,cs)
);
},
{
closed = 1;
nodes = (
(127,62,o),
(97,96,o),
(97,160,cs),
(97,179,o),
(100,200,o),
(105,224,cs),
(158,476,ls),
(180,578,o),
(229,638,o),
(309,638,cs),
(377,638,o),
(406,603,o),
(406,540,cs),
(406,521,o),
(403,500,o),
(398,476,cs),
(345,224,ls),
(321,114,o),
(272,62,o),
(190,62,cs)
);
},
{
closed = 1;
nodes = (
(354,750,l),
(354,818,l),
(360,818,l),
(368,798,o),
(390,786,o),
(418,786,cs),
(466,786,o),
(502,828,o),
(502,878,cs),
(502,926,o),
(464,962,o),
(412,962,cs),
(358,962,o),
(330,932,o),
(314,892,c),
(359,874,l),
(366,898,o),
(382,914,o),
(406,914,cs),
(432,914,o),
(448,898,o),
(448,874,cs),
(448,848,o),
(434,833,o),
(410,833,cs),
(398,833,o),
(388,838,o),
(382,848,c),
(310,848,l),
(305,842,l),
(305,750,l)
);
}
);
width = 612;
},
{
associatedMasterId = "8275915C-4C26-4DD7-A30E-5590CD7E6050";
layerId = "80D09DFE-FE19-49D1-869C-F12B6B11CCC7";
name = img;
width = 612;
},
{
layerId = "8275915C-4C26-4DD7-A30E-5590CD7E6050";
shapes = (
{
alignment = -1;
ref = Ohorn;
},
{
alignment = -1;
pos = (63,92);
ref = hookabovecomb;
}
);
width = 612;
}
);
unicode = 7902;
},
{
glyphname = Ohorntilde;
lastChange = "2025-01-15 13:17:44 +0000";
layers = (
{
associatedMasterId = "CCBD71C2-CFAF-4DB2-A010-494EF6BDA443";
layerId = "B5F68FDA-8C9D-4654-935C-D86EAB7081E6";
name = img;
width = 612;
},
{
layerId = "CCBD71C2-CFAF-4DB2-A010-494EF6BDA443";
shapes = (
{
closed = 1;
nodes = (
(307,-14,o),
(392,55,o),
(427,218,cs),
(478,454,l),
(542,454,ls),
(594,454,o),
(625,482,o),
(635,532,cs),
(653,618,ls),
(654,623,o),
(654,627,o),
(654,630,cs),
(654,668,o),
(622,700,o),
(584,700,cs),
(546,700,o),
(514,668,o),
(514,630,cs),
(514,592,o),
(546,560,o),
(584,560,cs),
(588,560,l),
(583,538,ls),
(579,519,o),
(568,508,o),
(549,508,cs),
(488,508,l),
(490,520,o),
(491,532,o),
(491,544,cs),
(491,643,o),
(424,714,o),
(317,714,cs),
(187,714,o),
(106,626,o),
(74,476,cs),
(22,232,ls),
(17,206,o),
(14,183,o),
(14,161,cs),
(14,47,o),
(84,-14,o),
(184,-14,cs)
);
},
{
closed = 1;
nodes = (
(127,62,o),
(97,96,o),
(97,160,cs),
(97,179,o),
(100,200,o),
(105,224,cs),
(158,476,ls),
(180,578,o),
(229,638,o),
(309,638,cs),
(377,638,o),
(406,603,o),
(406,540,cs),
(406,521,o),
(403,500,o),
(398,476,cs),
(345,224,ls),
(321,114,o),
(272,62,o),
(190,62,cs)
);
},
{
alignment = -1;
pos = (4,207);
ref = tilde;
}
);
width = 612;
},
{
associatedMasterId = "8275915C-4C26-4DD7-A30E-5590CD7E6050";
layerId = "E4EDC08F-0480-4B53-941E-4D71FBE306A4";
name = img;
width = 612;
},
{
layerId = "8275915C-4C26-4DD7-A30E-5590CD7E6050";
shapes = (
{
alignment = -1;
ref = Ohorn;
},
{
alignment = -1;
pos = (-16,202);
ref = tilde;
}
);
width = 612;
}
);
unicode = 7904;
},
{
glyphname = Oogonek;
lastChange = "2025-01-15 13:17:44 +0000";
layers = (
{
guides = (
{
angle = 90;
pos = (247,0);
},
{
angle = 90;
pos = (233,0);
},
{
angle = 90;
pos = (365,0);
},
{
angle = 90;
pos = (377,0);
}
);
layerId = "CCBD71C2-CFAF-4DB2-A010-494EF6BDA443";
shapes = (
{
closed = 1;
nodes = (
(358,-164,l),
(358,-98,l),
(271,-98,ls),
(262,-98,o),
(255,-92,o),
(255,-84,cs),
(255,-77,o),
(258,-72,o),
(265,-67,cs),
(405,36,ls),
(476,88,o),
(515,172,o),
(536,272,cs),
(567,417,ls),
(574,448,o),
(577,478,o),
(577,505,cs),
(577,635,o),
(506,714,o),
(377,714,cs),
(213,714,o),
(116,614,o),
(77,428,cs),
(46,283,ls),
(39,252,o),
(36,222,o),
(36,195,cs),
(36,66,o),
(105,-12,o),
(231,-14,c),
(221,-21,ls),
(193,-41,o),
(180,-68,o),
(180,-92,cs),
(180,-130,o),
(210,-164,o),
(254,-164,cs)
);
},
{
closed = 1;
nodes = (
(163,62,o),
(120,116,o),
(120,202,cs),
(120,223,o),
(123,247,o),
(128,272,cs),
(160,422,ls),
(188,553,o),
(255,638,o),
(365,638,cs),
(450,638,o),
(493,584,o),
(493,498,cs),
(493,477,o),
(490,453,o),
(485,428,cs),
(453,278,ls),
(425,148,o),
(358,62,o),
(248,62,cs)
);
}
);
width = 612;
},
{
associatedMasterId = "8275915C-4C26-4DD7-A30E-5590CD7E6050";
layerId = "735DC595-FD3B-427A-B159-9643142C5D3F";
name = img;
width = 612;
},
{
layerId = "8275915C-4C26-4DD7-A30E-5590CD7E6050";
shapes = (
{
closed = 1;
nodes = (
(367,-170,l),
(367,-86,l),
(304,-86,ls),
(293,-86,o),
(287,-79,o),
(287,-72,cs),
(287,-67,o),
(289,-63,o),
(295,-58,cs),
(411,29,ls),
(488,87,o),
(523,154,o),
(548,272,cs),
(581,428,ls),
(586,451,o),
(588,474,o),
(588,496,cs),
(588,620,o),
(509,714,o),
(368,714,cs),
(200,714,o),
(106,624,o),
(65,428,cs),
(32,272,ls),
(27,249,o),
(25,226,o),
(25,204,cs),
(25,87,o),
(95,-4,o),
(222,-13,c),
(210,-23,ls),
(181,-45,o),
(168,-73,o),
(168,-99,cs),
(168,-137,o),
(196,-170,o),
(243,-170,cs)
);
},
{
closed = 1;
nodes = (
(193,106,o),
(156,147,o),
(156,214,cs),
(156,229,o),
(158,246,o),
(162,264,cs),
(199,436,ls),
(218,524,o),
(265,594,o),
(356,594,cs),
(420,594,o),
(457,553,o),
(457,486,cs),
(457,471,o),
(455,457,o),
(451,436,cs),
(414,264,ls),
(395,176,o),
(348,106,o),
(257,106,cs)
);
}
);
width = 612;
}
);
unicode = 490;
},
{
glyphname = Oslash;
lastChange = "2025-01-15 13:13:32 +0000";
layers = (
{
layerId = "CCBD71C2-CFAF-4DB2-A010-494EF6BDA443";
shapes = (
{
closed = 1;
nodes = (
(156,-2,l),
(180,-10,o),
(206,-14,o),
(236,-14,cs),
(400,-14,o),
(497,86,o),
(536,272,cs),
(567,417,ls),
(574,448,o),
(577,478,o),
(577,505,cs),
(577,575,o),
(556,630,o),
(517,666,c),
(557,740,l),
(497,774,l),
(457,701,l),
(434,709,o),
(407,714,o),
(377,714,cs),
(213,714,o),
(116,614,o),
(77,428,cs),
(46,283,ls),
(39,252,o),
(36,222,o),
(36,195,cs),
(36,124,o),
(57,69,o),
(96,33,c),
(51,-51,l),
(111,-86,l)
);
},
{
closed = 1;
nodes = (
(126,138,o),
(120,167,o),
(120,202,cs),
(120,223,o),
(123,247,o),
(128,272,cs),
(160,422,ls),
(188,553,o),
(255,638,o),
(365,638,cs),
(385,638,o),
(403,635,o),
(418,629,c),
(140,115,l)
);
},
{
closed = 1;
nodes = (
(228,62,o),
(210,65,o),
(195,70,c),
(473,584,l),
(486,561,o),
(493,532,o),
(493,498,cs),
(493,477,o),
(490,453,o),
(485,428,cs),
(453,278,ls),
(425,148,o),
(358,62,o),
(248,62,cs)
);
}
);
width = 612;
},
{
associatedMasterId = "8275915C-4C26-4DD7-A30E-5590CD7E6050";
layerId = "E6E34396-557F-403F-9BCC-816DA87641D1";
name = img;
width = 612;
},
{
layerId = "8275915C-4C26-4DD7-A30E-5590CD7E6050";
shapes = (
{
closed = 1;
nodes = (
(178,-6,l),
(198,-11,o),
(220,-14,o),
(245,-14,cs),
(413,-14,o),
(507,76,o),
(548,272,cs),
(581,428,ls),
(586,451,o),
(588,474,o),
(588,496,cs),
(588,557,o),
(568,611,o),
(532,650,c),
(574,728,l),
(482,781,l),
(440,704,l),
(418,710,o),
(394,714,o),
(368,714,cs),
(200,714,o),
(106,624,o),
(65,428,cs),
(32,272,ls),
(27,249,o),
(25,226,o),
(25,204,cs),
(25,140,o),
(46,85,o),
(85,46,c),
(40,-37,l),
(131,-93,l)
);
},
{
closed = 1;
nodes = (
(157,192,o),
(156,203,o),
(156,214,cs),
(156,229,o),
(158,246,o),
(162,264,cs),
(199,436,ls),
(218,524,o),
(265,594,o),
(356,594,cs),
(364,594,o),
(372,593,o),
(380,592,c),
(159,183,l)
);
},
{
closed = 1;
nodes = (
(251,106,o),
(244,106,o),
(239,107,c),
(455,508,l),
(456,501,o),
(457,494,o),
(457,486,cs),
(457,471,o),
(455,457,o),
(451,436,cs),
(414,264,ls),
(395,176,o),
(348,106,o),
(257,106,cs)
);
}
);
width = 612;
}
);
unicode = 216;
},
{
glyphname = OE;
lastChange = "2025-01-15 13:13:32 +0000";
layers = (
{
layerId = "CCBD71C2-CFAF-4DB2-A010-494EF6BDA443";
shapes = (
{
closed = 1;
nodes = (
(479,0,l),
(479,78,l),
(327,78,l),
(376,312,l),
(533,312,l),
(533,390,l),
(393,390,l),
(442,622,l),
(605,622,l),
(605,700,l),
(375,700,ls),
(209,700,o),
(110,602,o),
(73,424,cs),
(44,286,ls),
(37,250,o),
(34,226,o),
(34,199,cs),
(34,74,o),
(104,0,o),
(233,0,c)
);
},
{
closed = 1;
nodes = (
(160,78,o),
(117,119,o),
(117,203,cs),
(117,226,o),
(121,252,o),
(127,282,cs),
(156,416,ls),
(185,550,o),
(253,622,o),
(358,622,c),
(243,78,l)
);
}
);
width = 612;
},
{
layerId = "8275915C-4C26-4DD7-A30E-5590CD7E6050";
shapes = (
{
closed = 1;
nodes = (
(514,0,l),
(514,126,l),
(366,126,l),
(400,288,l),
(563,288,l),
(563,414,l),
(427,414,l),
(461,574,l),
(624,574,l),
(624,700,l),
(356,700,ls),
(181,700,o),
(80,617,o),
(37,414,cs),
(10,286,ls),
(4,257,o),
(1,230,o),
(1,205,cs),
(1,74,o),
(87,0,o),
(211,0,cs)
);
},
{
closed = 1;
nodes = (
(162,126,o),
(134,167,o),
(134,228,cs),
(134,245,o),
(137,264,o),
(141,284,cs),
(170,416,ls),
(190,506,o),
(239,573,o),
(329,574,c),
(234,126,l)
);
}
);
width = 612;
}
);
unicode = 338;
},
{
glyphname = P;
lastChange = "2025-01-15 13:13:32 +0000";
layers = (
{
layerId = "CCBD71C2-CFAF-4DB2-A010-494EF6BDA443";
shapes = (
{
closed = 1;
nodes = (
(96,0,l),
(157,288,l),
(317,288,ls),
(481,288,o),
(581,394,o),
(581,533,cs),
(581,630,o),
(508,700,o),
(389,700,cs),
(161,700,l),
(12,0,l)
);
},
{
closed = 1;
nodes = (
(228,622,l),
(377,622,ls),
(453,622,o),
(495,588,o),
(495,518,cs),
(495,424,o),
(423,366,o),
(324,366,cs),
(174,366,l)
);
}
);
width = 612;
},
{
layerId = "8275915C-4C26-4DD7-A30E-5590CD7E6050";
shapes = (
{
closed = 1;
nodes = (
(131,0,l),
(187,264,l),
(324,264,ls),
(484,264,o),
(590,364,o),
(590,514,cs),
(590,620,o),
(516,700,o),
(398,700,cs),
(148,700,l),
(0,0,l)
);
},
{
closed = 1;
nodes = (
(253,574,l),
(370,574,ls),
(420,574,o),
(455,547,o),
(455,498,cs),
(455,435,o),
(403,390,o),
(336,390,cs),
(214,390,l)
);
}
);
width = 612;
}
);
unicode = 80;
},
{
glyphname = Thorn;
lastChange = "2025-01-15 13:13:32 +0000";
layers = (
{
layerId = "CCBD71C2-CFAF-4DB2-A010-494EF6BDA443";
shapes = (
{
closed = 1;
nodes = (
(96,0,l),
(128,150,l),
(288,150,ls),
(452,150,o),
(552,256,o),
(552,395,cs),
(552,492,o),
(479,562,o),
(360,562,cs),
(216,562,l),
(245,700,l),
(161,700,l),
(12,0,l)
);
},
{
closed = 1;
nodes = (
(199,484,l),
(348,484,ls),
(424,484,o),
(466,450,o),
(466,380,cs),
(466,286,o),
(394,228,o),
(295,228,cs),
(145,228,l)
);
}
);
width = 612;
},
{
layerId = "8275915C-4C26-4DD7-A30E-5590CD7E6050";
shapes = (
{
closed = 1;
nodes = (
(131,0,l),
(159,132,l),
(301,132,ls),
(476,132,o),
(568,254,o),
(568,398,cs),
(568,490,o),
(498,568,o),
(388,568,cs),
(252,568,l),
(280,700,l),
(148,700,l),
(0,0,l)
);
},
{
closed = 1;
nodes = (
(225,442,l),
(350,442,ls),
(402,442,o),
(433,416,o),
(433,370,cs),
(433,304,o),
(379,258,o),
(315,258,cs),
(186,258,l)
);
}
);
width = 612;
}
);
unicode = 222;
},
{
glyphname = Q;
lastChange = "2025-01-15 13:13:32 +0000";
layers = (
{
layerId = "CCBD71C2-CFAF-4DB2-A010-494EF6BDA443";
shapes = (
{
closed = 1;
nodes = (
(358,-156,l),
(358,-84,l),
(274,-84,ls),
(259,-84,o),
(252,-77,o),
(252,-64,c),
(252,-62,o),
(252,-60,o),
(253,-54,cs),
(262,-13,l),
(410,-3,o),
(499,96,o),
(536,272,cs),
(567,417,ls),
(574,448,o),
(577,478,o),
(577,505,cs),
(577,635,o),
(506,714,o),
(377,714,cs),
(213,714,o),
(116,614,o),
(77,428,cs),
(46,283,ls),
(39,252,o),
(36,222,o),
(36,195,cs),
(36,83,o),
(88,9,o),
(184,-9,c),
(172,-66,ls),
(170,-76,o),
(170,-79,o),
(170,-85,cs),
(170,-126,o),
(201,-156,o),
(244,-156,cs)
);
},
{
closed = 1;
nodes = (
(163,62,o),
(120,116,o),
(120,202,cs),
(120,223,o),
(123,247,o),
(128,272,cs),
(160,422,ls),
(188,553,o),
(255,638,o),
(365,638,cs),
(450,638,o),
(493,584,o),
(493,498,cs),
(493,477,o),
(490,453,o),
(485,428,cs),
(453,278,ls),
(425,148,o),
(358,62,o),
(248,62,cs)
);
}
);
width = 612;
},
{
layerId = "8275915C-4C26-4DD7-A30E-5590CD7E6050";
shapes = (
{
closed = 1;
nodes = (
(349,-174,l),
(349,-54,l),
(293,-54,ls),
(279,-54,o),
(271,-47,o),
(271,-35,cs),
(271,-32,o),
(271,-31,o),
(272,-26,cs),
(275,-13,l),
(424,-2,o),
(509,88,o),
(548,272,cs),
(581,428,ls),
(586,451,o),
(588,474,o),
(588,496,cs),
(588,620,o),
(509,714,o),
(368,714,cs),
(200,714,o),
(106,624,o),
(65,428,cs),
(32,272,ls),
(27,249,o),
(25,226,o),
(25,204,cs),
(25,109,o),
(70,32,o),
(154,1,c),
(140,-60,ls),
(138,-70,o),
(136,-80,o),
(136,-90,cs),
(136,-139,o),
(174,-174,o),
(230,-174,cs)
);
},
{
closed = 1;
nodes = (
(193,106,o),
(156,147,o),
(156,214,cs),
(156,229,o),
(158,246,o),
(162,264,cs),
(199,436,ls),
(218,524,o),
(265,594,o),
(356,594,cs),
(420,594,o),
(457,553,o),
(457,486,cs),
(457,471,o),
(455,457,o),
(451,436,cs),
(414,264,ls),
(395,176,o),
(348,106,o),
(257,106,cs)
);
}
);
width = 612;
}
);
unicode = 81;
},
{
glyphname = R;
lastChange = "2025-01-15 13:13:32 +0000";
layers = (
{
layerId = "CCBD71C2-CFAF-4DB2-A010-494EF6BDA443";
shapes = (
{
closed = 1;
nodes = (
(92,0,l),
(153,288,l),
(374,288,ls),
(404,288,o),
(416,275,o),
(416,253,cs),
(416,245,o),
(415,238,o),
(414,234,cs),
(364,0,l),
(448,0,l),
(502,252,ls),
(504,261,o),
(505,267,o),
(505,274,cs),
(505,307,o),
(485,327,o),
(452,330,c),
(452,342,l),
(532,375,o),
(582,441,o),
(582,529,cs),
(582,636,o),
(512,700,o),
(394,700,cs),
(157,700,l),
(8,0,l)
);
},
{
closed = 1;
nodes = (
(224,622,l),
(378,622,ls),
(456,622,o),
(497,586,o),
(497,520,cs),
(497,432,o),
(424,366,o),
(324,366,cs),
(170,366,l)
);
}
);
width = 612;
},
{
layerId = "8275915C-4C26-4DD7-A30E-5590CD7E6050";
shapes = (
{
closed = 1;
nodes = (
(131,0,l),
(187,264,l),
(332,264,ls),
(363,264,o),
(377,249,o),
(377,226,cs),
(377,221,o),
(376,215,o),
(375,210,cs),
(330,0,l),
(464,0,l),
(516,242,ls),
(517,247,o),
(518,254,o),
(518,262,cs),
(518,298,o),
(497,323,o),
(458,327,c),
(458,345,l),
(549,375,o),
(594,435,o),
(594,532,cs),
(594,624,o),
(526,700,o),
(394,700,cs),
(148,700,l),
(0,0,l)
);
},
{
closed = 1;
nodes = (
(253,574,l),
(372,574,ls),
(428,574,o),
(455,544,o),
(455,494,cs),
(455,431,o),
(404,390,o),
(334,390,cs),
(214,390,l)
);
}
);
width = 612;
}
);
unicode = 82;
},
{
glyphname = Rcommaaccent;
lastChange = "2025-01-15 13:17:44 +0000";
layers = (
{
guides = (
{
angle = 90;
pos = (92,0);
},
{
angle = 90;
pos = (153,0);
},
{
angle = 90;
pos = (170,0);
},
{
angle = 90;
pos = (224,0);
},
{
angle = 90;
pos = (157,0);
}
);
layerId = "CCBD71C2-CFAF-4DB2-A010-494EF6BDA443";
shapes = (
{
alignment = -1;
ref = R;
},
{
alignment = -1;
pos = (-39,-170);
ref = comma;
}
);
width = 612;
},
{
associatedMasterId = "8275915C-4C26-4DD7-A30E-5590CD7E6050";
layerId = "4FBFEFD5-8E1B-4D6F-BFE8-11CE06C09635";
name = img;
width = 612;
},
{
layerId = "8275915C-4C26-4DD7-A30E-5590CD7E6050";
shapes = (
{
closed = 1;
nodes = (
(176,-338,ls),
(228,-338,o),
(267,-316,o),
(277,-269,cs),
(301,-155,ls),
(302,-148,o),
(303,-141,o),
(303,-135,cs),
(303,-85,o),
(261,-44,o),
(212,-44,cs),
(162,-44,o),
(121,-83,o),
(121,-134,cs),
(121,-192,o),
(166,-218,o),
(209,-218,c),
(206,-237,ls),
(203,-256,o),
(192,-260,o),
(170,-260,cs),
(121,-260,l),
(121,-338,l)
);
},
{
alignment = -1;
pos = (-1,0);
ref = R;
}
);
width = 612;
}
);
unicode = 342;
},
{
glyphname = S;
lastChange = "2025-01-15 13:13:32 +0000";
layers = (
{
layerId = "CCBD71C2-CFAF-4DB2-A010-494EF6BDA443";
shapes = (
{
closed = 1;
nodes = (
(409,-14,o),
(531,68,o),
(531,217,cs),
(531,314,o),
(475,374,o),
(353,394,cs),
(245,412,o),
(182,436,o),
(182,513,cs),
(182,592,o),
(271,636,o),
(360,636,cs),
(437,636,o),
(501,599,o),
(501,522,cs),
(501,511,o),
(500,503,o),
(497,488,cs),
(491,462,l),
(575,462,l),
(583,498,ls),
(586,511,o),
(587,525,o),
(587,538,cs),
(587,635,o),
(506,714,o),
(367,714,cs),
(215,714,o),
(96,636,o),
(96,500,cs),
(96,394,o),
(174,344,o),
(285,326,cs),
(401,308,o),
(444,281,o),
(444,207,cs),
(444,118,o),
(355,64,o),
(259,64,cs),
(160,64,o),
(104,105,o),
(104,193,cs),
(104,210,o),
(106,228,o),
(110,248,cs),
(115,272,l),
(31,272,l),
(25,242,ls),
(21,221,o),
(19,200,o),
(19,181,cs),
(19,67,o),
(96,-14,o),
(249,-14,cs)
);
}
);
width = 612;
},
{
layerId = "8275915C-4C26-4DD7-A30E-5590CD7E6050";
shapes = (
{
closed = 1;
nodes = (
(438,-14,o),
(550,80,o),
(550,231,cs),
(550,345,o),
(474,400,o),
(350,420,cs),
(262,434,o),
(225,459,o),
(225,506,cs),
(225,563,o),
(284,590,o),
(346,590,cs),
(423,590,o),
(460,554,o),
(460,502,cs),
(460,493,o),
(459,485,o),
(457,475,cs),
(454,462,l),
(586,462,l),
(590,480,ls),
(594,499,o),
(595,512,o),
(595,527,cs),
(595,634,o),
(507,714,o),
(358,714,cs),
(183,714,o),
(87,620,o),
(87,494,cs),
(87,371,o),
(180,318,o),
(273,304,cs),
(371,289,o),
(410,263,o),
(410,213,cs),
(410,149,o),
(357,110,o),
(270,110,cs),
(189,110,o),
(148,149,o),
(148,212,cs),
(148,228,o),
(149,241,o),
(152,255,cs),
(156,272,l),
(24,272,l),
(19,249,ls),
(15,231,o),
(14,213,o),
(14,196,cs),
(14,80,o),
(93,-14,o),
(262,-14,cs)
);
}
);
width = 612;
}
);
unicode = 83;
},
{
glyphname = Scedilla;
lastChange = "2025-01-15 13:13:32 +0000";
layers = (
{
associatedMasterId = "CCBD71C2-CFAF-4DB2-A010-494EF6BDA443";
layerId = "B5F68FDA-8C9D-4654-935C-D86EAB7081E6";
name = img;
width = 612;
},
{
layerId = "CCBD71C2-CFAF-4DB2-A010-494EF6BDA443";
shapes = (
{
closed = 1;
nodes = (
(316,-212,o),
(350,-170,o),
(350,-110,cs),
(350,-70,o),
(326,-36,o),
(282,-36,cs),
(256,-36,o),
(239,-47,o),
(228,-68,c),
(222,-68,l),
(241,-14,l),
(249,-14,ls),
(409,-14,o),
(531,68,o),
(531,217,cs),
(531,314,o),
(475,374,o),
(353,394,cs),
(245,412,o),
(182,436,o),
(182,513,cs),
(182,592,o),
(271,636,o),
(360,636,cs),
(437,636,o),
(501,599,o),
(501,522,cs),
(501,511,o),
(500,503,o),
(497,488,cs),
(491,462,l),
(575,462,l),
(583,498,ls),
(586,511,o),
(587,525,o),
(587,538,cs),
(587,635,o),
(506,714,o),
(367,714,cs),
(215,714,o),
(96,636,o),
(96,500,cs),
(96,394,o),
(174,344,o),
(285,326,cs),
(401,308,o),
(444,281,o),
(444,207,cs),
(444,118,o),
(355,64,o),
(259,64,cs),
(160,64,o),
(104,105,o),
(104,193,cs),
(104,210,o),
(106,228,o),
(110,248,cs),
(115,272,l),
(31,272,l),
(25,242,ls),
(21,221,o),
(19,200,o),
(19,181,cs),
(19,82,o),
(76,9,o),
(188,-9,c),
(162,-86,l),
(162,-98,l),
(237,-98,l),
(242,-90,o),
(250,-84,o),
(264,-84,cs),
(281,-84,o),
(296,-94,o),
(296,-118,cs),
(296,-146,o),
(278,-164,o),
(248,-164,cs),
(218,-164,o),
(204,-146,o),
(202,-125,c),
(152,-142,l),
(158,-183,o),
(192,-212,o),
(246,-212,cs)
);
}
);
width = 612;
},
{
associatedMasterId = "8275915C-4C26-4DD7-A30E-5590CD7E6050";
layerId = "935D45A3-466A-4E26-945A-C238A2CA28F6";
name = img;
width = 612;
},
{
layerId = "8275915C-4C26-4DD7-A30E-5590CD7E6050";
shapes = (
{
closed = 1;
nodes = (
(324,-212,o),
(368,-170,o),
(368,-102,cs),
(368,-52,o),
(340,-24,o),
(301,-24,cs),
(276,-24,o),
(260,-34,o),
(250,-46,c),
(238,-46,l),
(252,-14,l),
(262,-14,ls),
(438,-14,o),
(550,80,o),
(550,231,cs),
(550,345,o),
(474,400,o),
(350,420,cs),
(262,434,o),
(225,459,o),
(225,506,cs),
(225,563,o),
(284,590,o),
(346,590,cs),
(423,590,o),
(460,554,o),
(460,502,cs),
(460,493,o),
(459,485,o),
(457,475,cs),
(454,462,l),
(586,462,l),
(590,480,ls),
(594,499,o),
(595,512,o),
(595,527,cs),
(595,634,o),
(507,714,o),
(358,714,cs),
(183,714,o),
(87,620,o),
(87,494,cs),
(87,371,o),
(180,318,o),
(273,304,cs),
(371,289,o),
(410,263,o),
(410,213,cs),
(410,149,o),
(357,110,o),
(270,110,cs),
(189,110,o),
(148,149,o),
(148,212,cs),
(148,228,o),
(149,241,o),
(152,255,cs),
(156,272,l),
(24,272,l),
(19,249,ls),
(15,231,o),
(14,213,o),
(14,196,cs),
(14,101,o),
(66,21,o),
(177,-5,c),
(146,-92,l),
(146,-104,l),
(243,-104,l),
(247,-96,o),
(253,-90,o),
(264,-90,cs),
(275,-90,o),
(282,-97,o),
(282,-109,cs),
(282,-128,o),
(265,-138,o),
(242,-138,cs),
(221,-138,o),
(204,-132,o),
(191,-123,c),
(154,-192,l),
(174,-204,o),
(202,-212,o),
(247,-212,cs)
);
}
);
width = 612;
}
);
unicode = 350;
},
{
glyphname = Scommaaccent;
lastChange = "2025-01-15 13:17:44 +0000";
layers = (
{
associatedMasterId = "CCBD71C2-CFAF-4DB2-A010-494EF6BDA443";
layerId = "B5F68FDA-8C9D-4654-935C-D86EAB7081E6";
name = img;
width = 612;
},
{
guides = (
{
angle = 90;
pos = (249,0);
},
{
angle = 90;
pos = (259,0);
}
);
layerId = "CCBD71C2-CFAF-4DB2-A010-494EF6BDA443";
shapes = (
{
alignment = -1;
ref = S;
},
{
alignment = -1;
pos = (-33,-170);
ref = comma;
}
);
width = 612;
},
{
associatedMasterId = "8275915C-4C26-4DD7-A30E-5590CD7E6050";
layerId = "196344F0-2365-4CF1-BC03-AFA5365D1EA7";
name = img;
width = 612;
},
{
layerId = "8275915C-4C26-4DD7-A30E-5590CD7E6050";
shapes = (
{
closed = 1;
nodes = (
(195,-338,ls),
(247,-338,o),
(286,-316,o),
(296,-269,cs),
(320,-155,ls),
(321,-148,o),
(322,-141,o),
(322,-135,cs),
(322,-85,o),
(280,-44,o),
(231,-44,cs),
(181,-44,o),
(140,-83,o),
(140,-134,cs),
(140,-192,o),
(185,-218,o),
(228,-218,c),
(225,-237,ls),
(222,-256,o),
(211,-260,o),
(189,-260,cs),
(140,-260,l),
(140,-338,l)
);
},
{
alignment = -1;
ref = S;
}
);
width = 612;
}
);
unicode = 536;
},
{
glyphname = Germandbls;
lastChange = "2025-01-15 13:17:44 +0000";
layers = (
{
layerId = "CCBD71C2-CFAF-4DB2-A010-494EF6BDA443";
shapes = (
{
closed = 1;
nodes = (
(105,0,l),
(211,496,ls),
(230,584,o),
(280,622,o),
(360,622,cs),
(504,622,l),
(504,611,l),
(262,468,l),
(262,348,l),
(340,348,ls),
(416,348,o),
(460,312,o),
(460,234,cs),
(460,138,o),
(382,78,o),
(269,78,cs),
(183,78,l),
(183,0,l),
(254,0,ls),
(434,0,o),
(544,96,o),
(544,236,cs),
(544,358,o),
(470,414,o),
(374,414,cs),
(328,414,l),
(328,426,l),
(576,576,l),
(576,700,l),
(366,700,ls),
(237,700,o),
(157,636,o),
(130,510,cs),
(127,496,l),
(50,496,l),
(50,418,l),
(110,418,l),
(21,0,l)
);
}
);
width = 612;
},
{
layerId = "8275915C-4C26-4DD7-A30E-5590CD7E6050";
shapes = (
{
closed = 1;
nodes = (
(141,0,l),
(245,490,ls),
(259,554,o),
(301,574,o),
(357,574,cs),
(472,574,l),
(472,556,l),
(280,502,l),
(280,288,l),
(342,288,ls),
(391,288,o),
(417,265,o),
(417,216,cs),
(417,152,o),
(362,126,o),
(308,126,cs),
(210,126,l),
(210,0,l),
(294,0,ls),
(464,0,o),
(553,102,o),
(553,229,cs),
(553,330,o),
(484,400,o),
(396,400,cs),
(380,400,l),
(380,418,l),
(573,472,l),
(573,700,l),
(361,700,ls),
(238,700,o),
(143,632,o),
(115,500,c),
(115,496,l),
(41,496,l),
(41,376,l),
(89,376,l),
(9,0,l)
);
}
);
width = 612;
}
);
unicode = 7838;
},
{
glyphname = T;
lastChange = "2025-01-15 13:13:32 +0000";
layers = (
{
layerId = "CCBD71C2-CFAF-4DB2-A010-494EF6BDA443";
shapes = (
{
closed = 1;
nodes = (
(271,0,l),
(403,622,l),
(606,622,l),
(606,700,l),
(103,700,l),
(103,622,l),
(319,622,l),
(187,0,l)
);
}
);
width = 612;
},
{
layerId = "8275915C-4C26-4DD7-A30E-5590CD7E6050";
shapes = (
{
closed = 1;
nodes = (
(296,0,l),
(418,574,l),
(604,574,l),
(604,700,l),
(100,700,l),
(100,574,l),
(286,574,l),
(164,0,l)
);
}
);
width = 612;
}
);
unicode = 84;
},
{
glyphname = Tbar;
lastChange = "2025-01-15 13:13:32 +0000";
layers = (
{
layerId = "CCBD71C2-CFAF-4DB2-A010-494EF6BDA443";
shapes = (
{
closed = 1;
nodes = (
(272,0,l),
(346,350,l),
(503,350,l),
(503,428,l),
(363,428,l),
(404,622,l),
(607,622,l),
(607,700,l),
(116,700,l),
(116,622,l),
(320,622,l),
(279,428,l),
(123,428,l),
(123,350,l),
(262,350,l),
(188,0,l)
);
}
);
width = 612;
},
{
associatedMasterId = "8275915C-4C26-4DD7-A30E-5590CD7E6050";
layerId = "19834B46-A553-47A1-9907-B4FA68B8AB72";
name = img;
width = 612;
},
{
layerId = "8275915C-4C26-4DD7-A30E-5590CD7E6050";
shapes = (
{
closed = 1;
nodes = (
(296,0,l),
(366,329,l),
(516,329,l),
(516,449,l),
(391,449,l),
(418,574,l),
(604,574,l),
(604,700,l),
(100,700,l),
(100,574,l),
(286,574,l),
(259,449,l),
(108,449,l),
(108,329,l),
(234,329,l),
(164,0,l)
);
}
);
width = 612;
}
);
unicode = 358;
},
{
glyphname = Tcedilla;
lastChange = "2025-01-15 13:17:44 +0000";
layers = (
{
layerId = "CCBD71C2-CFAF-4DB2-A010-494EF6BDA443";
shapes = (
{
closed = 1;
nodes = (
(322,-212,o),
(356,-170,o),
(356,-110,cs),
(356,-70,o),
(332,-36,o),
(288,-36,cs),
(262,-36,o),
(243,-47,o),
(232,-68,c),
(226,-68,l),
(242,0,l),
(271,0,l),
(403,622,l),
(606,622,l),
(606,700,l),
(103,700,l),
(103,622,l),
(319,622,l),
(168,-86,l),
(168,-98,l),
(243,-98,l),
(248,-90,o),
(256,-84,o),
(270,-84,cs),
(287,-84,o),
(302,-94,o),
(302,-118,cs),
(302,-146,o),
(284,-164,o),
(254,-164,cs),
(224,-164,o),
(210,-146,o),
(208,-125,c),
(158,-142,l),
(164,-183,o),
(198,-212,o),
(252,-212,cs)
);
}
);
width = 612;
},
{
associatedMasterId = "8275915C-4C26-4DD7-A30E-5590CD7E6050";
layerId = "D2F2A483-328D-427D-BF69-6F3C8078446D";
name = img;
width = 612;
},
{
layerId = "8275915C-4C26-4DD7-A30E-5590CD7E6050";
shapes = (
{
closed = 1;
nodes = (
(309,-212,o),
(353,-170,o),
(353,-102,cs),
(353,-52,o),
(325,-24,o),
(286,-24,cs),
(261,-24,o),
(245,-34,o),
(235,-46,c),
(223,-46,l),
(233,0,l),
(296,0,l),
(418,574,l),
(604,574,l),
(604,700,l),
(100,700,l),
(100,574,l),
(286,574,l),
(144,-92,l),
(144,-104,l),
(228,-104,l),
(232,-96,o),
(238,-90,o),
(249,-90,cs),
(260,-90,o),
(267,-97,o),
(267,-109,cs),
(267,-128,o),
(250,-138,o),
(227,-138,cs),
(206,-138,o),
(189,-132,o),
(176,-123,c),
(139,-192,l),
(159,-204,o),
(187,-212,o),
(232,-212,cs)
);
}
);
width = 612;
}
);
unicode = 354;
},
{
glyphname = Tcommaaccent;
lastChange = "2025-01-15 13:17:44 +0000";
layers = (
{
associatedMasterId = "CCBD71C2-CFAF-4DB2-A010-494EF6BDA443";
layerId = "B5F68FDA-8C9D-4654-935C-D86EAB7081E6";
name = img;
width = 612;
},
{
layerId = "CCBD71C2-CFAF-4DB2-A010-494EF6BDA443";
shapes = (
{
alignment = -1;
ref = T;
},
{
alignment = -1;
pos = (-54,-170);
ref = comma;
}
);
width = 612;
},
{
associatedMasterId = "8275915C-4C26-4DD7-A30E-5590CD7E6050";
layerId = "B379F68B-B195-4A09-B188-BFFFFCF8DBC7";
name = img;
width = 612;
},
{
layerId = "8275915C-4C26-4DD7-A30E-5590CD7E6050";
shapes = (
{
closed = 1;
nodes = (
(167,-338,ls),
(219,-338,o),
(258,-316,o),
(268,-269,cs),
(292,-155,ls),
(293,-148,o),
(294,-141,o),
(294,-135,cs),
(294,-85,o),
(252,-44,o),
(203,-44,cs),
(153,-44,o),
(112,-83,o),
(112,-134,cs),
(112,-192,o),
(157,-218,o),
(200,-218,c),
(197,-237,ls),
(194,-256,o),
(183,-260,o),
(161,-260,cs),
(112,-260,l),
(112,-338,l)
);
},
{
alignment = -1;
ref = T;
}
);
width = 612;
}
);
unicode = 538;
},
{
glyphname = U;
lastChange = "2025-01-15 13:13:32 +0000";
layers = (
{
layerId = "CCBD71C2-CFAF-4DB2-A010-494EF6BDA443";
shapes = (
{
closed = 1;
nodes = (
(395,-14,o),
(483,70,o),
(518,236,cs),
(616,700,l),
(532,700,l),
(434,236,ls),
(410,122,o),
(343,62,o),
(244,62,cs),
(163,62,o),
(121,102,o),
(121,178,cs),
(121,195,o),
(124,215,o),
(128,236,cs),
(226,700,l),
(142,700,l),
(45,242,ls),
(39,216,o),
(37,192,o),
(37,170,cs),
(37,51,o),
(117,-14,o),
(232,-14,cs)
);
}
);
width = 612;
},
{
layerId = "8275915C-4C26-4DD7-A30E-5590CD7E6050";
shapes = (
{
closed = 1;
nodes = (
(406,-14,o),
(491,62,o),
(529,242,cs),
(626,700,l),
(494,700,l),
(397,242,ls),
(378,152,o),
(338,110,o),
(258,110,cs),
(196,110,o),
(164,144,o),
(164,201,cs),
(164,214,o),
(166,227,o),
(169,242,cs),
(266,700,l),
(134,700,l),
(40,254,ls),
(34,227,o),
(33,208,o),
(33,187,cs),
(33,59,o),
(123,-14,o),
(244,-14,cs)
);
}
);
width = 612;
}
);
unicode = 85;
},
{
glyphname = Uhookabove;
lastChange = "2025-01-15 13:17:44 +0000";
layers = (
{
associatedMasterId = "CCBD71C2-CFAF-4DB2-A010-494EF6BDA443";
layerId = "B5F68FDA-8C9D-4654-935C-D86EAB7081E6";
name = img;
width = 612;
},
{
layerId = "CCBD71C2-CFAF-4DB2-A010-494EF6BDA443";
shapes = (
{
closed = 1;
nodes = (
(405,750,l),
(405,818,l),
(411,818,l),
(419,798,o),
(441,786,o),
(469,786,cs),
(517,786,o),
(553,828,o),
(553,878,cs),
(553,926,o),
(515,962,o),
(463,962,cs),
(409,962,o),
(381,932,o),
(365,892,c),
(410,874,l),
(417,898,o),
(433,914,o),
(457,914,cs),
(483,914,o),
(499,898,o),
(499,874,cs),
(499,848,o),
(485,833,o),
(461,833,cs),
(449,833,o),
(439,838,o),
(433,848,c),
(361,848,l),
(356,842,l),
(356,750,l)
);
},
{
alignment = -1;
ref = U;
}
);
width = 612;
},
{
associatedMasterId = "8275915C-4C26-4DD7-A30E-5590CD7E6050";
layerId = "77E6397C-DF93-45B9-ABBB-EE032125F4FA";
name = img;
width = 612;
},
{
layerId = "8275915C-4C26-4DD7-A30E-5590CD7E6050";
shapes = (
{
alignment = -1;
pos = (-4,0);
ref = U;
},
{
alignment = -1;
pos = (153,92);
ref = hookabovecomb;
}
);
width = 612;
}
);
unicode = 7910;
},
{
glyphname = Uhorn;
lastChange = "2025-01-15 13:17:44 +0000";
layers = (
{
associatedMasterId = "CCBD71C2-CFAF-4DB2-A010-494EF6BDA443";
layerId = "B5F68FDA-8C9D-4654-935C-D86EAB7081E6";
name = img;
width = 612;
},
{
layerId = "CCBD71C2-CFAF-4DB2-A010-494EF6BDA443";
shapes = (
{
closed = 1;
nodes = (
(288,-14,o),
(373,45,o),
(406,202,cs),
(459,454,l),
(559,454,ls),
(611,454,o),
(642,482,o),
(652,532,cs),
(670,618,ls),
(671,623,o),
(671,627,o),
(671,630,cs),
(671,668,o),
(639,700,o),
(601,700,cs),
(563,700,o),
(531,668,o),
(531,630,cs),
(531,592,o),
(563,560,o),
(601,560,cs),
(605,560,l),
(600,538,ls),
(596,519,o),
(585,508,o),
(566,508,cs),
(471,508,l),
(511,700,l),
(427,700,l),
(322,206,ls),
(301,107,o),
(252,62,o),
(178,62,cs),
(124,62,o),
(88,90,o),
(88,155,cs),
(88,170,o),
(90,187,o),
(94,206,cs),
(199,700,l),
(115,700,l),
(13,217,ls),
(8,192,o),
(5,170,o),
(5,149,cs),
(5,39,o),
(75,-14,o),
(167,-14,cs)
);
}
);
width = 612;
},
{
associatedMasterId = "8275915C-4C26-4DD7-A30E-5590CD7E6050";
layerId = "29F4304D-2EB2-4E5F-854D-E9BAE96B7F0F";
name = img;
width = 612;
},
{
layerId = "8275915C-4C26-4DD7-A30E-5590CD7E6050";
shapes = (
{
closed = 1;
nodes = (
(260,-14,o),
(338,40,o),
(368,182,cs),
(414,402,l),
(527,402,ls),
(586,402,o),
(623,427,o),
(635,484,cs),
(658,592,ls),
(660,601,o),
(661,609,o),
(661,617,cs),
(661,665,o),
(629,700,o),
(580,700,cs),
(531,700,o),
(490,659,o),
(490,610,cs),
(490,560,o),
(530,526,o),
(566,526,c),
(563,510,ls),
(559,491,o),
(547,480,o),
(528,480,cs),
(431,480,l),
(477,700,l),
(345,700,l),
(236,184,ls),
(225,132,o),
(200,112,o),
(168,112,cs),
(132,112,o),
(114,132,o),
(114,165,cs),
(114,172,o),
(115,180,o),
(117,189,cs),
(225,700,l),
(93,700,l),
(-9,213,ls),
(-14,190,o),
(-16,169,o),
(-16,150,cs),
(-16,44,o),
(50,-14,o),
(155,-14,cs)
);
}
);
width = 612;
}
);
unicode = 431;
},
{
glyphname = Uhornhookabove;
lastChange = "2025-01-15 13:17:44 +0000";
layers = (
{
associatedMasterId = "CCBD71C2-CFAF-4DB2-A010-494EF6BDA443";
layerId = "B5F68FDA-8C9D-4654-935C-D86EAB7081E6";
name = img;
width = 612;
},
{
layerId = "CCBD71C2-CFAF-4DB2-A010-494EF6BDA443";
shapes = (
{
closed = 1;
nodes = (
(335,750,l),
(335,818,l),
(341,818,l),
(349,798,o),
(367,786,o),
(393,786,cs),
(444,786,o),
(484,828,o),
(484,878,cs),
(484,926,o),
(448,962,o),
(398,962,cs),
(346,962,o),
(313,932,o),
(296,892,c),
(340,874,l),
(349,894,o),
(364,914,o),
(393,914,cs),
(416,914,o),
(429,898,o),
(429,876,cs),
(429,853,o),
(413,834,o),
(389,834,cs),
(377,834,o),
(368,838,o),
(363,848,c),
(291,848,l),
(286,842,l),
(286,750,l)
);
},
{
alignment = -1;
ref = Uhorn;
}
);
width = 612;
},
{
associatedMasterId = "8275915C-4C26-4DD7-A30E-5590CD7E6050";
layerId = "04EB33D5-7B22-4057-91CE-47E74BE82046";
name = img;
width = 612;
},
{
layerId = "8275915C-4C26-4DD7-A30E-5590CD7E6050";
shapes = (
{
alignment = -1;
ref = Uhorn;
},
{
alignment = -1;
pos = (61,92);
ref = hookabovecomb;
}
);
width = 612;
}
);
unicode = 7916;
},
{
glyphname = Uogonek;
lastChange = "2025-01-15 13:13:32 +0000";
layers = (
{
associatedMasterId = "CCBD71C2-CFAF-4DB2-A010-494EF6BDA443";
layerId = "B5F68FDA-8C9D-4654-935C-D86EAB7081E6";
name = img;
width = 612;
},
{
layerId = "CCBD71C2-CFAF-4DB2-A010-494EF6BDA443";
shapes = (
{
closed = 1;
nodes = (
(360,-164,l),
(360,-98,l),
(273,-98,ls),
(264,-98,o),
(257,-92,o),
(257,-84,cs),
(257,-76,o),
(262,-71,o),
(267,-67,cs),
(405,34,ls),
(461,75,o),
(498,142,o),
(518,236,cs),
(616,700,l),
(532,700,l),
(434,236,ls),
(410,122,o),
(343,62,o),
(244,62,cs),
(163,62,o),
(121,102,o),
(121,178,cs),
(121,195,o),
(124,215,o),
(128,236,cs),
(226,700,l),
(142,700,l),
(45,242,ls),
(39,216,o),
(37,192,o),
(37,170,cs),
(37,51,o),
(117,-14,o),
(233,-14,c),
(223,-21,ls),
(195,-41,o),
(182,-68,o),
(182,-92,cs),
(182,-130,o),
(212,-164,o),
(256,-164,cs)
);
}
);
width = 612;
},
{
associatedMasterId = "8275915C-4C26-4DD7-A30E-5590CD7E6050";
layerId = "313ED8F9-64EF-4C3C-B6C7-60F01C51BB2B";
name = img;
width = 612;
},
{
layerId = "8275915C-4C26-4DD7-A30E-5590CD7E6050";
shapes = (
{
closed = 1;
nodes = (
(367,-170,l),
(367,-86,l),
(304,-86,ls),
(293,-86,o),
(287,-80,o),
(287,-72,cs),
(287,-66,o),
(290,-62,o),
(295,-58,cs),
(417,33,ls),
(472,74,o),
(508,142,o),
(529,242,cs),
(626,700,l),
(494,700,l),
(397,242,ls),
(378,152,o),
(338,110,o),
(258,110,cs),
(196,110,o),
(164,144,o),
(164,201,cs),
(164,214,o),
(166,227,o),
(169,242,cs),
(266,700,l),
(134,700,l),
(40,254,ls),
(34,227,o),
(33,208,o),
(33,187,cs),
(33,67,o),
(112,-5,o),
(222,-13,c),
(210,-23,ls),
(181,-45,o),
(168,-73,o),
(168,-99,cs),
(168,-137,o),
(196,-170,o),
(243,-170,cs)
);
}
);
width = 612;
}
);
unicode = 370;
},
{
glyphname = V;
lastChange = "2025-01-15 13:13:32 +0000";
layers = (
{
layerId = "CCBD71C2-CFAF-4DB2-A010-494EF6BDA443";
shapes = (
{
closed = 1;
nodes = (
(300,0,l),
(635,700,l),
(540,700,l),
(228,36,l),
(216,36,l),
(186,700,l),
(102,700,l),
(139,0,l)
);
}
);
width = 612;
},
{
layerId = "8275915C-4C26-4DD7-A30E-5590CD7E6050";
shapes = (
{
closed = 1;
nodes = (
(340,0,l),
(642,688,l),
(642,700,l),
(504,700,l),
(235,66,l),
(217,66,l),
(194,700,l),
(60,700,l),
(94,0,l)
);
}
);
width = 612;
}
);
unicode = 86;
},
{
glyphname = W;
lastChange = "2025-01-15 13:13:32 +0000";
layers = (
{
layerId = "CCBD71C2-CFAF-4DB2-A010-494EF6BDA443";
shapes = (
{
closed = 1;
nodes = (
(166,0,l),
(365,664,l),
(377,664,l),
(296,0,l),
(450,0,l),
(664,700,l),
(586,700,l),
(384,36,l),
(372,36,l),
(456,700,l),
(300,700,l),
(104,36,l),
(92,36,l),
(171,700,l),
(95,700,l),
(12,0,l)
);
}
);
width = 612;
},
{
layerId = "8275915C-4C26-4DD7-A30E-5590CD7E6050";
shapes = (
{
closed = 1;
nodes = (
(196,0,l),
(331,520,l),
(351,628,l),
(375,628,l),
(353,508,l),
(286,0,l),
(505,0,l),
(678,700,l),
(558,700,l),
(440,192,l),
(417,78,l),
(393,78,l),
(414,180,l),
(482,700,l),
(272,700,l),
(136,180,l),
(115,78,l),
(91,78,l),
(114,192,l),
(195,700,l),
(75,700,l),
(-20,0,l)
);
}
);
width = 612;
}
);
unicode = 87;
},
{
glyphname = X;
lastChange = "2025-01-15 13:13:32 +0000";
layers = (
{
layerId = "CCBD71C2-CFAF-4DB2-A010-494EF6BDA443";
shapes = (
{
closed = 1;
nodes = (
(75,0,l),
(294,312,l),
(312,312,l),
(403,0,l),
(489,0,l),
(387,338,l),
(387,350,l),
(634,694,l),
(634,700,l),
(539,700,l),
(320,390,l),
(302,390,l),
(211,700,l),
(125,700,l),
(227,362,l),
(227,350,l),
(-19,6,l),
(-19,0,l)
);
}
);
width = 612;
},
{
layerId = "8275915C-4C26-4DD7-A30E-5590CD7E6050";
shapes = (
{
closed = 1;
nodes = (
(122,0,l),
(296,288,l),
(314,288,l),
(386,0,l),
(526,0,l),
(436,336,l),
(436,354,l),
(652,687,l),
(652,700,l),
(504,700,l),
(330,414,l),
(312,414,l),
(236,700,l),
(98,700,l),
(190,366,l),
(190,348,l),
(-25,12,l),
(-25,0,l)
);
}
);
width = 612;
}
);
unicode = 88;
},
{
glyphname = Y;
lastChange = "2025-01-15 13:13:32 +0000";
layers = (
{
layerId = "CCBD71C2-CFAF-4DB2-A010-494EF6BDA443";
shapes = (
{
closed = 1;
nodes = (
(268,0,l),
(320,246,l),
(338,246,l),
(650,694,l),
(650,700,l),
(553,700,l),
(293,318,l),
(281,318,l),
(183,700,l),
(96,700,l),
(218,246,l),
(236,246,l),
(184,0,l)
);
}
);
width = 612;
},
{
layerId = "8275915C-4C26-4DD7-A30E-5590CD7E6050";
shapes = (
{
closed = 1;
nodes = (
(292,0,l),
(344,246,l),
(374,246,l),
(664,688,l),
(664,700,l),
(520,700,l),
(306,366,l),
(288,366,l),
(212,700,l),
(72,700,l),
(182,246,l),
(212,246,l),
(160,0,l)
);
}
);
width = 612;
}
);
unicode = 89;
},
{
glyphname = Yhookabove;
lastChange = "2025-01-15 13:17:44 +0000";
layers = (
{
associatedMasterId = "CCBD71C2-CFAF-4DB2-A010-494EF6BDA443";
layerId = "B5F68FDA-8C9D-4654-935C-D86EAB7081E6";
name = img;
width = 612;
},
{
guides = (
{
angle = 90;
pos = (293,0);
},
{
angle = 90;
pos = (320,0);
},
{
angle = 90;
pos = (338,0);
}
);
layerId = "CCBD71C2-CFAF-4DB2-A010-494EF6BDA443";
shapes = (
{
closed = 1;
nodes = (
(387,750,l),
(387,818,l),
(393,818,l),
(401,798,o),
(423,786,o),
(451,786,cs),
(499,786,o),
(535,828,o),
(535,878,cs),
(535,926,o),
(497,962,o),
(445,962,cs),
(391,962,o),
(363,932,o),
(347,892,c),
(392,874,l),
(399,898,o),
(415,914,o),
(439,914,cs),
(465,914,o),
(481,898,o),
(481,874,cs),
(481,848,o),
(467,833,o),
(443,833,cs),
(431,833,o),
(421,838,o),
(415,848,c),
(343,848,l),
(338,842,l),
(338,750,l)
);
},
{
alignment = -1;
ref = Y;
}
);
width = 612;
},
{
associatedMasterId = "8275915C-4C26-4DD7-A30E-5590CD7E6050";
layerId = "501323D7-B876-4506-A3CD-07073F0604D7";
name = img;
width = 612;
},
{
layerId = "8275915C-4C26-4DD7-A30E-5590CD7E6050";
shapes = (
{
alignment = -1;
ref = Y;
},
{
alignment = -1;
pos = (123,92);
ref = hookabovecomb;
}
);
width = 612;
}
);
unicode = 7926;
},
{
glyphname = Z;
lastChange = "2025-01-15 13:13:32 +0000";
layers = (
{
layerId = "CCBD71C2-CFAF-4DB2-A010-494EF6BDA443";
shapes = (
{
closed = 1;
nodes = (
(499,0,l),
(499,78,l),
(77,78,l),
(77,90,l),
(592,574,l),
(592,700,l),
(134,700,l),
(134,622,l),
(520,622,l),
(520,610,l),
(5,126,l),
(5,0,l)
);
}
);
width = 612;
},
{
layerId = "8275915C-4C26-4DD7-A30E-5590CD7E6050";
shapes = (
{
closed = 1;
nodes = (
(505,0,l),
(505,126,l),
(121,126,l),
(121,144,l),
(600,484,l),
(600,700,l),
(126,700,l),
(126,574,l),
(492,574,l),
(492,556,l),
(12,216,l),
(12,0,l)
);
}
);
width = 612;
}
);
unicode = 90;
},
{
glyphname = B.ss01;
lastChange = "2025-01-15 14:15:22 +0000";
layers = (
{
guides = (
{
angle = 90;
pos = (574,0);
}
);
layerId = "CCBD71C2-CFAF-4DB2-A010-494EF6BDA443";
shapes = (
{
closed = 1;
nodes = (
(255,0,ls),
(399,0,o),
(505,90,o),
(505,219,cs),
(505,278,o),
(472,329,o),
(417,345,c),
(417,357,l),
(514,378,o),
(574,454,o),
(574,535,cs),
(574,631,o),
(513,700,o),
(392,700,cs),
(166,700,l),
(18,6,l),
(18,0,l)
);
},
{
closed = 1;
nodes = (
(167,312,l),
(318,312,ls),
(385,312,o),
(427,277,o),
(427,216,cs),
(427,135,o),
(355,78,o),
(266,78,cs),
(118,78,l)
);
},
{
closed = 1;
nodes = (
(233,622,l),
(381,622,ls),
(451,622,o),
(492,587,o),
(492,532,cs),
(492,442,o),
(416,390,o),
(335,390,cs),
(184,390,l)
);
}
);
width = 612;
},
{
layerId = "8275915C-4C26-4DD7-A30E-5590CD7E6050";
shapes = (
{
closed = 1;
nodes = (
(275,0,ls),
(419,0,o),
(523,93,o),
(523,210,cs),
(523,284,o),
(486,324,o),
(433,340,c),
(433,358,l),
(520,379,o),
(592,437,o),
(592,537,cs),
(592,628,o),
(531,700,o),
(397,700,cs),
(161,700,l),
(12,0,l)
);
},
{
closed = 1;
nodes = (
(203,288,l),
(319,288,ls),
(368,288,o),
(399,268,o),
(399,219,cs),
(399,159,o),
(350,126,o),
(285,126,cs),
(169,126,l)
);
},
{
closed = 1;
nodes = (
(264,574,l),
(380,574,ls),
(429,574,o),
(459,551,o),
(459,507,cs),
(459,446,o),
(415,414,o),
(346,414,cs),
(230,414,l)
);
}
);
width = 612;
}
);
},
{
glyphname = Bstroke.ss01;
lastChange = "2025-01-15 14:15:22 +0000";
layers = (
{
layerId = "CCBD71C2-CFAF-4DB2-A010-494EF6BDA443";
shapes = (
{
closed = 1;
nodes = (
(259,0,ls),
(403,0,o),
(509,90,o),
(509,219,cs),
(509,278,o),
(476,329,o),
(421,345,c),
(421,357,l),
(518,378,o),
(578,454,o),
(578,535,cs),
(578,631,o),
(517,700,o),
(396,700,cs),
(170,700,l),
(70,234,l),
(3,234,l),
(3,156,l),
(54,156,l),
(22,6,l),
(22,0,l)
);
},
{
closed = 1;
nodes = (
(138,156,l),
(254,156,l),
(254,234,l),
(154,234,l),
(171,312,l),
(322,312,ls),
(389,312,o),
(431,277,o),
(431,216,cs),
(431,135,o),
(359,78,o),
(270,78,cs),
(122,78,l)
);
},
{
closed = 1;
nodes = (
(237,622,l),
(385,622,ls),
(455,622,o),
(496,587,o),
(496,532,cs),
(496,442,o),
(420,390,o),
(339,390,cs),
(188,390,l)
);
}
);
width = 612;
},
{
layerId = "8275915C-4C26-4DD7-A30E-5590CD7E6050";
shapes = (
{
closed = 1;
nodes = (
(275,0,ls),
(419,0,o),
(523,93,o),
(523,210,cs),
(523,284,o),
(486,324,o),
(433,340,c),
(433,358,l),
(520,379,o),
(592,437,o),
(592,537,cs),
(592,628,o),
(531,700,o),
(397,700,cs),
(161,700,l),
(67,258,l),
(0,258,l),
(0,156,l),
(45,156,l),
(12,0,l)
);
},
{
closed = 1;
nodes = (
(175,156,l),
(254,156,l),
(254,258,l),
(196,258,l),
(203,288,l),
(319,288,ls),
(368,288,o),
(399,268,o),
(399,219,cs),
(399,159,o),
(350,126,o),
(285,126,cs),
(169,126,l)
);
},
{
closed = 1;
nodes = (
(264,574,l),
(380,574,ls),
(429,574,o),
(459,551,o),
(459,507,cs),
(459,446,o),
(415,414,o),
(346,414,cs),
(230,414,l)
);
}
);
width = 612;
}
);
},
{
glyphname = D.ss01;
lastChange = "2025-01-15 14:15:22 +0000";
layers = (
{
layerId = "CCBD71C2-CFAF-4DB2-A010-494EF6BDA443";
shapes = (
{
closed = 1;
nodes = (
(212,0,ls),
(402,0,o),
(468,70,o),
(509,260,cs),
(547,434,ls),
(553,463,o),
(557,490,o),
(557,515,cs),
(557,634,o),
(484,700,o),
(343,700,cs),
(171,700,l),
(24,6,l),
(24,0,l)
);
},
{
closed = 1;
nodes = (
(238,622,l),
(326,622,ls),
(423,622,o),
(471,595,o),
(471,510,cs),
(471,489,o),
(469,468,o),
(462,434,cs),
(427,266,ls),
(397,120,o),
(335,78,o),
(211,78,c),
(123,78,l)
);
}
);
width = 612;
},
{
layerId = "8275915C-4C26-4DD7-A30E-5590CD7E6050";
shapes = (
{
closed = 1;
nodes = (
(211,0,ls),
(392,0,o),
(483,72,o),
(519,242,cs),
(563,452,ls),
(567,473,o),
(570,493,o),
(570,512,cs),
(570,625,o),
(491,700,o),
(356,700,cs),
(160,700,l),
(14,12,l),
(14,0,l)
);
},
{
closed = 1;
nodes = (
(265,574,l),
(333,574,ls),
(403,574,o),
(436,544,o),
(436,490,cs),
(436,478,o),
(434,466,o),
(431,452,cs),
(390,260,ls),
(371,168,o),
(330,126,o),
(238,126,c),
(170,126,l)
);
}
);
width = 612;
}
);
},
{
glyphname = Dcroat.ss01;
lastChange = "2025-01-15 14:15:22 +0000";
layers = (
{
layerId = "CCBD71C2-CFAF-4DB2-A010-494EF6BDA443";
shapes = (
{
alignment = -1;
ref = Eth.ss01;
}
);
width = 612;
},
{
layerId = "8275915C-4C26-4DD7-A30E-5590CD7E6050";
shapes = (
{
closed = 1;
nodes = (
(223,0,ls),
(404,0,o),
(495,72,o),
(531,242,cs),
(575,452,ls),
(579,473,o),
(582,493,o),
(582,512,cs),
(582,625,o),
(503,700,o),
(368,700,cs),
(172,700,l),
(110,410,l),
(32,410,l),
(32,290,l),
(85,290,l),
(26,12,l),
(26,0,l)
);
},
{
closed = 1;
nodes = (
(217,290,l),
(328,290,l),
(328,410,l),
(242,410,l),
(277,574,l),
(345,574,ls),
(415,574,o),
(448,544,o),
(448,490,cs),
(448,478,o),
(446,466,o),
(443,452,cs),
(402,260,ls),
(383,168,o),
(342,126,o),
(250,126,c),
(182,126,l)
);
}
);
width = 612;
}
);
},
{
glyphname = Eth.ss01;
lastChange = "2025-01-15 14:15:22 +0000";
layers = (
{
layerId = "CCBD71C2-CFAF-4DB2-A010-494EF6BDA443";
shapes = (
{
closed = 1;
nodes = (
(222,0,ls),
(412,0,o),
(478,70,o),
(519,260,cs),
(557,434,ls),
(563,463,o),
(567,490,o),
(567,515,cs),
(567,634,o),
(494,700,o),
(353,700,cs),
(181,700,l),
(115,389,l),
(47,389,l),
(47,311,l),
(98,311,l),
(34,6,l),
(34,0,l)
);
},
{
closed = 1;
nodes = (
(182,311,l),
(299,311,l),
(299,389,l),
(199,389,l),
(248,622,l),
(336,622,ls),
(433,622,o),
(481,595,o),
(481,510,cs),
(481,489,o),
(479,468,o),
(472,434,cs),
(437,266,ls),
(407,120,o),
(345,78,o),
(221,78,c),
(133,78,l)
);
}
);
width = 612;
},
{
layerId = "8275915C-4C26-4DD7-A30E-5590CD7E6050";
shapes = (
{
closed = 1;
nodes = (
(223,0,ls),
(404,0,o),
(495,72,o),
(531,242,cs),
(575,452,ls),
(579,473,o),
(582,493,o),
(582,512,cs),
(582,625,o),
(503,700,o),
(368,700,cs),
(172,700,l),
(110,410,l),
(32,410,l),
(32,290,l),
(85,290,l),
(26,12,l),
(26,0,l)
);
},
{
closed = 1;
nodes = (
(217,290,l),
(328,290,l),
(328,410,l),
(242,410,l),
(277,574,l),
(345,574,ls),
(415,574,o),
(448,544,o),
(448,490,cs),
(448,478,o),
(446,466,o),
(443,452,cs),
(402,260,ls),
(383,168,o),
(342,126,o),
(250,126,c),
(182,126,l)
);
}
);
width = 612;
}
);
},
{
glyphname = IJ.ss01;
lastChange = "2025-01-15 14:15:22 +0000";
layers = (
{
layerId = "CCBD71C2-CFAF-4DB2-A010-494EF6BDA443";
shapes = (
{
closed = 1;
nodes = (
(391,-14,o),
(463,68,o),
(492,206,cs),
(597,700,l),
(514,700,l),
(409,210,ls),
(391,124,o),
(345,64,o),
(252,64,cs),
(175,64,o),
(139,97,o),
(139,160,cs),
(139,175,o),
(141,192,o),
(145,210,cs),
(157,264,l),
(73,264,l),
(61,210,ls),
(57,191,o),
(55,172,o),
(55,155,cs),
(55,53,o),
(125,-14,o),
(241,-14,cs)
);
},
{
closed = 1;
nodes = (
(173,342,l),
(249,700,l),
(165,700,l),
(89,342,l)
);
}
);
width = 612;
},
{
layerId = "8275915C-4C26-4DD7-A30E-5590CD7E6050";
shapes = (
{
closed = 1;
nodes = (
(388,-14,o),
(467,52,o),
(501,210,cs),
(605,700,l),
(473,700,l),
(369,210,ls),
(355,146,o),
(315,110,o),
(258,110,cs),
(207,110,o),
(180,136,o),
(180,181,cs),
(180,190,o),
(181,201,o),
(183,210,cs),
(197,276,l),
(65,276,l),
(55,229,ls),
(50,207,o),
(48,186,o),
(48,167,cs),
(48,51,o),
(129,-14,o),
(240,-14,cs)
);
},
{
closed = 1;
nodes = (
(211,342,l),
(287,700,l),
(155,700,l),
(79,342,l)
);
}
);
width = 612;
}
);
},
{
glyphname = J.ss01;
lastChange = "2025-01-15 14:15:22 +0000";
layers = (
{
layerId = "CCBD71C2-CFAF-4DB2-A010-494EF6BDA443";
shapes = (
{
closed = 1;
nodes = (
(385,-14,o),
(457,68,o),
(486,206,cs),
(591,700,l),
(508,700,l),
(403,210,ls),
(385,124,o),
(339,64,o),
(246,64,cs),
(169,64,o),
(133,97,o),
(133,160,cs),
(133,175,o),
(135,192,o),
(139,210,cs),
(151,264,l),
(67,264,l),
(55,210,ls),
(51,191,o),
(49,172,o),
(49,155,cs),
(49,53,o),
(119,-14,o),
(235,-14,cs)
);
}
);
width = 612;
},
{
layerId = "8275915C-4C26-4DD7-A30E-5590CD7E6050";
shapes = (
{
closed = 1;
nodes = (
(385,-14,o),
(464,52,o),
(498,210,cs),
(602,700,l),
(470,700,l),
(366,210,ls),
(352,146,o),
(312,110,o),
(255,110,cs),
(204,110,o),
(177,136,o),
(177,181,cs),
(177,190,o),
(178,201,o),
(180,210,cs),
(194,276,l),
(62,276,l),
(52,229,ls),
(47,207,o),
(45,186,o),
(45,167,cs),
(45,51,o),
(126,-14,o),
(237,-14,cs)
);
}
);
width = 612;
}
);
},
{
glyphname = a;
lastChange = "2025-01-15 15:06:47 +0000";
layers = (
{
anchors = (
{
name = bottom;
pos = (211,0);
},
{
name = ogonek;
pos = (500,10);
},
{
name = top;
pos = (322,496);
}
);
layerId = "CCBD71C2-CFAF-4DB2-A010-494EF6BDA443";
shapes = (
{
closed = 1;
nodes = (
(246,-14,o),
(306,8,o),
(347,78,c),
(359,78,l),
(358,71,o),
(357,64,o),
(357,58,cs),
(357,6,o),
(398,-14,o),
(437,-14,cs),
(460,-14,o),
(483,-7,o),
(498,4,cs),
(543,38,l),
(501,97,l),
(465,71,ls),
(461,68,o),
(455,66,o),
(451,66,cs),
(442,66,o),
(435,72,o),
(438,84,cs),
(526,496,l),
(448,496,l),
(432,418,l),
(420,418,l),
(406,478,o),
(354,510,o),
(286,510,cs),
(108,510,o),
(12,352,o),
(12,184,cs),
(12,66,o),
(77,-14,o),
(184,-14,cs)
);
},
{
closed = 1;
nodes = (
(134,60,o),
(94,106,o),
(94,194,cs),
(94,320,o),
(163,436,o),
(287,436,cs),
(365,436,o),
(402,381,o),
(402,299,cs),
(402,164,o),
(316,60,o),
(208,60,cs)
);
}
);
width = 612;
},
{
anchors = (
{
name = bottom;
pos = (221,0);
},
{
name = ogonek;
pos = (500,10);
},
{
name = top;
pos = (311,496);
}
);
layerId = "8275915C-4C26-4DD7-A30E-5590CD7E6050";
shapes = (
{
closed = 1;
nodes = (
(274,-14,o),
(311,22,o),
(335,66,c),
(353,66,l),
(364,16,o),
(408,-14,o),
(459,-14,cs),
(489,-14,o),
(514,-6,o),
(541,12,cs),
(600,52,l),
(537,146,l),
(489,112,l),
(479,119,l),
(559,496,l),
(433,496,l),
(419,430,l),
(401,430,l),
(386,478,o),
(344,510,o),
(271,510,cs),
(105,510,o),
(6,368,o),
(6,190,cs),
(6,74,o),
(85,-14,o),
(188,-14,cs)
);
},
{
closed = 1;
nodes = (
(169,106,o),
(137,156,o),
(137,212,cs),
(137,308,o),
(191,390,o),
(287,390,cs),
(347,390,o),
(386,346,o),
(386,284,cs),
(386,188,o),
(333,106,o),
(237,106,cs)
);
}
);
width = 612;
}
);
unicode = 97;
},
{
glyphname = abrevehookabove;
lastChange = "2025-01-15 13:17:44 +0000";
layers = (
{
associatedMasterId = "CCBD71C2-CFAF-4DB2-A010-494EF6BDA443";
layerId = "B5F68FDA-8C9D-4654-935C-D86EAB7081E6";
name = img;
width = 612;
},
{
layerId = "CCBD71C2-CFAF-4DB2-A010-494EF6BDA443";
shapes = (
{
closed = 1;
nodes = (
(361,718,l),
(361,786,l),
(367,786,l),
(375,766,o),
(393,754,o),
(419,754,cs),
(470,754,o),
(510,796,o),
(510,846,cs),
(510,894,o),
(474,930,o),
(424,930,cs),
(372,930,o),
(339,900,o),
(322,860,c),
(366,842,l),
(375,862,o),
(390,882,o),
(419,882,cs),
(442,882,o),
(455,866,o),
(455,844,cs),
(455,821,o),
(439,802,o),
(415,802,cs),
(403,802,o),
(394,806,o),
(389,816,c),
(317,816,l),
(312,810,l),
(312,718,l)
);
},
{
alignment = -1;
ref = a;
},
{
alignment = -1;
pos = (-37,0);
ref = breve;
}
);
width = 612;
},
{
associatedMasterId = "8275915C-4C26-4DD7-A30E-5590CD7E6050";
layerId = "C5506310-A07D-46DB-B8CA-E5FB63BA8B3C";
name = img;
width = 612;
},
{
layerId = "8275915C-4C26-4DD7-A30E-5590CD7E6050";
shapes = (
{
alignment = -1;
ref = a;
},
{
alignment = -1;
pos = (-38,0);
ref = breve;
},
{
alignment = -1;
pos = (112,78);
ref = hookabovecomb;
}
);
width = 612;
}
);
unicode = 7859;
},
{
glyphname = acircumflexhookabove;
lastChange = "2025-01-15 13:17:44 +0000";
layers = (
{
associatedMasterId = "CCBD71C2-CFAF-4DB2-A010-494EF6BDA443";
layerId = "B5F68FDA-8C9D-4654-935C-D86EAB7081E6";
name = img;
width = 612;
},
{
layerId = "CCBD71C2-CFAF-4DB2-A010-494EF6BDA443";
shapes = (
{
closed = 1;
nodes = (
(483,658,l),
(483,726,l),
(489,726,l),
(497,706,o),
(519,694,o),
(547,694,cs),
(595,694,o),
(631,736,o),
(631,786,cs),
(631,834,o),
(593,870,o),
(541,870,cs),
(487,870,o),
(459,840,o),
(443,800,c),
(488,782,l),
(495,806,o),
(511,822,o),
(535,822,cs),
(561,822,o),
(577,806,o),
(577,782,cs),
(577,756,o),
(563,741,o),
(539,741,cs),
(527,741,o),
(517,746,o),
(511,756,c),
(439,756,l),
(434,750,l),
(434,658,l)
);
},
{
alignment = -1;
ref = a;
},
{
alignment = -1;
pos = (-50,0);
ref = circumflex;
}
);
width = 612;
},
{
associatedMasterId = "8275915C-4C26-4DD7-A30E-5590CD7E6050";
layerId = "60273453-23A4-4893-ACF6-E42383B3CF82";
name = img;
width = 612;
},
{
layerId = "8275915C-4C26-4DD7-A30E-5590CD7E6050";
shapes = (
{
alignment = -1;
ref = a;
},
{
alignment = -1;
pos = (-45,0);
ref = circumflex;
},
{
alignment = -1;
pos = (280,0);
ref = hookabovecomb;
}
);
width = 612;
}
);
unicode = 7849;
},
{
glyphname = ahookabove;
lastChange = "2025-01-15 13:17:44 +0000";
layers = (
{
associatedMasterId = "CCBD71C2-CFAF-4DB2-A010-494EF6BDA443";
layerId = "B5F68FDA-8C9D-4654-935C-D86EAB7081E6";
name = img;
width = 612;
},
{
guides = (
{
angle = 90;
pos = (286,0);
}
);
layerId = "CCBD71C2-CFAF-4DB2-A010-494EF6BDA443";
shapes = (
{
closed = 1;
nodes = (
(311,546,l),
(311,614,l),
(317,614,l),
(325,594,o),
(347,582,o),
(375,582,cs),
(423,582,o),
(459,624,o),
(459,674,cs),
(459,722,o),
(421,758,o),
(369,758,cs),
(315,758,o),
(287,728,o),
(271,688,c),
(316,670,l),
(323,694,o),
(339,710,o),
(363,710,cs),
(389,710,o),
(405,694,o),
(405,670,cs),
(405,644,o),
(391,629,o),
(367,629,cs),
(355,629,o),
(345,634,o),
(339,644,c),
(267,644,l),
(262,638,l),
(262,546,l)
);
},
{
alignment = -1;
ref = a;
}
);
width = 612;
},
{
associatedMasterId = "8275915C-4C26-4DD7-A30E-5590CD7E6050";
layerId = "4BA5BC3B-E7F4-4346-B375-F9B5D631A7DD";
name = img;
width = 612;
},
{
layerId = "8275915C-4C26-4DD7-A30E-5590CD7E6050";
shapes = (
{
alignment = -1;
ref = a;
},
{
alignment = -1;
pos = (53,-112);
ref = hookabovecomb;
}
);
width = 612;
}
);
unicode = 7843;
},
{
glyphname = "alphaturned-latin";
lastChange = "2025-01-15 13:17:44 +0000";
layers = (
{
associatedMasterId = "CCBD71C2-CFAF-4DB2-A010-494EF6BDA443";
layerId = "B5F68FDA-8C9D-4654-935C-D86EAB7081E6";
name = img;
width = 612;
},
{
layerId = "CCBD71C2-CFAF-4DB2-A010-494EF6BDA443";
shapes = (
{
alignment = -1;
angle = 180;
pos = (575,496);
ref = a;
}
);
width = 612;
},
{
layerId = "8275915C-4C26-4DD7-A30E-5590CD7E6050";
shapes = (
{
closed = 1;
nodes = (
(489,-14,o),
(588,128,o),
(588,306,cs),
(588,424,o),
(511,510,o),
(401,510,cs),
(325,510,o),
(281,472,o),
(259,430,c),
(241,430,l),
(230,480,o),
(186,510,o),
(135,510,cs),
(108,510,o),
(80,502,o),
(53,484,cs),
(-6,444,l),
(57,350,l),
(105,384,l),
(115,377,l),
(35,0,l),
(161,0,l),
(175,66,l),
(193,66,l),
(208,18,o),
(250,-14,o),
(323,-14,cs)
);
},
{
closed = 1;
nodes = (
(247,106,o),
(208,150,o),
(208,212,cs),
(208,308,o),
(261,390,o),
(357,390,cs),
(425,390,o),
(457,340,o),
(457,284,cs),
(457,188,o),
(403,106,o),
(307,106,cs)
);
}
);
width = 612;
}
);
unicode = 594;
},
{
glyphname = aogonek;
lastChange = "2025-01-15 13:13:32 +0000";
layers = (
{
associatedMasterId = "CCBD71C2-CFAF-4DB2-A010-494EF6BDA443";
layerId = "B5F68FDA-8C9D-4654-935C-D86EAB7081E6";
name = img;
width = 612;
},
{
layerId = "CCBD71C2-CFAF-4DB2-A010-494EF6BDA443";
shapes = (
{
closed = 1;
nodes = (
(494,-164,l),
(494,-98,l),
(407,-98,ls),
(398,-98,o),
(391,-92,o),
(391,-84,cs),
(391,-79,o),
(394,-73,o),
(402,-67,cs),
(543,38,l),
(501,97,l),
(465,71,ls),
(461,68,o),
(455,66,o),
(451,66,cs),
(442,66,o),
(435,72,o),
(438,84,cs),
(526,496,l),
(448,496,l),
(432,418,l),
(420,418,l),
(406,478,o),
(354,510,o),
(286,510,cs),
(108,510,o),
(12,352,o),
(12,184,cs),
(12,66,o),
(77,-14,o),
(184,-14,cs),
(246,-14,o),
(306,8,o),
(347,78,c),
(359,78,l),
(358,71,o),
(357,64,o),
(357,58,cs),
(357,30,o),
(369,11,o),
(386,0,c),
(357,-21,ls),
(329,-41,o),
(316,-68,o),
(316,-92,cs),
(316,-130,o),
(346,-164,o),
(390,-164,cs)
);
},
{
closed = 1;
nodes = (
(134,60,o),
(94,106,o),
(94,194,cs),
(94,320,o),
(163,436,o),
(287,436,cs),
(365,436,o),
(402,381,o),
(402,299,cs),
(402,164,o),
(316,60,o),
(208,60,cs)
);
}
);
width = 612;
},
{
associatedMasterId = "8275915C-4C26-4DD7-A30E-5590CD7E6050";
layerId = "C1459F16-FFEC-4BA5-8D36-9F106ED926D7";
name = img;
width = 612;
},
{
layerId = "8275915C-4C26-4DD7-A30E-5590CD7E6050";
shapes = (
{
closed = 1;
nodes = (
(514,-170,l),
(514,-86,l),
(451,-86,ls),
(440,-86,o),
(434,-79,o),
(434,-72,cs),
(434,-66,o),
(437,-62,o),
(442,-58,cs),
(600,52,l),
(537,146,l),
(489,112,l),
(479,119,l),
(559,496,l),
(433,496,l),
(419,430,l),
(401,430,l),
(386,478,o),
(344,510,o),
(271,510,cs),
(105,510,o),
(6,368,o),
(6,190,cs),
(6,74,o),
(85,-14,o),
(188,-14,cs),
(274,-14,o),
(311,22,o),
(335,66,c),
(353,66,l),
(358,40,o),
(372,20,o),
(392,6,c),
(352,-23,ls),
(324,-44,o),
(311,-70,o),
(311,-95,cs),
(311,-135,o),
(342,-170,o),
(390,-170,cs)
);
},
{
closed = 1;
nodes = (
(169,106,o),
(137,156,o),
(137,212,cs),
(137,308,o),
(191,390,o),
(287,390,cs),
(347,390,o),
(386,346,o),
(386,284,cs),
(386,188,o),
(333,106,o),
(237,106,cs)
);
}
);
width = 612;
}
);
unicode = 261;
},
{
glyphname = ae;
lastChange = "2025-01-15 13:13:32 +0000";
layers = (
{
layerId = "CCBD71C2-CFAF-4DB2-A010-494EF6BDA443";
shapes = (
{
closed = 1;
nodes = (
(223,-14,ls),
(353,-14,o),
(441,50,o),
(484,142,c),
(414,162,l),
(391,113,o),
(343,70,o),
(274,62,c),
(308,224,l),
(507,224,l),
(519,278,ls),
(522,292,o),
(524,306,o),
(524,320,cs),
(524,417,o),
(452,510,o),
(319,510,cs),
(183,510,o),
(113,436,o),
(82,358,c),
(148,330,l),
(171,393,o),
(216,430,o),
(276,437,c),
(246,296,l),
(227,296,ls),
(99,296,o),
(16,226,o),
(16,122,cs),
(16,34,o),
(85,-14,o),
(179,-14,cs)
);
},
{
closed = 1;
nodes = (
(128,58,o),
(97,82,o),
(97,126,cs),
(97,196,o),
(158,224,o),
(219,224,cs),
(230,224,l),
(195,58,l),
(183,58,ls)
);
},
{
closed = 1;
nodes = (
(353,432,l),
(410,421,o),
(447,380,o),
(447,320,cs),
(447,311,o),
(446,303,o),
(445,296,c),
(324,296,l)
);
}
);
width = 612;
},
{
associatedMasterId = "8275915C-4C26-4DD7-A30E-5590CD7E6050";
layerId = "DB35062E-D8A3-4310-9DB6-4187E7DC33D7";
name = img;
width = 612;
},
{
layerId = "8275915C-4C26-4DD7-A30E-5590CD7E6050";
shapes = (
{
closed = 1;
nodes = (
(237,-14,ls),
(350,-14,o),
(430,16,o),
(485,88,c),
(397,152,l),
(379,124,o),
(348,110,o),
(316,110,c),
(333,188,l),
(525,188,l),
(537,243,ls),
(542,268,o),
(544,288,o),
(544,309,cs),
(544,422,o),
(473,510,o),
(310,510,cs),
(200,510,o),
(128,470,o),
(82,406,c),
(164,336,l),
(183,366,o),
(213,386,o),
(249,386,c),
(232,308,l),
(222,308,ls),
(88,308,o),
(10,235,o),
(10,131,cs),
(10,24,o),
(99,-14,o),
(208,-14,cs)
);
},
{
closed = 1;
nodes = (
(158,106,o),
(139,117,o),
(139,141,cs),
(139,169,o),
(160,188,o),
(195,188,c),
(207,188,l),
(189,106,l),
(177,106,ls)
);
},
{
closed = 1;
nodes = (
(375,386,l),
(407,381,o),
(427,361,o),
(427,329,cs),
(427,322,o),
(426,315,o),
(424,308,c),
(358,308,l)
);
}
);
width = 612;
}
);
unicode = 230;
},
{
glyphname = b;
lastChange = "2025-01-15 13:13:32 +0000";
layers = (
{
layerId = "CCBD71C2-CFAF-4DB2-A010-494EF6BDA443";
shapes = (
{
closed = 1;
nodes = (
(446,-14,o),
(570,114,o),
(570,318,cs),
(570,434,o),
(492,510,o),
(388,510,cs),
(310,510,o),
(250,472,o),
(213,418,c),
(201,418,l),
(264,714,l),
(187,714,l),
(36,0,l),
(113,0,l),
(129,76,l),
(141,76,l),
(162,16,o),
(226,-14,o),
(288,-14,cs)
);
},
{
closed = 1;
nodes = (
(208,60,o),
(161,110,o),
(161,198,cs),
(161,326,o),
(247,436,o),
(363,436,cs),
(443,436,o),
(488,384,o),
(488,303,cs),
(488,158,o),
(396,60,o),
(286,60,cs)
);
}
);
width = 612;
},
{
layerId = "8275915C-4C26-4DD7-A30E-5590CD7E6050";
shapes = (
{
closed = 1;
nodes = (
(454,-14,o),
(577,114,o),
(577,320,cs),
(577,434,o),
(512,510,o),
(410,510,cs),
(340,510,o),
(287,480,o),
(253,424,c),
(235,424,l),
(297,714,l),
(170,714,l),
(20,0,l),
(145,0,l),
(160,72,l),
(178,72,l),
(187,26,o),
(216,-14,o),
(304,-14,cs)
);
},
{
closed = 1;
nodes = (
(228,106,o),
(193,144,o),
(193,208,cs),
(193,310,o),
(252,390,o),
(344,390,cs),
(406,390,o),
(446,350,o),
(446,288,cs),
(446,190,o),
(384,108,o),
(288,106,c)
);
}
);
width = 612;
}
);
unicode = 98;
},
{
glyphname = bstroke;
lastChange = "2025-01-15 13:17:44 +0000";
layers = (
{
associatedMasterId = "CCBD71C2-CFAF-4DB2-A010-494EF6BDA443";
layerId = "B5F68FDA-8C9D-4654-935C-D86EAB7081E6";
name = img;
width = 612;
},
{
layerId = "CCBD71C2-CFAF-4DB2-A010-494EF6BDA443";
shapes = (
{
closed = 1;
nodes = (
(446,-14,o),
(570,114,o),
(570,318,cs),
(570,434,o),
(492,510,o),
(388,510,cs),
(310,510,o),
(250,472,o),
(213,418,c),
(201,418,l),
(231,562,l),
(418,562,l),
(418,634,l),
(247,634,l),
(264,714,l),
(187,714,l),
(170,634,l),
(102,634,l),
(102,562,l),
(155,562,l),
(36,0,l),
(113,0,l),
(129,76,l),
(141,76,l),
(162,16,o),
(226,-14,o),
(288,-14,cs)
);
},
{
closed = 1;
nodes = (
(208,60,o),
(161,110,o),
(161,198,cs),
(161,326,o),
(247,436,o),
(363,436,cs),
(443,436,o),
(488,384,o),
(488,303,cs),
(488,158,o),
(396,60,o),
(286,60,cs)
);
}
);
width = 612;
},
{
associatedMasterId = "8275915C-4C26-4DD7-A30E-5590CD7E6050";
layerId = "097A773C-8DEF-40A9-951F-A8A034BC1220";
name = img;
width = 612;
},
{
layerId = "8275915C-4C26-4DD7-A30E-5590CD7E6050";
shapes = (
{
closed = 1;
nodes = (
(454,-14,o),
(577,114,o),
(577,320,cs),
(577,434,o),
(512,510,o),
(410,510,cs),
(340,510,o),
(287,480,o),
(253,424,c),
(235,424,l),
(259,538,l),
(410,538,l),
(410,652,l),
(284,652,l),
(297,714,l),
(171,714,l),
(158,652,l),
(86,652,l),
(86,538,l),
(134,538,l),
(20,0,l),
(145,0,l),
(160,72,l),
(178,72,l),
(187,26,o),
(216,-14,o),
(304,-14,cs)
);
},
{
closed = 1;
nodes = (
(228,106,o),
(193,144,o),
(193,208,cs),
(193,310,o),
(252,390,o),
(344,390,cs),
(406,390,o),
(446,350,o),
(446,288,cs),
(446,190,o),
(384,108,o),
(288,106,c)
);
}
);
width = 612;
}
);
unicode = 384;
},
{
glyphname = c;
lastChange = "2025-01-15 15:06:55 +0000";
layers = (
{
anchors = (
{
name = bottom;
pos = (253,0);
},
{
name = top;
pos = (349,496);
}
);
layerId = "CCBD71C2-CFAF-4DB2-A010-494EF6BDA443";
shapes = (
{
closed = 1;
nodes = (
(386,-14,o),
(476,68,o),
(510,170,c),
(436,194,l),
(416,126,o),
(356,60,o),
(250,60,cs),
(163,60,o),
(108,106,o),
(108,200,cs),
(108,326,o),
(202,436,o),
(326,436,cs),
(420,436,o),
(460,385,o),
(460,322,cs),
(460,317,o),
(460,314,o),
(459,306,c),
(539,318,l),
(540,328,o),
(540,331,o),
(540,333,c),
(540,437,o),
(462,510,o),
(340,510,cs),
(150,510,o),
(26,366,o),
(26,192,cs),
(26,66,o),
(108,-14,o),
(234,-14,cs)
);
}
);
width = 612;
},
{
anchors = (
{
name = bottom;
pos = (253,0);
},
{
name = top;
pos = (359,496);
}
);
layerId = "8275915C-4C26-4DD7-A30E-5590CD7E6050";
shapes = (
{
closed = 1;
nodes = (
(403,-14,o),
(497,64,o),
(534,182,c),
(417,213,l),
(393,146,o),
(349,106,o),
(266,106,cs),
(205,106,o),
(160,141,o),
(160,217,cs),
(160,312,o),
(231,390,o),
(327,390,cs),
(403,390,o),
(435,350,o),
(435,283,c),
(563,308,l),
(563,418,o),
(489,510,o),
(345,510,cs),
(149,510,o),
(30,374,o),
(30,208,cs),
(30,62,o),
(125,-14,o),
(243,-14,cs)
);
}
);
width = 612;
}
);
unicode = 99;
},
{
glyphname = ccedilla;
lastChange = "2025-01-15 13:13:32 +0000";
layers = (
{
guides = (
{
angle = 90;
pos = (236,0);
}
);
layerId = "CCBD71C2-CFAF-4DB2-A010-494EF6BDA443";
shapes = (
{
closed = 1;
nodes = (
(322,-212,o),
(356,-170,o),
(356,-110,cs),
(356,-70,o),
(332,-36,o),
(288,-36,cs),
(262,-36,o),
(245,-47,o),
(234,-68,c),
(228,-68,l),
(247,-14,l),
(391,-9,o),
(477,71,o),
(510,170,c),
(436,194,l),
(416,126,o),
(356,60,o),
(250,60,cs),
(163,60,o),
(108,106,o),
(108,200,cs),
(108,326,o),
(202,436,o),
(326,436,cs),
(420,436,o),
(460,385,o),
(460,322,cs),
(460,317,o),
(460,314,o),
(459,306,c),
(539,318,l),
(540,328,o),
(540,331,o),
(540,333,c),
(540,437,o),
(462,510,o),
(340,510,cs),
(150,510,o),
(26,366,o),
(26,192,cs),
(26,80,o),
(91,4,o),
(194,-11,c),
(168,-86,l),
(168,-98,l),
(243,-98,l),
(248,-90,o),
(256,-84,o),
(270,-84,cs),
(287,-84,o),
(302,-94,o),
(302,-118,cs),
(302,-146,o),
(284,-164,o),
(254,-164,cs),
(224,-164,o),
(210,-146,o),
(208,-125,c),
(158,-142,l),
(164,-183,o),
(198,-212,o),
(252,-212,cs)
);
}
);
width = 612;
},
{
associatedMasterId = "8275915C-4C26-4DD7-A30E-5590CD7E6050";
layerId = "C2A874DB-DC18-4C08-9CDB-ED5941AFB88D";
name = img;
width = 612;
},
{
layerId = "8275915C-4C26-4DD7-A30E-5590CD7E6050";
shapes = (
{
closed = 1;
nodes = (
(333,-212,o),
(377,-170,o),
(377,-102,cs),
(377,-52,o),
(349,-24,o),
(310,-24,cs),
(285,-24,o),
(269,-34,o),
(259,-46,c),
(247,-46,l),
(261,-13,l),
(410,-8,o),
(498,68,o),
(534,182,c),
(417,213,l),
(393,146,o),
(349,106,o),
(266,106,cs),
(205,106,o),
(160,141,o),
(160,217,cs),
(160,312,o),
(231,390,o),
(327,390,cs),
(403,390,o),
(435,350,o),
(435,283,c),
(563,308,l),
(563,418,o),
(489,510,o),
(345,510,cs),
(149,510,o),
(30,374,o),
(30,208,cs),
(30,86,o),
(95,13,o),
(185,-7,c),
(155,-92,l),
(155,-104,l),
(252,-104,l),
(256,-96,o),
(262,-90,o),
(273,-90,cs),
(284,-90,o),
(291,-97,o),
(291,-109,cs),
(291,-128,o),
(274,-138,o),
(251,-138,cs),
(230,-138,o),
(213,-132,o),
(200,-123,c),
(163,-192,l),
(183,-204,o),
(211,-212,o),
(256,-212,cs)
);
}
);
width = 612;
}
);
unicode = 231;
},
{
glyphname = d;
lastChange = "2025-01-15 13:13:32 +0000";
layers = (
{
layerId = "CCBD71C2-CFAF-4DB2-A010-494EF6BDA443";
shapes = (
{
closed = 1;
nodes = (
(247,-14,o),
(309,8,o),
(351,78,c),
(363,78,l),
(362,72,o),
(361,64,o),
(361,58,cs),
(361,6,o),
(402,-14,o),
(441,-14,cs),
(466,-14,o),
(487,-7,o),
(502,4,cs),
(547,38,l),
(504,97,l),
(468,71,ls),
(464,68,o),
(460,66,o),
(455,66,cs),
(446,66,o),
(440,73,o),
(442,84,cs),
(576,714,l),
(498,714,l),
(436,418,l),
(424,418,l),
(407,482,o),
(357,510,o),
(287,510,cs),
(107,510,o),
(4,348,o),
(4,182,cs),
(4,64,o),
(75,-14,o),
(182,-14,cs)
);
},
{
closed = 1;
nodes = (
(127,60,o),
(86,104,o),
(86,193,cs),
(86,319,o),
(161,436,o),
(285,436,cs),
(363,436,o),
(406,381,o),
(406,299,cs),
(406,164,o),
(314,60,o),
(206,60,cs)
);
}
);
width = 612;
},
{
layerId = "8275915C-4C26-4DD7-A30E-5590CD7E6050";
shapes = (
{
closed = 1;
nodes = (
(274,-14,o),
(311,22,o),
(335,66,c),
(353,66,l),
(364,16,o),
(408,-14,o),
(459,-14,cs),
(486,-14,o),
(513,-7,o),
(541,12,cs),
(606,56,l),
(543,150,l),
(489,112,l),
(479,119,l),
(544,424,l),
(606,714,l),
(479,714,l),
(418,424,l),
(400,424,l),
(387,474,o),
(341,510,o),
(271,510,cs),
(105,510,o),
(6,368,o),
(6,190,cs),
(6,74,o),
(85,-14,o),
(188,-14,cs)
);
},
{
closed = 1;
nodes = (
(169,106,o),
(137,156,o),
(137,212,cs),
(137,308,o),
(191,390,o),
(287,390,cs),
(347,390,o),
(386,346,o),
(386,284,cs),
(386,188,o),
(333,106,o),
(237,106,cs)
);
}
);
width = 612;
}
);
unicode = 100;
},
{
glyphname = dcaron;
lastChange = "2025-01-15 13:13:32 +0000";
layers = (
{
associatedMasterId = "CCBD71C2-CFAF-4DB2-A010-494EF6BDA443";
layerId = "B5F68FDA-8C9D-4654-935C-D86EAB7081E6";
name = img;
width = 612;
},
{
layerId = "CCBD71C2-CFAF-4DB2-A010-494EF6BDA443";
shapes = (
{
closed = 1;
nodes = (
(199,-14,o),
(249,17,o),
(270,64,c),
(282,64,l),
(282,58,l),
(282,6,o),
(322,-14,o),
(362,-14,cs),
(385,-14,o),
(408,-7,o),
(423,4,cs),
(468,38,l),
(425,97,l),
(389,71,ls),
(385,68,o),
(380,66,o),
(376,66,cs),
(366,66,o),
(361,73,o),
(363,84,cs),
(496,714,l),
(418,714,l),
(361,442,l),
(349,442,l),
(338,480,o),
(305,510,o),
(245,510,cs),
(71,510,o),
(-8,317,o),
(-8,172,cs),
(-8,43,o),
(54,-14,o),
(143,-14,cs)
);
},
{
closed = 1;
nodes = (
(107,60,o),
(73,101,o),
(73,181,cs),
(73,282,o),
(120,436,o),
(241,436,cs),
(300,436,o),
(330,395,o),
(330,313,cs),
(330,221,o),
(283,60,o),
(166,60,cs)
);
},
{
alignment = -1;
pos = (218,-14);
ref = quoteright;
}
);
width = 612;
},
{
associatedMasterId = "8275915C-4C26-4DD7-A30E-5590CD7E6050";
layerId = "AE6B7B4D-65E5-4E60-8119-A70D29ADD336";
name = img;
width = 612;
},
{
layerId = "8275915C-4C26-4DD7-A30E-5590CD7E6050";
shapes = (
{
closed = 1;
nodes = (
(152,-14,o),
(192,4,o),
(215,66,c),
(233,66,l),
(244,16,o),
(284,-14,o),
(332,-14,cs),
(357,-14,o),
(385,-6,o),
(411,12,cs),
(485,62,l),
(422,156,l),
(359,112,l),
(349,119,l),
(474,714,l),
(348,714,l),
(293,454,l),
(275,454,l),
(270,488,o),
(240,510,o),
(194,510,cs),
(108,510,o),
(42,441,o),
(17,330,cs),
(-4,235,ls),
(-14,191,o),
(-16,152,o),
(-16,119,cs),
(-16,30,o),
(38,-14,o),
(98,-14,cs)
);
},
{
closed = 1;
nodes = (
(130,106,o),
(111,126,o),
(111,169,cs),
(111,183,o),
(113,200,o),
(117,218,cs),
(129,276,ls),
(144,348,o),
(170,390,o),
(218,390,cs),
(250,390,o),
(265,368,o),
(265,336,cs),
(265,326,o),
(264,314,o),
(261,302,cs),
(238,194,ls),
(226,140,o),
(204,106,o),
(160,106,cs)
);
},
{
closed = 1;
nodes = (
(523,406,ls),
(574,406,o),
(619,435,o),
(632,496,cs),
(655,602,ls),
(657,612,o),
(657,616,o),
(657,623,cs),
(657,669,o),
(623,700,o),
(578,700,cs),
(525,700,o),
(483,661,o),
(483,607,cs),
(483,565,o),
(517,526,o),
(560,526,c),
(558,514,ls),
(554,495,o),
(543,484,o),
(524,484,cs),
(471,484,l),
(471,406,l)
);
}
);
width = 612;
}
);
unicode = 271;
},
{
glyphname = dcroat;
lastChange = "2025-01-15 13:13:32 +0000";
layers = (
{
associatedMasterId = "CCBD71C2-CFAF-4DB2-A010-494EF6BDA443";
layerId = "B5F68FDA-8C9D-4654-935C-D86EAB7081E6";
name = img;
width = 612;
},
{
layerId = "CCBD71C2-CFAF-4DB2-A010-494EF6BDA443";
shapes = (
{
closed = 1;
nodes = (
(247,-14,o),
(309,8,o),
(351,78,c),
(363,78,l),
(362,72,o),
(361,64,o),
(361,58,cs),
(361,6,o),
(402,-14,o),
(441,-14,cs),
(466,-14,o),
(487,-7,o),
(502,4,cs),
(547,38,l),
(504,97,l),
(468,71,ls),
(464,68,o),
(460,66,o),
(455,66,cs),
(446,66,o),
(440,73,o),
(442,84,cs),
(543,562,l),
(619,562,l),
(619,634,l),
(559,634,l),
(576,714,l),
(498,714,l),
(481,634,l),
(305,634,l),
(305,562,l),
(466,562,l),
(436,418,l),
(424,418,l),
(407,482,o),
(357,510,o),
(287,510,cs),
(107,510,o),
(4,348,o),
(4,182,cs),
(4,64,o),
(75,-14,o),
(182,-14,cs)
);
},
{
closed = 1;
nodes = (
(127,60,o),
(86,104,o),
(86,193,cs),
(86,319,o),
(161,436,o),
(285,436,cs),
(363,436,o),
(406,381,o),
(406,299,cs),
(406,164,o),
(314,60,o),
(206,60,cs)
);
}
);
width = 612;
},
{
associatedMasterId = "8275915C-4C26-4DD7-A30E-5590CD7E6050";
layerId = "A7348C32-118F-44DE-B72C-0F321FF84079";
name = img;
width = 612;
},
{
layerId = "8275915C-4C26-4DD7-A30E-5590CD7E6050";
shapes = (
{
closed = 1;
nodes = (
(274,-14,o),
(311,22,o),
(335,66,c),
(353,66,l),
(364,16,o),
(408,-14,o),
(459,-14,cs),
(486,-14,o),
(515,-6,o),
(541,12,cs),
(606,56,l),
(543,150,l),
(489,112,l),
(479,119,l),
(544,424,l),
(568,538,l),
(640,538,l),
(640,652,l),
(593,652,l),
(606,714,l),
(479,714,l),
(466,652,l),
(271,652,l),
(271,538,l),
(442,538,l),
(418,424,l),
(400,424,l),
(387,474,o),
(341,510,o),
(271,510,cs),
(105,510,o),
(6,368,o),
(6,190,cs),
(6,74,o),
(85,-14,o),
(188,-14,cs)
);
},
{
closed = 1;
nodes = (
(169,106,o),
(137,156,o),
(137,212,cs),
(137,308,o),
(191,390,o),
(287,390,cs),
(347,390,o),
(386,346,o),
(386,284,cs),
(386,188,o),
(333,106,o),
(237,106,cs)
);
}
);
width = 612;
}
);
unicode = 273;
},
{
glyphname = eth;
lastChange = "2025-01-15 13:13:32 +0000";
layers = (
{
layerId = "CCBD71C2-CFAF-4DB2-A010-494EF6BDA443";
shapes = (
{
closed = 1;
nodes = (
(451,-14,o),
(545,185,o),
(545,376,cs),
(545,507,o),
(501,598,o),
(416,654,c),
(435,691,l),
(373,722,l),
(354,686,l),
(320,699,o),
(282,709,o),
(240,714,c),
(225,639,l),
(259,635,o),
(291,628,o),
(319,618,c),
(298,578,l),
(361,547,l),
(381,586,l),
(427,554,o),
(458,504,o),
(463,436,c),
(451,436,l),
(434,476,o),
(391,510,o),
(315,510,cs),
(141,510,o),
(20,365,o),
(20,199,cs),
(20,61,o),
(111,-14,o),
(227,-14,cs)
);
},
{
closed = 1;
nodes = (
(154,60,o),
(102,113,o),
(102,200,cs),
(102,321,o),
(193,436,o),
(317,436,cs),
(397,436,o),
(452,382,o),
(452,289,cs),
(452,179,o),
(359,60,o),
(237,60,cs)
);
}
);
width = 612;
},
{
layerId = "8275915C-4C26-4DD7-A30E-5590CD7E6050";
shapes = (
{
closed = 1;
nodes = (
(466,-14,o),
(560,202,o),
(560,388,cs),
(560,538,o),
(504,632,o),
(409,683,c),
(424,710,l),
(340,752,l),
(320,715,l),
(295,721,o),
(269,725,o),
(241,728,c),
(197,614,l),
(220,612,o),
(241,609,o),
(262,605,c),
(246,576,l),
(330,534,l),
(350,572,l),
(392,547,o),
(420,511,o),
(427,464,c),
(409,464,l),
(392,492,o),
(357,510,o),
(292,510,cs),
(122,510,o),
(12,354,o),
(12,199,cs),
(12,62,o),
(100,-14,o),
(230,-14,cs)
);
},
{
closed = 1;
nodes = (
(180,106,o),
(140,140,o),
(140,206,cs),
(140,301,o),
(209,390,o),
(305,390,cs),
(370,390,o),
(410,353,o),
(410,290,cs),
(410,193,o),
(339,106,o),
(244,106,cs)
);
}
);
width = 612;
}
);
unicode = 240;
},
{
glyphname = e;
lastChange = "2025-01-15 15:05:09 +0000";
layers = (
{
anchors = (
{
name = bottom;
pos = (253,0);
},
{
name = ogonek;
pos = (500,10);
},
{
name = top;
pos = (336,496);
}
);
guides = (
{
pos = (0,176);
}
);
layerId = "CCBD71C2-CFAF-4DB2-A010-494EF6BDA443";
shapes = (
{
closed = 1;
nodes = (
(367,-14,o),
(437,48,o),
(475,126,c),
(411,162,l),
(385,106,o),
(336,59,o),
(242,59,cs),
(149,59,o),
(108,112,o),
(108,185,cs),
(108,199,o),
(110,213,o),
(112,224,c),
(510,224,l),
(521,271,ls),
(525,288,o),
(527,306,o),
(527,323,cs),
(527,419,o),
(465,510,o),
(331,510,cs),
(141,510,o),
(32,352,o),
(32,185,cs),
(32,60,o),
(117,-14,o),
(236,-14,cs)
);
},
{
closed = 1;
nodes = (
(156,376,o),
(228,436,o),
(321,436,cs),
(394,436,o),
(450,398,o),
(450,326,cs),
(450,317,o),
(449,307,o),
(447,296,c),
(129,296,l)
);
}
);
width = 612;
},
{
anchors = (
{
name = bottom;
pos = (253,0);
},
{
name = ogonek;
pos = (500,10);
},
{
name = top;
pos = (359,496);
}
);
guides = (
{
pos = (0,176);
}
);
layerId = "8275915C-4C26-4DD7-A30E-5590CD7E6050";
shapes = (
{
closed = 1;
nodes = (
(381,-14,o),
(449,48,o),
(481,100,c),
(381,163,l),
(361,133,o),
(325,106,o),
(263,106,cs),
(204,106,o),
(163,142,o),
(163,190,cs),
(163,196,o),
(164,203,o),
(165,207,c),
(529,207,l),
(540,258,ls),
(545,284,o),
(547,299,o),
(547,315,cs),
(547,413,o),
(482,510,o),
(343,510,cs),
(147,510,o),
(36,362,o),
(36,180,cs),
(36,66,o),
(123,-14,o),
(245,-14,cs)
);
},
{
closed = 1;
nodes = (
(212,360,o),
(261,396,o),
(323,396,cs),
(394,396,o),
(424,366,o),
(424,315,c),
(190,315,l)
);
}
);
width = 612;
}
);
unicode = 101;
},
{
glyphname = ecircumflexhookabove;
lastChange = "2025-01-15 13:17:44 +0000";
layers = (
{
associatedMasterId = "CCBD71C2-CFAF-4DB2-A010-494EF6BDA443";
layerId = "B5F68FDA-8C9D-4654-935C-D86EAB7081E6";
name = img;
width = 612;
},
{
layerId = "CCBD71C2-CFAF-4DB2-A010-494EF6BDA443";
shapes = (
{
closed = 1;
nodes = (
(540,658,l),
(540,726,l),
(546,726,l),
(554,706,o),
(572,694,o),
(598,694,cs),
(649,694,o),
(689,736,o),
(689,786,cs),
(689,834,o),
(653,870,o),
(603,870,cs),
(551,870,o),
(518,840,o),
(501,800,c),
(545,782,l),
(554,802,o),
(569,822,o),
(598,822,cs),
(621,822,o),
(634,806,o),
(634,784,cs),
(634,761,o),
(618,742,o),
(594,742,cs),
(582,742,o),
(573,746,o),
(568,756,c),
(496,756,l),
(491,750,l),
(491,658,l)
);
},
{
alignment = -1;
ref = e;
},
{
alignment = -1;
pos = (3,0);
ref = circumflex;
}
);
width = 612;
},
{
associatedMasterId = "8275915C-4C26-4DD7-A30E-5590CD7E6050";
layerId = "FC8D0C58-D0AA-48C3-A751-9F7FDF4FC4B7";
name = img;
width = 612;
},
{
layerId = "8275915C-4C26-4DD7-A30E-5590CD7E6050";
shapes = (
{
alignment = -1;
ref = e;
},
{
alignment = -1;
ref = circumflex;
},
{
alignment = -1;
pos = (323,0);
ref = hookabovecomb;
}
);
width = 612;
}
);
unicode = 7875;
},
{
glyphname = ehookabove;
lastChange = "2025-01-15 13:17:44 +0000";
layers = (
{
associatedMasterId = "CCBD71C2-CFAF-4DB2-A010-494EF6BDA443";
layerId = "B5F68FDA-8C9D-4654-935C-D86EAB7081E6";
name = img;
width = 612;
},
{
guides = (
{
angle = 90;
pos = (321,0);
},
{
angle = 90;
pos = (331,0);
}
);
layerId = "CCBD71C2-CFAF-4DB2-A010-494EF6BDA443";
shapes = (
{
closed = 1;
nodes = (
(357,546,l),
(357,614,l),
(363,614,l),
(371,594,o),
(393,582,o),
(421,582,cs),
(469,582,o),
(505,624,o),
(505,674,cs),
(505,722,o),
(467,758,o),
(415,758,cs),
(361,758,o),
(333,728,o),
(317,688,c),
(362,670,l),
(369,694,o),
(385,710,o),
(409,710,cs),
(435,710,o),
(451,694,o),
(451,670,cs),
(451,644,o),
(437,629,o),
(413,629,cs),
(401,629,o),
(391,634,o),
(385,644,c),
(313,644,l),
(308,638,l),
(308,546,l)
);
},
{
alignment = -1;
ref = e;
}
);
width = 612;
},
{
associatedMasterId = "8275915C-4C26-4DD7-A30E-5590CD7E6050";
layerId = "5911FFE9-FAD3-44E5-A8A6-0D99F80698E0";
name = img;
width = 612;
},
{
layerId = "8275915C-4C26-4DD7-A30E-5590CD7E6050";
shapes = (
{
alignment = -1;
ref = e;
},
{
alignment = -1;
pos = (125,-112);
ref = hookabovecomb;
}
);
width = 612;
}
);
unicode = 7867;
},
{
glyphname = eogonek;
lastChange = "2025-01-15 13:13:32 +0000";
layers = (
{
associatedMasterId = "CCBD71C2-CFAF-4DB2-A010-494EF6BDA443";
layerId = "B5F68FDA-8C9D-4654-935C-D86EAB7081E6";
name = img;
width = 612;
},
{
layerId = "CCBD71C2-CFAF-4DB2-A010-494EF6BDA443";
shapes = (
{
closed = 1;
nodes = (
(340,-164,l),
(340,-98,l),
(253,-98,ls),
(238,-98,o),
(228,-80,o),
(247,-67,cs),
(382,22,ls),
(432,55,o),
(452,79,o),
(475,126,c),
(411,162,l),
(385,106,o),
(336,59,o),
(242,59,cs),
(149,59,o),
(108,112,o),
(108,185,cs),
(108,199,o),
(110,213,o),
(112,224,c),
(510,224,l),
(521,271,ls),
(525,288,o),
(527,306,o),
(527,323,cs),
(527,419,o),
(465,510,o),
(331,510,cs),
(141,510,o),
(32,352,o),
(32,185,cs),
(32,62,o),
(115,-10,o),
(225,-14,c),
(210,-25,ls),
(138,-78,o),
(165,-164,o),
(233,-164,cs)
);
},
{
closed = 1;
nodes = (
(156,376,o),
(228,436,o),
(321,436,cs),
(394,436,o),
(450,398,o),
(450,326,cs),
(450,317,o),
(449,307,o),
(447,296,c),
(129,296,l)
);
}
);
width = 612;
},
{
associatedMasterId = "8275915C-4C26-4DD7-A30E-5590CD7E6050";
layerId = "2BA17D15-93AF-4C0C-9CB9-566120F6F549";
name = img;
width = 612;
},
{
layerId = "8275915C-4C26-4DD7-A30E-5590CD7E6050";
shapes = (
{
closed = 1;
nodes = (
(344,-170,l),
(344,-86,l),
(295,-86,ls),
(284,-86,o),
(278,-79,o),
(278,-72,cs),
(278,-67,o),
(281,-62,o),
(286,-58,cs),
(408,27,ls),
(442,51,o),
(466,75,o),
(481,100,c),
(381,163,l),
(361,133,o),
(325,106,o),
(263,106,cs),
(204,106,o),
(163,142,o),
(163,190,cs),
(163,196,o),
(164,203,o),
(165,207,c),
(529,207,l),
(540,258,ls),
(545,284,o),
(547,299,o),
(547,315,cs),
(547,413,o),
(482,510,o),
(343,510,cs),
(147,510,o),
(36,362,o),
(36,180,cs),
(36,76,o),
(107,2,o),
(211,-11,c),
(196,-23,ls),
(169,-45,o),
(157,-72,o),
(157,-97,cs),
(157,-136,o),
(186,-170,o),
(234,-170,cs)
);
},
{
closed = 1;
nodes = (
(212,360,o),
(261,396,o),
(323,396,cs),
(394,396,o),
(424,366,o),
(424,315,c),
(190,315,l)
);
}
);
width = 612;
}
);
unicode = 281;
},
{
glyphname = ereversed;
lastChange = "2025-01-15 13:17:44 +0000";
layers = (
{
associatedMasterId = "CCBD71C2-CFAF-4DB2-A010-494EF6BDA443";
layerId = "B5F68FDA-8C9D-4654-935C-D86EAB7081E6";
name = img;
width = 612;
},
{
layerId = "CCBD71C2-CFAF-4DB2-A010-494EF6BDA443";
shapes = (
{
closed = 1;
nodes = (
(416,-14,o),
(535,135,o),
(535,289,cs),
(535,430,o),
(457,510,o),
(328,510,cs),
(164,510,o),
(78,389,o),
(54,279,cs),
(42,224,l),
(442,224,l),
(418,126,o),
(344,60,o),
(242,60,cs),
(148,60,o),
(118,103,o),
(109,162,c),
(31,142,l),
(47,40,o),
(117,-14,o),
(237,-14,cs)
);
},
{
closed = 1;
nodes = (
(161,382,o),
(235,436,o),
(317,436,cs),
(400,436,o),
(457,382,o),
(457,309,cs),
(457,308,o),
(457,305,o),
(456,296,c),
(139,296,l)
);
}
);
width = 612;
},
{
associatedMasterId = "8275915C-4C26-4DD7-A30E-5590CD7E6050";
layerId = "B27B76F3-49E4-4762-835F-CC1EE7B9FB07";
name = img;
width = 612;
},
{
layerId = "8275915C-4C26-4DD7-A30E-5590CD7E6050";
shapes = (
{
closed = 1;
nodes = (
(422,-14,o),
(541,118,o),
(541,272,cs),
(541,434,o),
(453,510,o),
(321,510,cs),
(153,510,o),
(69,394,o),
(44,274,cs),
(30,207,l),
(394,207,l),
(379,143,o),
(331,106,o),
(252,106,cs),
(196,106,o),
(171,127,o),
(154,164,c),
(33,105,l),
(46,55,o),
(109,-14,o),
(237,-14,cs)
);
},
{
closed = 1;
nodes = (
(199,362,o),
(239,396,o),
(311,396,c),
(374,396,o),
(410,356,o),
(415,315,c),
(181,315,l)
);
}
);
width = 612;
}
);
unicode = 600;
},
{
glyphname = f;
lastChange = "2025-01-15 13:13:32 +0000";
layers = (
{
layerId = "CCBD71C2-CFAF-4DB2-A010-494EF6BDA443";
shapes = (
{
closed = 1;
nodes = (
(171,-212,o),
(206,-189,o),
(217,-138,cs),
(337,424,l),
(526,424,l),
(526,496,l),
(353,496,l),
(374,598,ls),
(378,617,o),
(389,628,o),
(408,628,cs),
(574,628,l),
(574,700,l),
(395,700,ls),
(350,700,o),
(311,667,o),
(301,622,cs),
(275,496,l),
(106,496,l),
(106,424,l),
(259,424,l),
(143,-118,ls),
(141,-126,o),
(136,-133,o),
(126,-133,cs),
(117,-133,o),
(112,-128,o),
(108,-121,cs),
(66,-54,l),
(5,-93,l),
(49,-164,ls),
(67,-193,o),
(91,-212,o),
(134,-212,cs)
);
}
);
width = 612;
},
{
guides = (
{
pos = (0,-200);
},
{
pos = (0,-214);
}
);
layerId = "8275915C-4C26-4DD7-A30E-5590CD7E6050";
shapes = (
{
closed = 1;
nodes = (
(194,-212,o),
(239,-185,o),
(254,-120,cs),
(365,376,l),
(560,376,l),
(560,496,l),
(391,496,l),
(403,550,ls),
(407,569,o),
(417,580,o),
(436,580,cs),
(586,580,l),
(586,700,l),
(410,700,ls),
(353,700,o),
(299,655,o),
(287,598,cs),
(265,496,l),
(98,496,l),
(98,376,l),
(239,376,l),
(139,-74,l),
(127,-76,l),
(83,0,l),
(-14,-59,l),
(49,-160,ls),
(69,-193,o),
(109,-212,o),
(148,-212,cs)
);
}
);
width = 612;
}
);
unicode = 102;
},
{
glyphname = g;
lastChange = "2025-01-15 13:13:32 +0000";
layers = (
{
layerId = "CCBD71C2-CFAF-4DB2-A010-494EF6BDA443";
shapes = (
{
closed = 1;
nodes = (
(338,-200,ls),
(383,-200,o),
(422,-167,o),
(432,-122,cs),
(563,496,l),
(485,496,l),
(468,418,l),
(456,418,l),
(440,472,o),
(386,510,o),
(308,510,cs),
(140,510,o),
(24,370,o),
(24,186,cs),
(24,66,o),
(100,-14,o),
(215,-14,cs),
(284,-14,o),
(344,14,o),
(383,70,c),
(395,70,l),
(359,-98,ls),
(355,-117,o),
(344,-128,o),
(325,-128,cs),
(36,-128,l),
(36,-200,l)
);
},
{
closed = 1;
nodes = (
(150,60,o),
(105,112,o),
(105,194,cs),
(105,320,o),
(184,436,o),
(310,436,cs),
(388,436,o),
(439,380,o),
(439,298,cs),
(439,180,o),
(354,60,o),
(232,60,cs)
);
}
);
width = 612;
},
{
layerId = "8275915C-4C26-4DD7-A30E-5590CD7E6050";
shapes = (
{
closed = 1;
nodes = (
(375,-200,ls),
(420,-200,o),
(459,-167,o),
(469,-122,cs),
(600,496,l),
(474,496,l),
(459,424,l),
(441,424,l),
(430,476,o),
(390,510,o),
(309,510,cs),
(120,510,o),
(22,346,o),
(22,180,cs),
(22,50,o),
(98,-14,o),
(194,-14,cs),
(294,-14,o),
(338,28,o),
(366,72,c),
(384,72,l),
(358,-50,ls),
(354,-69,o),
(344,-80,o),
(325,-80,cs),
(67,-80,l),
(67,-200,l)
);
},
{
closed = 1;
nodes = (
(195,106,o),
(152,142,o),
(152,212,cs),
(152,304,o),
(218,390,o),
(319,390,cs),
(386,390,o),
(426,352,o),
(426,288,cs),
(426,192,o),
(355,106,o),
(259,106,cs)
);
}
);
width = 612;
}
);
unicode = 103;
},
{
glyphname = gcommaaccent;
lastChange = "2025-01-15 13:17:44 +0000";
layers = (
{
associatedMasterId = "CCBD71C2-CFAF-4DB2-A010-494EF6BDA443";
layerId = "B5F68FDA-8C9D-4654-935C-D86EAB7081E6";
name = img;
width = 612;
},
{
layerId = "CCBD71C2-CFAF-4DB2-A010-494EF6BDA443";
shapes = (
{
alignment = -1;
ref = g;
},
{
alignment = -1;
pos = (-8,106);
ref = quoteleft;
}
);
width = 612;
},
{
associatedMasterId = "8275915C-4C26-4DD7-A30E-5590CD7E6050";
layerId = "04FDC03B-F04A-45C0-8825-219B71AF3BAC";
name = img;
width = 612;
},
{
layerId = "8275915C-4C26-4DD7-A30E-5590CD7E6050";
shapes = (
{
closed = 1;
nodes = (
(394,574,o),
(435,612,o),
(435,664,cs),
(435,724,o),
(390,748,o),
(347,748,c),
(350,766,l),
(354,785,o),
(365,790,o),
(386,790,cs),
(453,790,l),
(453,868,l),
(380,868,ls),
(328,868,o),
(289,846,o),
(279,798,cs),
(256,684,ls),
(255,678,o),
(254,671,o),
(254,665,cs),
(254,614,o),
(295,574,o),
(345,574,cs)
);
},
{
alignment = -1;
ref = g;
}
);
width = 612;
}
);
unicode = 291;
},
{
glyphname = h;
lastChange = "2025-01-15 13:13:32 +0000";
layers = (
{
layerId = "CCBD71C2-CFAF-4DB2-A010-494EF6BDA443";
shapes = (
{
closed = 1;
nodes = (
(478,-14,o),
(501,-7,o),
(518,5,cs),
(564,38,l),
(522,97,l),
(483,69,ls),
(478,65,o),
(474,64,o),
(471,64,cs),
(461,64,o),
(456,70,o),
(458,79,cs),
(502,288,ls),
(507,311,o),
(509,332,o),
(509,352,cs),
(509,452,o),
(444,510,o),
(356,510,cs),
(290,510,o),
(234,484,o),
(201,422,c),
(189,422,l),
(249,714,l),
(174,714,l),
(22,0,l),
(99,0,l),
(154,258,ls),
(177,366,o),
(238,436,o),
(328,436,cs),
(388,436,o),
(434,409,o),
(434,340,cs),
(434,326,o),
(432,313,o),
(428,294,cs),
(382,86,ls),
(380,76,o),
(379,68,o),
(379,60,cs),
(379,9,o),
(416,-14,o),
(457,-14,cs)
);
}
);
width = 612;
},
{
layerId = "8275915C-4C26-4DD7-A30E-5590CD7E6050";
shapes = (
{
closed = 1;
nodes = (
(483,-14,o),
(511,-6,o),
(537,12,cs),
(612,62,l),
(549,156,l),
(485,112,l),
(475,119,l),
(515,306,ls),
(519,327,o),
(522,347,o),
(522,365,cs),
(522,459,o),
(463,510,o),
(381,510,cs),
(319,510,o),
(270,484,o),
(235,428,c),
(217,428,l),
(278,714,l),
(152,714,l),
(0,0,l),
(126,0,l),
(182,264,ls),
(199,344,o),
(243,396,o),
(311,396,cs),
(359,396,o),
(389,368,o),
(389,320,cs),
(389,310,o),
(388,303,o),
(385,288,cs),
(350,126,ls),
(347,112,o),
(346,104,o),
(346,94,cs),
(346,27,o),
(397,-14,o),
(456,-14,cs)
);
}
);
width = 612;
}
);
unicode = 104;
},
{
glyphname = hbar;
lastChange = "2025-01-15 13:13:32 +0000";
layers = (
{
associatedMasterId = "CCBD71C2-CFAF-4DB2-A010-494EF6BDA443";
layerId = "B5F68FDA-8C9D-4654-935C-D86EAB7081E6";
name = img;
width = 612;
},
{
layerId = "CCBD71C2-CFAF-4DB2-A010-494EF6BDA443";
shapes = (
{
closed = 1;
nodes = (
(478,-14,o),
(501,-7,o),
(518,5,cs),
(564,38,l),
(522,97,l),
(483,69,ls),
(478,65,o),
(474,64,o),
(471,64,cs),
(461,64,o),
(456,70,o),
(458,79,cs),
(502,288,ls),
(507,311,o),
(509,332,o),
(509,352,cs),
(509,452,o),
(444,510,o),
(356,510,cs),
(290,510,o),
(234,484,o),
(201,422,c),
(189,422,l),
(217,562,l),
(405,562,l),
(405,634,l),
(232,634,l),
(246,700,l),
(171,700,l),
(157,634,l),
(89,634,l),
(89,562,l),
(141,562,l),
(22,0,l),
(99,0,l),
(154,258,ls),
(177,366,o),
(238,436,o),
(328,436,cs),
(388,436,o),
(434,409,o),
(434,340,cs),
(434,326,o),
(432,313,o),
(428,294,cs),
(382,86,ls),
(380,76,o),
(379,68,o),
(379,60,cs),
(379,9,o),
(416,-14,o),
(457,-14,cs)
);
}
);
width = 612;
},
{
associatedMasterId = "8275915C-4C26-4DD7-A30E-5590CD7E6050";
layerId = "EB44EBF5-0B79-4D52-BCFA-C01CD7D9DADF";
name = img;
width = 612;
},
{
guides = (
{
angle = 90;
pos = (381,0);
}
);
layerId = "8275915C-4C26-4DD7-A30E-5590CD7E6050";
shapes = (
{
closed = 1;
nodes = (
(483,-14,o),
(511,-6,o),
(537,12,cs),
(612,62,l),
(549,156,l),
(485,112,l),
(475,119,l),
(515,306,ls),
(519,327,o),
(522,347,o),
(522,365,cs),
(522,459,o),
(463,510,o),
(381,510,cs),
(319,510,o),
(270,484,o),
(235,428,c),
(217,428,l),
(240,538,l),
(381,538,l),
(381,652,l),
(265,652,l),
(278,714,l),
(152,714,l),
(139,652,l),
(66,652,l),
(66,538,l),
(114,538,l),
(0,0,l),
(126,0,l),
(182,264,ls),
(199,344,o),
(243,396,o),
(311,396,cs),
(359,396,o),
(389,368,o),
(389,320,cs),
(389,310,o),
(388,303,o),
(385,288,cs),
(350,126,ls),
(347,112,o),
(346,104,o),
(346,94,cs),
(346,27,o),
(397,-14,o),
(456,-14,cs)
);
}
);
width = 612;
}
);
unicode = 295;
},
{
glyphname = hturned;
lastChange = "2025-01-15 13:17:44 +0000";
layers = (
{
associatedMasterId = "CCBD71C2-CFAF-4DB2-A010-494EF6BDA443";
layerId = "B5F68FDA-8C9D-4654-935C-D86EAB7081E6";
name = img;
width = 612;
},
{
layerId = "CCBD71C2-CFAF-4DB2-A010-494EF6BDA443";
shapes = (
{
closed = 1;
nodes = (
(416,-200,l),
(564,496,l),
(487,496,l),
(432,238,ls),
(409,130,o),
(348,60,o),
(258,60,cs),
(198,60,o),
(152,87,o),
(152,156,cs),
(152,170,o),
(154,182,o),
(158,202,cs),
(204,410,ls),
(206,420,o),
(207,428,o),
(207,436,cs),
(207,487,o),
(170,510,o),
(129,510,cs),
(108,510,o),
(85,503,o),
(68,491,cs),
(22,458,l),
(64,399,l),
(103,427,ls),
(108,431,o),
(113,432,o),
(116,432,cs),
(124,432,o),
(130,426,o),
(128,417,cs),
(84,208,ls),
(79,185,o),
(77,164,o),
(77,144,cs),
(77,44,o),
(142,-14,o),
(230,-14,cs),
(296,-14,o),
(352,12,o),
(385,74,c),
(397,74,l),
(341,-200,l)
);
}
);
width = 612;
},
{
associatedMasterId = "8275915C-4C26-4DD7-A30E-5590CD7E6050";
layerId = "F51A2CDA-2F8C-4086-B7AA-5EB3241A4CF0";
name = img;
width = 612;
},
{
layerId = "8275915C-4C26-4DD7-A30E-5590CD7E6050";
shapes = (
{
closed = 1;
nodes = (
(459,-200,l),
(607,496,l),
(481,496,l),
(425,232,ls),
(408,152,o),
(364,100,o),
(296,100,cs),
(248,100,o),
(218,128,o),
(218,176,cs),
(218,186,o),
(219,194,o),
(222,208,cs),
(257,370,ls),
(260,383,o),
(261,392,o),
(261,402,cs),
(261,469,o),
(210,510,o),
(151,510,cs),
(124,510,o),
(96,502,o),
(70,484,cs),
(-5,434,l),
(58,340,l),
(122,384,l),
(132,377,l),
(92,190,ls),
(88,169,o),
(85,149,o),
(85,131,cs),
(85,37,o),
(144,-14,o),
(226,-14,cs),
(288,-14,o),
(337,12,o),
(372,68,c),
(390,68,l),
(333,-200,l)
);
}
);
width = 612;
}
);
unicode = 613;
},
{
glyphname = i;
lastChange = "2025-01-15 13:13:32 +0000";
layers = (
{
guides = (
{
pos = (0,510);
},
{
pos = (0,434);
}
);
layerId = "CCBD71C2-CFAF-4DB2-A010-494EF6BDA443";
shapes = (
{
closed = 1;
nodes = (
(315,-14,o),
(339,-7,o),
(360,7,cs),
(475,85,l),
(435,144,l),
(320,66,ls),
(315,63,o),
(310,61,o),
(305,61,cs),
(293,61,o),
(284,71,o),
(288,87,cs),
(362,396,ls),
(365,408,o),
(366,418,o),
(366,428,cs),
(366,483,o),
(327,510,o),
(282,510,cs),
(259,510,o),
(236,503,o),
(215,489,cs),
(97,409,l),
(137,350,l),
(254,430,ls),
(259,433,o),
(264,434,o),
(269,434,cs),
(284,434,o),
(290,422,o),
(287,409,cs),
(213,100,ls),
(210,88,o),
(209,78,o),
(209,68,cs),
(209,13,o),
(248,-14,o),
(293,-14,cs)
);
},
{
closed = 1;
nodes = (
(411,574,o),
(443,606,o),
(443,644,cs),
(443,682,o),
(411,714,o),
(373,714,cs),
(335,714,o),
(303,682,o),
(303,644,cs),
(303,606,o),
(335,574,o),
(373,574,cs)
);
}
);
width = 612;
},
{
guides = (
{
pos = (0,510);
},
{
pos = (0,434);
}
);
layerId = "8275915C-4C26-4DD7-A30E-5590CD7E6050";
shapes = (
{
closed = 1;
nodes = (
(325,-14,o),
(354,-6,o),
(380,12,c),
(525,110,l),
(462,204,l),
(328,112,l),
(318,119,l),
(378,370,ls),
(381,382,o),
(382,394,o),
(382,405,cs),
(382,470,o),
(332,510,o),
(273,510,cs),
(246,510,o),
(217,502,o),
(191,484,cs),
(46,386,l),
(109,292,l),
(243,384,l),
(253,377,l),
(193,126,ls),
(190,114,o),
(189,102,o),
(189,91,cs),
(189,26,o),
(239,-14,o),
(298,-14,cs)
);
},
{
closed = 1;
nodes = (
(424,548,o),
(467,590,o),
(467,643,cs),
(467,696,o),
(424,738,o),
(372,738,cs),
(320,738,o),
(277,696,o),
(277,643,cs),
(277,590,o),
(320,548,o),
(372,548,cs)
);
}
);
width = 612;
}
);
unicode = 105;
},
{
glyphname = idotless;
lastChange = "2025-01-15 13:17:44 +0000";
layers = (
{
associatedMasterId = "CCBD71C2-CFAF-4DB2-A010-494EF6BDA443";
layerId = "B5F68FDA-8C9D-4654-935C-D86EAB7081E6";
name = img;
width = 612;
},
{
layerId = "CCBD71C2-CFAF-4DB2-A010-494EF6BDA443";
shapes = (
{
closed = 1;
nodes = (
(315,-14,o),
(339,-7,o),
(360,7,cs),
(475,85,l),
(435,144,l),
(320,66,ls),
(315,63,o),
(310,61,o),
(305,61,cs),
(293,61,o),
(284,71,o),
(288,87,cs),
(362,396,ls),
(365,408,o),
(366,418,o),
(366,428,cs),
(366,483,o),
(327,510,o),
(282,510,cs),
(259,510,o),
(236,503,o),
(215,489,cs),
(97,409,l),
(137,350,l),
(254,430,ls),
(259,433,o),
(264,434,o),
(269,434,cs),
(284,434,o),
(290,422,o),
(287,409,cs),
(213,100,ls),
(210,88,o),
(209,78,o),
(209,68,cs),
(209,13,o),
(248,-14,o),
(293,-14,cs)
);
}
);
width = 612;
},
{
layerId = "8275915C-4C26-4DD7-A30E-5590CD7E6050";
shapes = (
{
closed = 1;
nodes = (
(325,-14,o),
(354,-6,o),
(380,12,c),
(525,110,l),
(462,204,l),
(328,112,l),
(318,119,l),
(378,370,ls),
(381,382,o),
(382,394,o),
(382,405,cs),
(382,470,o),
(332,510,o),
(273,510,cs),
(246,510,o),
(217,502,o),
(191,484,cs),
(46,386,l),
(109,292,l),
(243,384,l),
(253,377,l),
(193,126,ls),
(190,114,o),
(189,102,o),
(189,91,cs),
(189,26,o),
(239,-14,o),
(298,-14,cs)
);
}
);
width = 612;
}
);
unicode = 305;
},
{
glyphname = ihookabove;
lastChange = "2025-01-15 13:17:44 +0000";
layers = (
{
associatedMasterId = "CCBD71C2-CFAF-4DB2-A010-494EF6BDA443";
layerId = "B5F68FDA-8C9D-4654-935C-D86EAB7081E6";
name = img;
width = 612;
},
{
layerId = "CCBD71C2-CFAF-4DB2-A010-494EF6BDA443";
shapes = (
{
closed = 1;
nodes = (
(359,546,l),
(359,614,l),
(365,614,l),
(373,594,o),
(391,582,o),
(417,582,cs),
(468,582,o),
(508,624,o),
(508,674,cs),
(508,722,o),
(472,758,o),
(422,758,cs),
(370,758,o),
(337,728,o),
(320,688,c),
(364,670,l),
(373,690,o),
(388,710,o),
(417,710,cs),
(440,710,o),
(453,694,o),
(453,672,cs),
(453,649,o),
(437,630,o),
(413,630,cs),
(401,630,o),
(392,634,o),
(387,644,c),
(315,644,l),
(310,638,l),
(310,546,l)
);
},
{
alignment = -1;
ref = idotless;
}
);
width = 612;
},
{
associatedMasterId = "8275915C-4C26-4DD7-A30E-5590CD7E6050";
layerId = "A1FD920A-69EC-4CA9-82C9-EA37FBF2EA00";
name = img;
width = 612;
},
{
layerId = "8275915C-4C26-4DD7-A30E-5590CD7E6050";
shapes = (
{
alignment = -1;
ref = idotless;
},
{
alignment = -1;
pos = (107,-112);
ref = hookabovecomb;
}
);
width = 612;
}
);
unicode = 7881;
},
{
glyphname = iogonek;
lastChange = "2025-01-15 13:13:32 +0000";
layers = (
{
associatedMasterId = "CCBD71C2-CFAF-4DB2-A010-494EF6BDA443";
layerId = "B5F68FDA-8C9D-4654-935C-D86EAB7081E6";
name = img;
width = 612;
},
{
layerId = "CCBD71C2-CFAF-4DB2-A010-494EF6BDA443";
shapes = (
{
closed = 1;
nodes = (
(344,-164,l),
(344,-98,l),
(257,-98,ls),
(247,-98,o),
(241,-91,o),
(241,-83,cs),
(241,-78,o),
(244,-72,o),
(251,-67,cs),
(475,85,l),
(435,144,l),
(320,66,ls),
(315,63,o),
(310,61,o),
(305,61,cs),
(293,61,o),
(284,71,o),
(288,87,cs),
(362,396,ls),
(365,408,o),
(366,418,o),
(366,428,cs),
(366,483,o),
(327,510,o),
(282,510,cs),
(259,510,o),
(236,503,o),
(215,489,cs),
(97,409,l),
(137,350,l),
(254,430,ls),
(259,433,o),
(264,434,o),
(269,434,cs),
(284,434,o),
(290,422,o),
(287,409,cs),
(213,100,ls),
(210,88,o),
(209,78,o),
(209,68,cs),
(209,35,o),
(224,11,o),
(246,-1,c),
(214,-25,ls),
(184,-47,o),
(171,-74,o),
(171,-99,cs),
(171,-134,o),
(197,-164,o),
(237,-164,cs)
);
},
{
closed = 1;
nodes = (
(411,574,o),
(443,606,o),
(443,644,cs),
(443,682,o),
(411,714,o),
(373,714,cs),
(335,714,o),
(303,682,o),
(303,644,cs),
(303,606,o),
(335,574,o),
(373,574,cs)
);
}
);
width = 612;
},
{
associatedMasterId = "8275915C-4C26-4DD7-A30E-5590CD7E6050";
layerId = "C8FFEB9C-D9B5-4D3F-8400-A598482AB608";
name = img;
width = 612;
},
{
layerId = "8275915C-4C26-4DD7-A30E-5590CD7E6050";
shapes = (
{
closed = 1;
nodes = (
(352,-170,l),
(352,-86,l),
(289,-86,ls),
(278,-86,o),
(272,-80,o),
(272,-72,cs),
(272,-66,o),
(274,-62,o),
(280,-58,cs),
(525,110,l),
(462,204,l),
(328,112,l),
(318,119,l),
(378,370,ls),
(381,382,o),
(382,394,o),
(382,405,cs),
(382,470,o),
(332,510,o),
(273,510,cs),
(246,510,o),
(217,502,o),
(191,484,cs),
(46,386,l),
(109,292,l),
(243,384,l),
(253,377,l),
(193,126,ls),
(190,114,o),
(189,102,o),
(189,91,cs),
(189,53,o),
(205,24,o),
(230,6,c),
(190,-23,ls),
(162,-44,o),
(149,-70,o),
(149,-95,cs),
(149,-135,o),
(180,-170,o),
(228,-170,c)
);
},
{
closed = 1;
nodes = (
(424,548,o),
(467,590,o),
(467,643,cs),
(467,696,o),
(424,738,o),
(372,738,cs),
(320,738,o),
(277,696,o),
(277,643,cs),
(277,590,o),
(320,548,o),
(372,548,cs)
);
}
);
width = 612;
}
);
unicode = 303;
},
{
glyphname = ij;
lastChange = "2025-01-15 13:13:32 +0000";
layers = (
{
associatedMasterId = "CCBD71C2-CFAF-4DB2-A010-494EF6BDA443";
layerId = "B5F68FDA-8C9D-4654-935C-D86EAB7081E6";
name = img;
width = 612;
},
{
layerId = "CCBD71C2-CFAF-4DB2-A010-494EF6BDA443";
shapes = (
{
closed = 1;
nodes = (
(342,-200,ls),
(387,-200,o),
(426,-167,o),
(435,-122,cs),
(566,496,l),
(488,496,l),
(434,238,ls),
(411,130,o),
(342,60,o),
(250,60,cs),
(184,60,o),
(151,89,o),
(151,152,cs),
(151,169,o),
(153,188,o),
(158,210,cs),
(198,401,ls),
(200,411,o),
(201,419,o),
(201,427,cs),
(201,478,o),
(164,510,o),
(120,510,cs),
(100,510,o),
(78,503,o),
(57,489,cs),
(5,454,l),
(45,395,l),
(96,430,ls),
(101,434,o),
(105,435,o),
(109,435,cs),
(119,435,o),
(126,427,o),
(123,414,cs),
(78,200,ls),
(73,176,o),
(71,158,o),
(71,139,cs),
(71,42,o),
(129,-14,o),
(218,-14,cs),
(294,-14,o),
(348,18,o),
(388,78,c),
(400,78,l),
(362,-98,ls),
(358,-117,o),
(348,-128,o),
(329,-128,cs),
(134,-128,l),
(134,-200,l)
);
},
{
closed = 1;
nodes = (
(246,574,o),
(278,606,o),
(278,644,cs),
(278,682,o),
(246,714,o),
(208,714,cs),
(170,714,o),
(138,682,o),
(138,644,cs),
(138,606,o),
(170,574,o),
(208,574,cs)
);
},
{
closed = 1;
nodes = (
(591,574,o),
(623,606,o),
(623,644,cs),
(623,682,o),
(591,714,o),
(553,714,cs),
(515,714,o),
(483,682,o),
(483,644,cs),
(483,606,o),
(515,574,o),
(553,574,cs)
);
}
);
width = 612;
},
{
associatedMasterId = "8275915C-4C26-4DD7-A30E-5590CD7E6050";
layerId = "EED589FD-0543-447E-AAFB-C23665E25F0A";
name = img;
width = 612;
},
{
layerId = "8275915C-4C26-4DD7-A30E-5590CD7E6050";
shapes = (
{
closed = 1;
nodes = (
(368,-200,ls),
(413,-200,o),
(452,-167,o),
(461,-122,cs),
(592,496,l),
(466,496,l),
(411,236,ls),
(392,148,o),
(357,100,o),
(285,100,cs),
(235,100,o),
(203,127,o),
(203,177,cs),
(203,187,o),
(205,198,o),
(207,208,cs),
(243,374,ls),
(245,384,o),
(246,393,o),
(246,404,cs),
(246,470,o),
(195,510,o),
(136,510,cs),
(110,510,o),
(82,502,o),
(57,485,cs),
(-16,436,l),
(47,342,l),
(107,384,l),
(117,377,l),
(78,192,ls),
(74,173,o),
(72,156,o),
(72,140,cs),
(72,42,o),
(138,-14,o),
(217,-14,cs),
(285,-14,o),
(329,12,o),
(358,72,c),
(376,72,l),
(350,-50,ls),
(346,-69,o),
(336,-80,o),
(317,-80,cs),
(132,-80,l),
(132,-200,l)
);
},
{
closed = 1;
nodes = (
(285,548,o),
(328,590,o),
(328,643,cs),
(328,696,o),
(285,738,o),
(233,738,cs),
(181,738,o),
(138,696,o),
(138,643,cs),
(138,590,o),
(181,548,o),
(233,548,cs)
);
},
{
closed = 1;
nodes = (
(607,548,o),
(650,590,o),
(650,643,cs),
(650,696,o),
(607,738,o),
(555,738,cs),
(503,738,o),
(460,696,o),
(460,643,cs),
(460,590,o),
(503,548,o),
(555,548,cs)
);
}
);
width = 612;
}
);
unicode = 307;
},
{
glyphname = j;
lastChange = "2025-01-15 13:13:32 +0000";
layers = (
{
guides = (
{
pos = (0,510);
}
);
layerId = "CCBD71C2-CFAF-4DB2-A010-494EF6BDA443";
shapes = (
{
closed = 1;
nodes = (
(223,-200,ls),
(268,-200,o),
(307,-167,o),
(316,-122,cs),
(427,401,l),
(429,411,o),
(430,419,o),
(430,427,cs),
(430,478,o),
(393,510,o),
(349,510,cs),
(329,510,o),
(307,503,o),
(286,489,cs),
(168,409,l),
(208,350,l),
(325,430,ls),
(328,432,o),
(332,434,o),
(337,434,cs),
(346,434,o),
(355,427,o),
(352,412,cs),
(243,-98,ls),
(239,-117,o),
(229,-128,o),
(210,-128,cs),
(0,-128,l),
(0,-200,l)
);
},
{
closed = 1;
nodes = (
(469,574,o),
(501,606,o),
(501,644,cs),
(501,682,o),
(469,714,o),
(431,714,cs),
(393,714,o),
(361,682,o),
(361,644,cs),
(361,606,o),
(393,574,o),
(431,574,cs)
);
}
);
width = 612;
},
{
guides = (
{
pos = (0,510);
}
);
layerId = "8275915C-4C26-4DD7-A30E-5590CD7E6050";
shapes = (
{
closed = 1;
nodes = (
(235,-200,ls),
(295,-200,o),
(342,-167,o),
(357,-98,cs),
(461,370,ls),
(463,380,o),
(464,392,o),
(464,402,cs),
(464,470,o),
(415,510,o),
(356,510,cs),
(329,510,o),
(301,502,o),
(274,484,cs),
(129,386,l),
(192,292,l),
(326,384,l),
(336,377,l),
(242,-47,ls),
(237,-68,o),
(226,-80,o),
(205,-80,cs),
(0,-80,l),
(0,-200,l)
);
},
{
closed = 1;
nodes = (
(506,548,o),
(549,590,o),
(549,643,cs),
(549,696,o),
(506,738,o),
(454,738,cs),
(402,738,o),
(359,696,o),
(359,643,cs),
(359,590,o),
(402,548,o),
(454,548,cs)
);
}
);
width = 612;
}
);
unicode = 106;
},
{
glyphname = jdotless;
lastChange = "2025-01-15 14:42:19 +0000";
layers = (
{
anchors = (
{
name = bottom;
pos = (211,-200);
},
{
name = top;
pos = (359,496);
}
);
layerId = "CCBD71C2-CFAF-4DB2-A010-494EF6BDA443";
shapes = (
{
closed = 1;
nodes = (
(223,-200,ls),
(268,-200,o),
(307,-167,o),
(316,-122,cs),
(427,401,ls),
(429,411,o),
(430,419,o),
(430,427,cs),
(430,478,o),
(393,510,o),
(349,510,cs),
(329,510,o),
(307,503,o),
(286,489,cs),
(168,409,l),
(208,350,l),
(325,430,ls),
(328,432,o),
(332,434,o),
(337,434,cs),
(346,434,o),
(355,427,o),
(352,412,cs),
(243,-98,ls),
(239,-117,o),
(229,-128,o),
(210,-128,cs),
(0,-128,l),
(0,-200,l)
);
}
);
width = 612;
},
{
anchors = (
{
name = bottom;
pos = (200,-250);
},
{
name = top;
pos = (359,496);
}
);
layerId = "8275915C-4C26-4DD7-A30E-5590CD7E6050";
shapes = (
{
closed = 1;
nodes = (
(235,-200,ls),
(295,-200,o),
(342,-167,o),
(357,-98,cs),
(461,370,ls),
(463,380,o),
(464,392,o),
(464,402,cs),
(464,470,o),
(415,510,o),
(356,510,cs),
(329,510,o),
(301,502,o),
(274,484,cs),
(129,386,l),
(192,292,l),
(326,384,l),
(336,377,l),
(242,-47,ls),
(237,-68,o),
(226,-80,o),
(205,-80,cs),
(0,-80,l),
(0,-200,l)
);
}
);
width = 612;
}
);
unicode = 567;
},
{
glyphname = jcircumflex;
lastChange = "2025-01-15 13:13:32 +0000";
layers = (
{
associatedMasterId = "CCBD71C2-CFAF-4DB2-A010-494EF6BDA443";
layerId = "B5F68FDA-8C9D-4654-935C-D86EAB7081E6";
name = img;
width = 612;
},
{
layerId = "CCBD71C2-CFAF-4DB2-A010-494EF6BDA443";
shapes = (
{
closed = 1;
nodes = (
(223,-200,ls),
(268,-200,o),
(307,-167,o),
(316,-122,cs),
(427,401,ls),
(429,411,o),
(430,419,o),
(430,427,cs),
(430,478,o),
(393,510,o),
(349,510,cs),
(329,510,o),
(307,503,o),
(286,489,cs),
(168,409,l),
(208,350,l),
(325,430,ls),
(328,432,o),
(332,434,o),
(337,434,cs),
(346,434,o),
(355,427,o),
(352,412,cs),
(243,-98,ls),
(239,-117,o),
(229,-128,o),
(210,-128,cs),
(0,-128,l),
(0,-200,l)
);
},
{
alignment = -1;
pos = (31,0);
ref = circumflex;
}
);
width = 612;
},
{
associatedMasterId = "8275915C-4C26-4DD7-A30E-5590CD7E6050";
layerId = "ED58C21D-63D8-41EA-94A5-B11A6E47F702";
name = img;
width = 612;
},
{
layerId = "8275915C-4C26-4DD7-A30E-5590CD7E6050";
shapes = (
{
closed = 1;
nodes = (
(235,-200,ls),
(295,-200,o),
(342,-167,o),
(357,-98,cs),
(461,370,l),
(463,381,o),
(464,392,o),
(464,402,cs),
(464,470,o),
(415,510,o),
(356,510,cs),
(329,510,o),
(301,502,o),
(274,484,cs),
(129,386,l),
(192,292,l),
(326,384,l),
(336,377,l),
(242,-47,ls),
(237,-68,o),
(226,-80,o),
(205,-80,cs),
(0,-80,l),
(0,-200,l)
);
},
{
alignment = -1;
pos = (44,0);
ref = circumflex;
}
);
width = 612;
}
);
unicode = 309;
},
{
glyphname = k;
lastChange = "2025-01-15 13:13:32 +0000";
layers = (
{
layerId = "CCBD71C2-CFAF-4DB2-A010-494EF6BDA443";
shapes = (
{
closed = 1;
nodes = (
(438,-14,o),
(459,-5,o),
(477,9,cs),
(522,43,l),
(480,102,l),
(432,67,ls),
(428,64,o),
(424,62,o),
(419,62,cs),
(414,62,o),
(410,64,o),
(406,69,cs),
(277,245,l),
(277,263,l),
(498,457,l),
(450,508,l),
(202,290,l),
(190,290,l),
(279,713,l),
(201,713,l),
(50,0,l),
(128,0,l),
(174,218,l),
(204,218,l),
(342,29,ls),
(364,-1,o),
(390,-14,o),
(416,-14,cs)
);
}
);
width = 612;
},
{
layerId = "8275915C-4C26-4DD7-A30E-5590CD7E6050";
shapes = (
{
closed = 1;
nodes = (
(434,-14,o),
(466,-5,o),
(499,20,cs),
(544,54,l),
(483,142,l),
(428,104,l),
(416,104,l),
(336,236,l),
(336,254,l),
(520,426,l),
(442,510,l),
(241,314,l),
(217,314,l),
(302,714,l),
(176,714,l),
(24,0,l),
(150,0,l),
(191,194,l),
(214,194,l),
(304,46,l),
(327,7,o),
(363,-14,o),
(405,-14,cs)
);
}
);
width = 612;
}
);
unicode = 107;
},
{
glyphname = kcommaaccent;
lastChange = "2025-01-15 13:17:44 +0000";
layers = (
{
associatedMasterId = "CCBD71C2-CFAF-4DB2-A010-494EF6BDA443";
layerId = "B5F68FDA-8C9D-4654-935C-D86EAB7081E6";
name = img;
width = 612;
},
{
layerId = "CCBD71C2-CFAF-4DB2-A010-494EF6BDA443";
shapes = (
{
alignment = -1;
ref = k;
},
{
alignment = -1;
pos = (-5,-170);
ref = comma;
}
);
width = 612;
},
{
associatedMasterId = "8275915C-4C26-4DD7-A30E-5590CD7E6050";
layerId = "2B9176B8-A386-4F31-9234-E1075FB20DA7";
name = img;
width = 612;
},
{
layerId = "8275915C-4C26-4DD7-A30E-5590CD7E6050";
shapes = (
{
closed = 1;
nodes = (
(220,-338,ls),
(272,-338,o),
(311,-316,o),
(321,-269,cs),
(345,-155,ls),
(346,-148,o),
(347,-141,o),
(347,-135,cs),
(347,-85,o),
(305,-44,o),
(256,-44,cs),
(206,-44,o),
(165,-83,o),
(165,-134,cs),
(165,-192,o),
(210,-218,o),
(253,-218,c),
(250,-237,ls),
(247,-256,o),
(236,-260,o),
(214,-260,cs),
(172,-260,l),
(172,-338,l)
);
},
{
alignment = -1;
pos = (6,0);
ref = k;
}
);
width = 612;
}
);
unicode = 311;
},
{
glyphname = kgreenlandic;
lastChange = "2025-01-15 13:13:32 +0000";
layers = (
{
associatedMasterId = "CCBD71C2-CFAF-4DB2-A010-494EF6BDA443";
layerId = "B5F68FDA-8C9D-4654-935C-D86EAB7081E6";
name = img;
width = 612;
},
{
layerId = "CCBD71C2-CFAF-4DB2-A010-494EF6BDA443";
shapes = (
{
closed = 1;
nodes = (
(438,-14,o),
(459,-5,o),
(477,9,cs),
(522,43,l),
(480,102,l),
(432,67,ls),
(428,64,o),
(424,62,o),
(419,62,cs),
(414,62,o),
(410,64,o),
(406,69,cs),
(277,245,l),
(277,263,l),
(498,457,l),
(450,508,l),
(202,290,l),
(190,290,l),
(233,496,l),
(155,496,l),
(50,0,l),
(128,0,l),
(174,218,l),
(204,218,l),
(342,29,ls),
(364,-1,o),
(390,-14,o),
(416,-14,cs)
);
}
);
width = 612;
},
{
associatedMasterId = "8275915C-4C26-4DD7-A30E-5590CD7E6050";
layerId = "84D0CCF6-76A4-4BCA-9E5B-AA6F9DD2EDBE";
name = img;
width = 612;
},
{
layerId = "8275915C-4C26-4DD7-A30E-5590CD7E6050";
shapes = (
{
closed = 1;
nodes = (
(434,-14,o),
(466,-5,o),
(499,20,cs),
(544,54,l),
(483,142,l),
(428,104,l),
(416,104,l),
(336,236,l),
(336,254,l),
(520,426,l),
(442,510,l),
(241,314,l),
(217,314,l),
(256,496,l),
(130,496,l),
(24,0,l),
(150,0,l),
(191,194,l),
(214,194,l),
(304,46,ls),
(327,7,o),
(363,-14,o),
(405,-14,cs)
);
}
);
width = 612;
}
);
unicode = 312;
},
{
glyphname = kturned;
lastChange = "2025-01-15 13:17:44 +0000";
layers = (
{
associatedMasterId = "CCBD71C2-CFAF-4DB2-A010-494EF6BDA443";
layerId = "B5F68FDA-8C9D-4654-935C-D86EAB7081E6";
name = img;
width = 612;
},
{
layerId = "CCBD71C2-CFAF-4DB2-A010-494EF6BDA443";
shapes = (
{
closed = 1;
nodes = (
(427,-212,o),
(449,-205,o),
(470,-191,cs),
(522,-156,l),
(482,-97,l),
(431,-132,ls),
(428,-134,o),
(425,-135,o),
(421,-135,cs),
(410,-135,o),
(402,-128,o),
(405,-112,cs),
(534,496,l),
(456,496,l),
(410,278,l),
(380,278,l),
(242,467,ls),
(219,498,o),
(194,510,o),
(168,510,cs),
(146,510,o),
(125,501,o),
(107,487,cs),
(62,453,l),
(104,394,l),
(152,429,ls),
(156,432,o),
(161,434,o),
(165,434,cs),
(171,434,o),
(174,432,o),
(178,427,cs),
(307,251,l),
(307,233,l),
(41,0,l),
(147,0,l),
(382,206,l),
(394,206,l),
(329,-103,ls),
(327,-113,o),
(326,-121,o),
(326,-129,cs),
(326,-181,o),
(363,-212,o),
(407,-212,cs)
);
}
);
width = 612;
},
{
layerId = "8275915C-4C26-4DD7-A30E-5590CD7E6050";
shapes = (
{
closed = 1;
nodes = (
(416,-200,l),
(564,496,l),
(438,496,l),
(397,302,l),
(374,302,l),
(284,450,ls),
(261,489,o),
(229,510,o),
(183,510,cs),
(154,510,o),
(121,500,o),
(89,476,cs),
(44,442,l),
(105,354,l),
(160,392,l),
(172,392,l),
(252,260,l),
(252,242,l),
(6,12,l),
(6,0,l),
(160,0,l),
(347,182,l),
(371,182,l),
(290,-200,l)
);
}
);
width = 612;
}
);
unicode = 670;
},
{
glyphname = l;
lastChange = "2025-01-15 13:13:32 +0000";
layers = (
{
layerId = "CCBD71C2-CFAF-4DB2-A010-494EF6BDA443";
shapes = (
{
closed = 1;
nodes = (
(285,-14,o),
(309,-7,o),
(330,7,cs),
(445,85,l),
(405,144,l),
(290,66,ls),
(285,63,o),
(281,61,o),
(275,61,cs),
(263,61,o),
(254,71,o),
(258,87,cs),
(379,600,ls),
(382,611,o),
(383,622,o),
(383,632,cs),
(383,687,o),
(343,714,o),
(299,714,cs),
(277,714,o),
(253,707,o),
(232,693,cs),
(114,613,l),
(154,554,l),
(271,634,ls),
(276,637,o),
(281,639,o),
(286,639,cs),
(299,639,o),
(308,630,o),
(304,614,cs),
(183,100,ls),
(180,89,o),
(179,78,o),
(179,68,cs),
(179,13,o),
(219,-14,o),
(263,-14,cs)
);
}
);
width = 612;
},
{
layerId = "8275915C-4C26-4DD7-A30E-5590CD7E6050";
shapes = (
{
closed = 1;
nodes = (
(318,-14,o),
(347,-6,o),
(373,12,c),
(518,110,l),
(455,204,l),
(321,112,l),
(311,119,l),
(420,574,ls),
(423,588,o),
(424,598,o),
(424,609,cs),
(424,674,o),
(374,714,o),
(315,714,cs),
(288,714,o),
(259,706,o),
(233,688,cs),
(88,590,l),
(151,496,l),
(285,588,l),
(295,581,l),
(186,126,ls),
(183,113,o),
(182,102,o),
(182,91,cs),
(182,26,o),
(232,-14,o),
(291,-14,cs)
);
}
);
width = 612;
}
);
unicode = 108;
},
{
glyphname = lcaron;
lastChange = "2025-01-15 13:13:32 +0000";
layers = (
{
associatedMasterId = "CCBD71C2-CFAF-4DB2-A010-494EF6BDA443";
layerId = "B5F68FDA-8C9D-4654-935C-D86EAB7081E6";
name = img;
width = 612;
},
{
layerId = "CCBD71C2-CFAF-4DB2-A010-494EF6BDA443";
shapes = (
{
alignment = -1;
ref = l;
},
{
alignment = -1;
pos = (137,-14);
ref = quoteright;
}
);
width = 612;
},
{
associatedMasterId = "8275915C-4C26-4DD7-A30E-5590CD7E6050";
layerId = "37B52864-0627-4E47-B731-769CF3252C42";
name = img;
width = 612;
},
{
layerId = "8275915C-4C26-4DD7-A30E-5590CD7E6050";
shapes = (
{
closed = 1;
nodes = (
(469,406,ls),
(521,406,o),
(560,428,o),
(570,476,cs),
(594,590,ls),
(595,596,o),
(596,603,o),
(596,609,cs),
(596,660,o),
(554,700,o),
(505,700,cs),
(455,700,o),
(414,662,o),
(414,610,cs),
(414,550,o),
(458,523,o),
(502,523,c),
(499,508,ls),
(496,491,o),
(485,484,o),
(466,484,cs),
(392,484,l),
(392,406,l)
);
},
{
alignment = -1;
pos = (-70,0);
ref = l;
}
);
width = 612;
}
);
unicode = 318;
},
{
glyphname = lcommaaccent;
lastChange = "2025-01-15 13:17:44 +0000";
layers = (
{
associatedMasterId = "CCBD71C2-CFAF-4DB2-A010-494EF6BDA443";
layerId = "B5F68FDA-8C9D-4654-935C-D86EAB7081E6";
name = img;
width = 612;
},
{
layerId = "CCBD71C2-CFAF-4DB2-A010-494EF6BDA443";
shapes = (
{
alignment = -1;
ref = l;
},
{
alignment = -1;
pos = (-51,-170);
ref = comma;
}
);
width = 612;
},
{
associatedMasterId = "8275915C-4C26-4DD7-A30E-5590CD7E6050";
layerId = "E81A4CCF-A902-4417-B4DA-4455D006ABF2";
name = img;
width = 612;
},
{
layerId = "8275915C-4C26-4DD7-A30E-5590CD7E6050";
shapes = (
{
closed = 1;
nodes = (
(197,-338,ls),
(249,-338,o),
(288,-316,o),
(298,-269,cs),
(322,-155,ls),
(323,-148,o),
(324,-141,o),
(324,-135,cs),
(324,-85,o),
(282,-44,o),
(233,-44,cs),
(183,-44,o),
(142,-83,o),
(142,-134,cs),
(142,-192,o),
(187,-218,o),
(230,-218,c),
(227,-237,ls),
(224,-256,o),
(213,-260,o),
(191,-260,cs),
(149,-260,l),
(149,-338,l)
);
},
{
alignment = -1;
ref = l;
}
);
width = 612;
}
);
unicode = 316;
},
{
glyphname = lslash;
lastChange = "2025-01-15 13:13:32 +0000";
layers = (
{
layerId = "CCBD71C2-CFAF-4DB2-A010-494EF6BDA443";
shapes = (
{
closed = 1;
nodes = (
(285,-14,o),
(309,-7,o),
(330,7,cs),
(445,85,l),
(405,144,l),
(290,66,ls),
(285,63,o),
(281,61,o),
(275,61,cs),
(263,61,o),
(254,71,o),
(258,87,cs),
(310,306,l),
(430,339,l),
(410,411,l),
(329,390,l),
(379,600,ls),
(382,611,o),
(383,622,o),
(383,632,cs),
(383,687,o),
(343,714,o),
(299,714,cs),
(277,714,o),
(253,707,o),
(232,693,cs),
(114,613,l),
(154,554,l),
(271,634,ls),
(276,637,o),
(281,639,o),
(286,639,cs),
(299,639,o),
(308,630,o),
(304,614,cs),
(246,368,l),
(140,340,l),
(160,266,l),
(226,284,l),
(183,100,ls),
(180,89,o),
(179,78,o),
(179,68,cs),
(179,13,o),
(219,-14,o),
(263,-14,cs)
);
}
);
width = 612;
},
{
associatedMasterId = "8275915C-4C26-4DD7-A30E-5590CD7E6050";
layerId = "20D1856F-ED80-4BCC-85F2-973FEC4B9D70";
name = img;
width = 612;
},
{
layerId = "8275915C-4C26-4DD7-A30E-5590CD7E6050";
shapes = (
{
closed = 1;
nodes = (
(318,-14,o),
(347,-6,o),
(373,12,cs),
(518,110,l),
(455,204,l),
(321,112,l),
(311,119,l),
(353,296,l),
(491,331,l),
(462,442,l),
(383,422,l),
(420,574,ls),
(423,588,o),
(424,598,o),
(424,609,cs),
(424,674,o),
(374,714,o),
(315,714,cs),
(288,714,o),
(259,706,o),
(233,688,cs),
(88,590,l),
(151,496,l),
(285,588,l),
(295,581,l),
(248,388,l),
(115,354,l),
(144,243,l),
(218,262,l),
(186,126,ls),
(183,113,o),
(182,102,o),
(182,91,cs),
(182,26,o),
(232,-14,o),
(291,-14,cs)
);
}
);
width = 612;
}
);
unicode = 322;
},
{
glyphname = m;
lastChange = "2025-01-15 13:13:32 +0000";
layers = (
{
guides = (
{
pos = (0,510);
}
);
layerId = "CCBD71C2-CFAF-4DB2-A010-494EF6BDA443";
shapes = (
{
closed = 1;
nodes = (
(515,-14,o),
(538,-7,o),
(553,4,cs),
(598,38,l),
(556,97,l),
(514,66,ls),
(510,63,o),
(507,62,o),
(503,62,cs),
(495,62,o),
(489,68,o),
(491,78,cs),
(555,376,ls),
(557,387,o),
(559,402,o),
(559,414,cs),
(559,471,o),
(527,510,o),
(468,510,cs),
(426,510,o),
(397,490,o),
(378,454,c),
(366,454,l),
(359,488,o),
(332,510,o),
(291,510,cs),
(254,510,o),
(220,492,o),
(206,454,c),
(194,454,l),
(203,496,l),
(125,496,l),
(20,0,l),
(97,0,l),
(174,360,ls),
(183,400,o),
(203,436,o),
(245,436,cs),
(278,436,o),
(289,417,o),
(289,393,cs),
(289,384,o),
(288,377,o),
(287,372,cs),
(208,0,l),
(286,0,l),
(363,360,ls),
(373,408,o),
(395,436,o),
(433,436,cs),
(464,436,o),
(478,416,o),
(478,390,cs),
(478,384,o),
(477,378,o),
(476,372,cs),
(414,78,l),
(413,72,o),
(412,65,o),
(412,58,cs),
(412,6,o),
(453,-14,o),
(492,-14,cs)
);
}
);
width = 612;
},
{
layerId = "8275915C-4C26-4DD7-A30E-5590CD7E6050";
shapes = (
{
closed = 1;
nodes = (
(515,-14,o),
(544,-6,o),
(570,12,cs),
(615,42,l),
(552,136,l),
(518,112,l),
(508,119,l),
(567,392,ls),
(569,403,o),
(570,409,o),
(570,418,cs),
(570,469,o),
(538,510,o),
(483,510,cs),
(435,510,o),
(405,484,o),
(391,448,c),
(373,448,l),
(366,482,o),
(345,510,o),
(301,510,cs),
(264,510,o),
(231,489,o),
(221,448,c),
(203,448,l),
(213,496,l),
(87,496,l),
(-18,0,l),
(107,0,l),
(183,354,ls),
(188,378,o),
(201,390,o),
(219,390,cs),
(235,390,o),
(245,380,o),
(245,362,cs),
(245,358,o),
(244,353,o),
(243,348,cs),
(169,0,l),
(295,0,l),
(371,354,ls),
(375,374,o),
(385,390,o),
(406,390,cs),
(424,390,o),
(433,380,o),
(433,362,cs),
(433,358,o),
(432,352,o),
(431,348,cs),
(385,130,ls),
(382,115,o),
(381,107,o),
(381,96,cs),
(381,27,o),
(431,-14,o),
(489,-14,cs)
);
}
);
width = 612;
}
);
unicode = 109;
},
{
glyphname = mturned;
lastChange = "2025-01-15 13:17:44 +0000";
layers = (
{
associatedMasterId = "CCBD71C2-CFAF-4DB2-A010-494EF6BDA443";
layerId = "B5F68FDA-8C9D-4654-935C-D86EAB7081E6";
name = img;
width = 612;
},
{
layerId = "CCBD71C2-CFAF-4DB2-A010-494EF6BDA443";
shapes = (
{
closed = 1;
nodes = (
(183,-14,o),
(210,6,o),
(232,48,c),
(244,48,l),
(247,10,o),
(277,-14,o),
(317,-14,cs),
(361,-14,o),
(392,4,o),
(412,48,c),
(424,48,l),
(432,10,o),
(464,-14,o),
(504,-14,cs),
(527,-14,o),
(551,-7,o),
(576,10,cs),
(618,38,l),
(578,97,l),
(527,62,ls),
(523,59,o),
(518,58,o),
(514,58,cs),
(504,58,o),
(497,66,o),
(500,80,cs),
(588,496,l),
(511,496,l),
(434,136,ls),
(425,96,o),
(405,60,o),
(363,60,cs),
(330,60,o),
(319,79,o),
(319,103,cs),
(319,110,o),
(319,114,o),
(321,124,cs),
(400,496,l),
(322,496,l),
(245,136,ls),
(235,88,o),
(213,60,o),
(175,60,cs),
(144,60,o),
(130,80,o),
(130,106,cs),
(130,112,o),
(131,118,o),
(132,124,cs),
(210,496,l),
(133,496,l),
(53,120,ls),
(50,106,o),
(48,90,o),
(48,79,cs),
(48,23,o),
(79,-14,o),
(139,-14,cs)
);
}
);
width = 612;
},
{
associatedMasterId = "8275915C-4C26-4DD7-A30E-5590CD7E6050";
layerId = "6093E2A1-EC86-4EED-9C67-A5DC186593B9";
name = img;
width = 612;
},
{
layerId = "8275915C-4C26-4DD7-A30E-5590CD7E6050";
shapes = (
{
closed = 1;
nodes = (
(150,-14,o),
(180,12,o),
(194,48,c),
(212,48,l),
(219,14,o),
(249,-14,o),
(293,-14,cs),
(330,-14,o),
(367,0,o),
(388,48,c),
(406,48,l),
(423,8,o),
(461,-14,o),
(504,-14,cs),
(530,-14,o),
(559,-5,o),
(585,12,cs),
(630,42,l),
(567,136,l),
(533,112,l),
(523,119,l),
(603,496,l),
(478,496,l),
(402,142,ls),
(397,118,o),
(384,106,o),
(366,106,cs),
(350,106,o),
(340,116,o),
(340,133,cs),
(340,138,o),
(341,143,o),
(342,148,cs),
(416,496,l),
(290,496,l),
(214,142,ls),
(210,122,o),
(200,106,o),
(179,106,cs),
(161,106,o),
(152,115,o),
(152,132,cs),
(152,137,o),
(153,143,o),
(154,148,cs),
(228,496,l),
(102,496,l),
(18,104,ls),
(16,94,o),
(15,87,o),
(15,78,cs),
(15,27,o),
(47,-14,o),
(102,-14,cs)
);
}
);
width = 612;
}
);
unicode = 623;
},
{
glyphname = n;
lastChange = "2025-01-15 13:13:32 +0000";
layers = (
{
guides = (
{
pos = (0,510);
}
);
layerId = "CCBD71C2-CFAF-4DB2-A010-494EF6BDA443";
shapes = (
{
closed = 1;
nodes = (
(467,-14,o),
(489,-7,o),
(510,9,cs),
(549,38,l),
(507,97,l),
(465,66,ls),
(461,63,o),
(458,62,o),
(454,62,cs),
(446,62,o),
(440,68,o),
(442,78,cs),
(490,300,ls),
(494,319,o),
(496,337,o),
(496,353,cs),
(496,454,o),
(424,510,o),
(338,510,cs),
(278,510,o),
(220,484,o),
(187,424,c),
(175,424,l),
(190,496,l),
(112,496,l),
(6,0,l),
(84,0,l),
(140,264,ls),
(161,364,o),
(220,436,o),
(310,436,cs),
(377,436,o),
(418,405,o),
(418,341,cs),
(418,328,o),
(417,316,o),
(413,298,cs),
(368,91,ls),
(365,77,o),
(364,69,o),
(364,59,cs),
(364,4,o),
(404,-14,o),
(443,-14,cs)
);
}
);
width = 612;
},
{
layerId = "8275915C-4C26-4DD7-A30E-5590CD7E6050";
shapes = (
{
closed = 1;
nodes = (
(477,-14,o),
(505,-6,o),
(531,12,cs),
(585,48,l),
(522,142,l),
(479,112,l),
(469,119,l),
(509,306,ls),
(513,327,o),
(516,344,o),
(516,365,cs),
(516,457,o),
(461,510,o),
(378,510,cs),
(314,510,o),
(259,482,o),
(227,416,c),
(209,416,l),
(226,496,l),
(105,496,l),
(0,0,l),
(126,0,l),
(185,278,ls),
(200,350,o),
(245,396,o),
(305,396,cs),
(353,396,o),
(383,368,o),
(383,320,cs),
(383,310,o),
(382,302,o),
(379,288,cs),
(343,122,ls),
(341,111,o),
(340,102,o),
(340,92,cs),
(340,26,o),
(391,-14,o),
(450,-14,cs)
);
}
);
width = 612;
}
);
unicode = 110;
},
{
glyphname = napostrophe;
lastChange = "2025-01-15 13:13:32 +0000";
layers = (
{
associatedMasterId = "CCBD71C2-CFAF-4DB2-A010-494EF6BDA443";
layerId = "B5F68FDA-8C9D-4654-935C-D86EAB7081E6";
name = img;
width = 612;
},
{
layerId = "CCBD71C2-CFAF-4DB2-A010-494EF6BDA443";
shapes = (
{
alignment = -1;
ref = n;
},
{
alignment = -1;
pos = (-141,106);
ref = quoteright;
}
);
width = 612;
},
{
associatedMasterId = "8275915C-4C26-4DD7-A30E-5590CD7E6050";
layerId = "CA77B61F-99FC-42A6-B533-090F6A61BB34";
name = img;
width = 612;
},
{
guides = (
{
angle = 90;
pos = (105,0);
}
);
layerId = "8275915C-4C26-4DD7-A30E-5590CD7E6050";
shapes = (
{
closed = 1;
nodes = (
(160,538,ls),
(212,538,o),
(251,560,o),
(261,607,cs),
(284,715,l),
(285,723,o),
(286,729,o),
(286,735,cs),
(286,786,o),
(244,826,o),
(195,826,cs),
(145,826,o),
(104,788,o),
(104,736,cs),
(104,678,o),
(149,652,o),
(192,652,c),
(190,639,ls),
(187,620,o),
(176,616,o),
(154,616,cs),
(105,616,l),
(105,538,l)
);
},
{
alignment = -1;
ref = n;
}
);
width = 612;
}
);
unicode = 329;
},
{
glyphname = eng;
lastChange = "2025-01-15 13:13:32 +0000";
layers = (
{
associatedMasterId = "CCBD71C2-CFAF-4DB2-A010-494EF6BDA443";
layerId = "B5F68FDA-8C9D-4654-935C-D86EAB7081E6";
name = img;
width = 612;
},
{
layerId = "CCBD71C2-CFAF-4DB2-A010-494EF6BDA443";
shapes = (
{
closed = 1;
nodes = (
(307,-200,ls),
(352,-200,o),
(391,-167,o),
(401,-122,cs),
(490,300,ls),
(494,319,o),
(496,337,o),
(496,353,cs),
(496,454,o),
(424,510,o),
(338,510,cs),
(278,510,o),
(220,484,o),
(187,424,c),
(175,424,l),
(190,496,l),
(112,496,l),
(6,0,l),
(84,0,l),
(140,264,ls),
(161,364,o),
(220,436,o),
(310,436,cs),
(377,436,o),
(418,405,o),
(418,341,cs),
(418,328,o),
(417,316,o),
(413,298,cs),
(328,-98,ls),
(324,-117,o),
(313,-128,o),
(294,-128,cs),
(176,-128,l),
(176,-200,l)
);
}
);
width = 612;
},
{
associatedMasterId = "8275915C-4C26-4DD7-A30E-5590CD7E6050";
layerId = "CBDB029A-4CAB-46F7-9BD2-D6B8D2894CD0";
name = img;
width = 612;
},
{
layerId = "8275915C-4C26-4DD7-A30E-5590CD7E6050";
shapes = (
{
closed = 1;
nodes = (
(316,-200,ls),
(376,-200,o),
(423,-167,o),
(438,-98,cs),
(526,306,ls),
(530,326,o),
(532,344,o),
(532,361,cs),
(532,456,o),
(470,510,o),
(384,510,cs),
(314,510,o),
(267,482,o),
(233,422,c),
(215,422,l),
(231,496,l),
(105,496,l),
(0,0,l),
(126,0,l),
(185,278,ls),
(200,350,o),
(253,396,o),
(313,396,cs),
(363,396,o),
(399,366,o),
(399,315,cs),
(399,306,o),
(398,299,o),
(396,288,cs),
(323,-47,ls),
(318,-68,o),
(307,-80,o),
(286,-80,cs),
(205,-80,l),
(205,-200,l)
);
}
);
width = 612;
}
);
unicode = 331;
},
{
glyphname = o;
lastChange = "2025-01-15 13:13:32 +0000";
layers = (
{
layerId = "CCBD71C2-CFAF-4DB2-A010-494EF6BDA443";
shapes = (
{
closed = 1;
nodes = (
(419,-14,o),
(531,142,o),
(531,306,cs),
(531,426,o),
(445,510,o),
(329,510,cs),
(161,510,o),
(20,380,o),
(20,188,cs),
(20,65,o),
(111,-14,o),
(223,-14,cs)
);
},
{
closed = 1;
nodes = (
(152,60,o),
(102,116,o),
(102,196,cs),
(102,326,o),
(198,436,o),
(312,436,cs),
(399,436,o),
(451,378,o),
(451,300,cs),
(451,178,o),
(364,60,o),
(240,60,cs)
);
}
);
width = 612;
},
{
layerId = "8275915C-4C26-4DD7-A30E-5590CD7E6050";
shapes = (
{
closed = 1;
nodes = (
(452,-14,o),
(558,123,o),
(558,310,cs),
(558,430,o),
(468,510,o),
(342,510,cs),
(168,510,o),
(33,390,o),
(33,184,cs),
(33,58,o),
(130,-14,o),
(246,-14,cs)
);
},
{
closed = 1;
nodes = (
(203,104,o),
(162,140,o),
(162,208,cs),
(162,303,o),
(230,392,o),
(326,392,cs),
(388,392,o),
(429,356,o),
(429,287,cs),
(429,189,o),
(362,106,o),
(265,104,c)
);
}
);
width = 612;
}
);
unicode = 111;
},
{
glyphname = ocircumflexhookabove;
lastChange = "2025-01-15 13:17:44 +0000";
layers = (
{
associatedMasterId = "CCBD71C2-CFAF-4DB2-A010-494EF6BDA443";
layerId = "B5F68FDA-8C9D-4654-935C-D86EAB7081E6";
name = img;
width = 612;
},
{
layerId = "CCBD71C2-CFAF-4DB2-A010-494EF6BDA443";
shapes = (
{
closed = 1;
nodes = (
(544,658,l),
(544,726,l),
(550,726,l),
(558,706,o),
(576,694,o),
(602,694,cs),
(653,694,o),
(693,736,o),
(693,786,cs),
(693,834,o),
(657,870,o),
(607,870,cs),
(555,870,o),
(522,840,o),
(505,800,c),
(549,782,l),
(558,802,o),
(573,822,o),
(602,822,cs),
(625,822,o),
(638,806,o),
(638,784,cs),
(638,761,o),
(622,742,o),
(598,742,cs),
(586,742,o),
(577,746,o),
(572,756,c),
(500,756,l),
(495,750,l),
(495,658,l)
);
},
{
alignment = -1;
ref = o;
},
{
alignment = -1;
pos = (7,0);
ref = circumflex;
}
);
width = 612;
},
{
associatedMasterId = "8275915C-4C26-4DD7-A30E-5590CD7E6050";
layerId = "06F835F1-E388-429B-ABD9-B792A8A0693F";
name = img;
width = 612;
},
{
layerId = "8275915C-4C26-4DD7-A30E-5590CD7E6050";
shapes = (
{
alignment = -1;
ref = o;
},
{
alignment = -1;
pos = (6,0);
ref = circumflex;
},
{
alignment = -1;
pos = (326,0);
ref = hookabovecomb;
}
);
width = 612;
}
);
unicode = 7893;
},
{
glyphname = ohookabove;
lastChange = "2025-01-15 13:17:44 +0000";
layers = (
{
associatedMasterId = "CCBD71C2-CFAF-4DB2-A010-494EF6BDA443";
layerId = "B5F68FDA-8C9D-4654-935C-D86EAB7081E6";
name = img;
width = 612;
},
{
layerId = "CCBD71C2-CFAF-4DB2-A010-494EF6BDA443";
shapes = (
{
closed = 1;
nodes = (
(361,546,l),
(361,614,l),
(367,614,l),
(375,594,o),
(393,582,o),
(419,582,cs),
(470,582,o),
(510,624,o),
(510,674,cs),
(510,722,o),
(474,758,o),
(424,758,cs),
(372,758,o),
(339,728,o),
(322,688,c),
(366,670,l),
(375,690,o),
(390,710,o),
(419,710,cs),
(442,710,o),
(455,694,o),
(455,672,cs),
(455,649,o),
(439,630,o),
(415,630,cs),
(403,630,o),
(394,634,o),
(389,644,c),
(317,644,l),
(312,638,l),
(312,546,l)
);
},
{
alignment = -1;
ref = o;
}
);
width = 612;
},
{
associatedMasterId = "8275915C-4C26-4DD7-A30E-5590CD7E6050";
layerId = "23E6E24C-193D-4109-90E0-C76EACC9F43A";
name = img;
width = 612;
},
{
layerId = "8275915C-4C26-4DD7-A30E-5590CD7E6050";
shapes = (
{
alignment = -1;
ref = o;
},
{
alignment = -1;
pos = (120,-112);
ref = hookabovecomb;
}
);
width = 612;
}
);
unicode = 7887;
},
{
glyphname = ohorn;
lastChange = "2025-01-15 13:17:44 +0000";
layers = (
{
associatedMasterId = "CCBD71C2-CFAF-4DB2-A010-494EF6BDA443";
layerId = "B5F68FDA-8C9D-4654-935C-D86EAB7081E6";
name = img;
width = 612;
},
{
layerId = "CCBD71C2-CFAF-4DB2-A010-494EF6BDA443";
shapes = (
{
closed = 1;
nodes = (
(334,-14,o),
(430,69,o),
(464,240,cs),
(466,250,l),
(530,250,ls),
(582,250,o),
(613,278,o),
(623,328,cs),
(641,414,ls),
(642,419,o),
(642,423,o),
(642,426,cs),
(642,464,o),
(610,496,o),
(572,496,cs),
(534,496,o),
(502,464,o),
(502,426,cs),
(502,388,o),
(534,356,o),
(572,356,cs),
(576,356,l),
(571,334,ls),
(567,315,o),
(556,304,o),
(537,304,cs),
(474,304,l),
(475,316,o),
(475,321,o),
(475,329,cs),
(475,444,o),
(398,510,o),
(300,510,cs),
(161,510,o),
(75,414,o),
(41,254,c),
(38,242,l),
(33,214,o),
(30,195,o),
(30,173,cs),
(30,62,o),
(104,-14,o),
(206,-14,cs)
);
},
{
closed = 1;
nodes = (
(146,60,o),
(111,104,o),
(111,178,cs),
(111,197,o),
(113,219,o),
(118,242,c),
(121,254,l),
(144,362,o),
(204,436,o),
(292,436,cs),
(361,436,o),
(394,390,o),
(394,318,cs),
(394,298,o),
(392,277,o),
(387,254,c),
(384,242,ls),
(353,119,o),
(302,60,o),
(213,60,cs)
);
}
);
width = 612;
},
{
associatedMasterId = "8275915C-4C26-4DD7-A30E-5590CD7E6050";
layerId = "EAE5D456-91D3-410F-8754-0C6B64FBE89D";
name = img;
width = 612;
},
{
layerId = "8275915C-4C26-4DD7-A30E-5590CD7E6050";
shapes = (
{
closed = 1;
nodes = (
(290,-14,o),
(380,63,o),
(411,204,c),
(498,204,ls),
(557,204,o),
(594,229,o),
(606,286,cs),
(628,388,ls),
(630,398,o),
(631,405,o),
(631,413,cs),
(631,461,o),
(599,496,o),
(550,496,cs),
(501,496,o),
(460,455,o),
(460,406,cs),
(460,356,o),
(500,322,o),
(536,322,c),
(534,312,ls),
(530,293,o),
(518,282,o),
(499,282,cs),
(428,282,l),
(431,303,o),
(433,322,o),
(433,340,cs),
(433,447,o),
(377,510,o),
(269,510,cs),
(135,510,o),
(55,414,o),
(21,254,c),
(18,242,l),
(13,216,o),
(10,191,o),
(10,169,cs),
(10,52,o),
(79,-14,o),
(177,-14,cs)
);
},
{
closed = 1;
nodes = (
(161,106,o),
(136,128,o),
(136,180,cs),
(136,194,o),
(138,211,o),
(142,230,cs),
(152,276,ls),
(168,354,o),
(202,390,o),
(247,390,cs),
(281,390,o),
(306,370,o),
(306,322,cs),
(306,306,o),
(304,291,o),
(299,266,cs),
(288,212,ls),
(273,142,o),
(241,106,o),
(196,106,cs)
);
}
);
width = 612;
}
);
unicode = 417;
},
{
glyphname = ohornhookabove;
lastChange = "2025-01-15 13:17:44 +0000";
layers = (
{
associatedMasterId = "CCBD71C2-CFAF-4DB2-A010-494EF6BDA443";
layerId = "B5F68FDA-8C9D-4654-935C-D86EAB7081E6";
name = img;
width = 612;
},
{
layerId = "CCBD71C2-CFAF-4DB2-A010-494EF6BDA443";
shapes = (
{
closed = 1;
nodes = (
(331,546,l),
(331,614,l),
(337,614,l),
(345,594,o),
(363,582,o),
(389,582,cs),
(440,582,o),
(480,624,o),
(480,674,cs),
(480,722,o),
(444,758,o),
(394,758,cs),
(342,758,o),
(309,728,o),
(292,688,c),
(336,670,l),
(345,690,o),
(360,710,o),
(389,710,cs),
(412,710,o),
(425,694,o),
(425,672,cs),
(425,649,o),
(409,630,o),
(385,630,cs),
(373,630,o),
(364,634,o),
(359,644,c),
(287,644,l),
(282,638,l),
(282,546,l)
);
},
{
alignment = -1;
ref = ohorn;
}
);
width = 612;
},
{
associatedMasterId = "8275915C-4C26-4DD7-A30E-5590CD7E6050";
layerId = "49FCD317-5BD1-442D-91EA-1E2FF8EF8062";
name = img;
width = 612;
},
{
layerId = "8275915C-4C26-4DD7-A30E-5590CD7E6050";
shapes = (
{
alignment = -1;
ref = ohorn;
},
{
alignment = -1;
pos = (51,-112);
ref = hookabovecomb;
}
);
width = 612;
}
);
unicode = 7903;
},
{
glyphname = oogonek;
lastChange = "2025-01-15 13:17:44 +0000";
layers = (
{
associatedMasterId = "CCBD71C2-CFAF-4DB2-A010-494EF6BDA443";
layerId = "B5F68FDA-8C9D-4654-935C-D86EAB7081E6";
name = img;
width = 612;
},
{
layerId = "CCBD71C2-CFAF-4DB2-A010-494EF6BDA443";
shapes = (
{
closed = 1;
nodes = (
(336,-164,l),
(336,-98,l),
(249,-98,ls),
(241,-98,o),
(233,-93,o),
(233,-83,cs),
(233,-78,o),
(236,-72,o),
(243,-67,cs),
(395,36,ls),
(484,96,o),
(531,199,o),
(531,306,cs),
(531,426,o),
(445,510,o),
(329,510,cs),
(161,510,o),
(20,380,o),
(20,188,cs),
(20,65,o),
(110,-13,o),
(221,-14,c),
(206,-25,ls),
(176,-47,o),
(163,-74,o),
(163,-99,cs),
(163,-136,o),
(189,-164,o),
(229,-164,cs)
);
},
{
closed = 1;
nodes = (
(152,60,o),
(102,116,o),
(102,196,cs),
(102,326,o),
(198,436,o),
(312,436,cs),
(399,436,o),
(451,378,o),
(451,300,cs),
(451,178,o),
(364,60,o),
(240,60,cs)
);
}
);
width = 612;
},
{
associatedMasterId = "8275915C-4C26-4DD7-A30E-5590CD7E6050";
layerId = "1E978D2C-173B-42E2-82F6-6D08845A7C09";
name = img;
width = 612;
},
{
layerId = "8275915C-4C26-4DD7-A30E-5590CD7E6050";
shapes = (
{
closed = 1;
nodes = (
(351,-170,l),
(351,-86,l),
(304,-86,ls),
(293,-86,o),
(287,-79,o),
(287,-72,cs),
(287,-66,o),
(290,-61,o),
(295,-58,cs),
(435,39,ls),
(512,92,o),
(558,186,o),
(558,310,cs),
(558,430,o),
(468,510,o),
(342,510,cs),
(168,510,o),
(33,390,o),
(33,184,cs),
(33,68,o),
(115,-2,o),
(219,-13,c),
(205,-23,ls),
(177,-44,o),
(164,-70,o),
(164,-95,cs),
(164,-135,o),
(195,-170,o),
(243,-170,cs)
);
},
{
closed = 1;
nodes = (
(203,104,o),
(162,140,o),
(162,208,cs),
(162,303,o),
(230,392,o),
(326,392,cs),
(388,392,o),
(429,356,o),
(429,287,cs),
(429,189,o),
(362,106,o),
(265,104,c)
);
}
);
width = 612;
}
);
unicode = 491;
},
{
glyphname = oopen;
lastChange = "2025-01-15 13:17:44 +0000";
layers = (
{
associatedMasterId = "CCBD71C2-CFAF-4DB2-A010-494EF6BDA443";
layerId = "B5F68FDA-8C9D-4654-935C-D86EAB7081E6";
name = img;
width = 612;
},
{
layerId = "CCBD71C2-CFAF-4DB2-A010-494EF6BDA443";
shapes = (
{
alignment = -1;
angle = 180;
pos = (573,496);
ref = c;
}
);
width = 612;
},
{
associatedMasterId = "8275915C-4C26-4DD7-A30E-5590CD7E6050";
layerId = "E3EF66BF-AD18-4FBA-966D-C1B786EC5354";
name = img;
width = 612;
},
{
layerId = "8275915C-4C26-4DD7-A30E-5590CD7E6050";
shapes = (
{
closed = 1;
nodes = (
(444,-14,o),
(558,120,o),
(558,302,cs),
(558,432,o),
(463,510,o),
(334,510,cs),
(180,510,o),
(91,436,o),
(54,318,c),
(171,287,l),
(195,354,o),
(242,390,o),
(320,390,cs),
(382,390,o),
(428,353,o),
(428,285,cs),
(428,182,o),
(357,106,o),
(261,106,cs),
(185,106,o),
(153,146,o),
(153,213,c),
(25,188,l),
(25,69,o),
(99,-14,o),
(243,-14,cs)
);
}
);
width = 612;
}
);
unicode = 596;
},
{
glyphname = oslash;
lastChange = "2025-01-15 13:13:32 +0000";
layers = (
{
layerId = "CCBD71C2-CFAF-4DB2-A010-494EF6BDA443";
shapes = (
{
closed = 1;
nodes = (
(176,-9,l),
(191,-12,o),
(207,-14,o),
(223,-14,cs),
(419,-14,o),
(531,142,o),
(531,306,cs),
(531,383,o),
(496,445,o),
(440,479,c),
(464,524,l),
(404,558,l),
(375,505,l),
(360,508,o),
(345,510,o),
(329,510,cs),
(161,510,o),
(20,380,o),
(20,188,cs),
(20,110,o),
(56,49,o),
(111,16,c),
(85,-33,l),
(145,-68,l)
);
},
{
closed = 1;
nodes = (
(119,111,o),
(102,149,o),
(102,196,cs),
(102,326,o),
(198,436,o),
(312,436,cs),
(321,436,o),
(329,435,o),
(337,434,c),
(150,87,l)
);
},
{
closed = 1;
nodes = (
(231,60,o),
(223,60,o),
(215,61,c),
(401,408,l),
(433,383,o),
(451,345,o),
(451,300,cs),
(451,178,o),
(364,60,o),
(240,60,cs)
);
}
);
width = 612;
},
{
associatedMasterId = "8275915C-4C26-4DD7-A30E-5590CD7E6050";
layerId = "83A01424-F902-4D37-B54F-E59A61358265";
name = img;
width = 612;
},
{
layerId = "8275915C-4C26-4DD7-A30E-5590CD7E6050";
shapes = (
{
closed = 1;
nodes = (
(216,-12,l),
(226,-13,o),
(236,-14,o),
(246,-14,cs),
(452,-14,o),
(558,123,o),
(558,310,cs),
(558,379,o),
(528,435,o),
(478,470,c),
(502,515,l),
(408,565,l),
(377,507,l),
(365,509,o),
(354,510,o),
(342,510,cs),
(168,510,o),
(33,390,o),
(33,184,cs),
(33,111,o),
(65,56,o),
(115,23,c),
(93,-18,l),
(184,-73,l)
);
},
{
closed = 1;
nodes = (
(168,159,o),
(162,181,o),
(162,208,cs),
(162,299,o),
(224,384,o),
(314,391,c),
(179,142,l)
);
},
{
closed = 1;
nodes = (
(413,350,l),
(423,334,o),
(429,313,o),
(429,287,cs),
(429,194,o),
(369,114,o),
(280,105,c)
);
}
);
width = 612;
}
);
unicode = 248;
},
{
glyphname = oe;
lastChange = "2025-01-15 13:13:32 +0000";
layers = (
{
layerId = "CCBD71C2-CFAF-4DB2-A010-494EF6BDA443";
shapes = (
{
closed = 1;
nodes = (
(370,-14,o),
(448,52,o),
(489,128,c),
(422,163,l),
(396,115,o),
(358,74,o),
(286,62,c),
(320,224,l),
(520,224,l),
(533,282,ls),
(536,296,o),
(538,311,o),
(538,325,cs),
(538,416,o),
(474,510,o),
(338,510,cs),
(154,510,o),
(34,358,o),
(34,188,cs),
(34,58,o),
(126,-14,o),
(238,-14,cs)
);
},
{
closed = 1;
nodes = (
(152,78,o),
(115,124,o),
(115,192,cs),
(115,301,o),
(182,404,o),
(286,430,c),
(209,65,l)
);
},
{
closed = 1;
nodes = (
(365,432,l),
(421,425,o),
(460,384,o),
(460,325,cs),
(460,316,o),
(459,306,o),
(457,296,c),
(336,296,l)
);
}
);
width = 612;
},
{
associatedMasterId = "8275915C-4C26-4DD7-A30E-5590CD7E6050";
layerId = "09787227-33D0-4B5C-AB4A-11191993E4C0";
name = img;
width = 612;
},
{
layerId = "8275915C-4C26-4DD7-A30E-5590CD7E6050";
shapes = (
{
closed = 1;
nodes = (
(376,-14,o),
(450,18,o),
(512,88,c),
(424,152,l),
(401,124,o),
(375,110,o),
(343,110,c),
(360,188,l),
(552,188,l),
(563,240,ls),
(567,259,o),
(570,282,o),
(570,302,cs),
(570,421,o),
(490,510,o),
(350,510,cs),
(179,510,o),
(33,384,o),
(33,204,cs),
(33,62,o),
(144,-14,o),
(263,-14,c)
);
},
{
closed = 1;
nodes = (
(183,132,o),
(162,163,o),
(162,208,cs),
(162,284,o),
(196,351,o),
(275,382,c),
(218,116,l)
);
},
{
closed = 1;
nodes = (
(402,386,l),
(432,383,o),
(453,357,o),
(453,325,cs),
(453,318,o),
(452,311,o),
(451,308,c),
(385,308,l)
);
}
);
width = 612;
}
);
unicode = 339;
},
{
glyphname = p;
lastChange = "2025-01-15 13:13:32 +0000";
layers = (
{
guides = (
{
pos = (0,510);
}
);
layerId = "CCBD71C2-CFAF-4DB2-A010-494EF6BDA443";
shapes = (
{
closed = 1;
nodes = (
(77,-200,l),
(136,76,l),
(148,76,l),
(170,24,o),
(228,-14,o),
(302,-14,cs),
(488,-14,o),
(581,142,o),
(581,318,cs),
(581,428,o),
(504,510,o),
(394,510,cs),
(316,510,o),
(260,478,o),
(220,418,c),
(208,418,l),
(208,424,ls),
(208,480,o),
(174,510,o),
(121,510,cs),
(100,510,o),
(79,504,o),
(60,491,cs),
(13,459,l),
(53,400,l),
(108,438,ls),
(111,440,o),
(115,441,o),
(117,441,c),
(127,441,o),
(134,435,o),
(131,421,cs),
(0,-200,l)
);
},
{
closed = 1;
nodes = (
(214,60,o),
(167,110,o),
(167,195,cs),
(167,314,o),
(250,436,o),
(372,436,cs),
(448,436,o),
(498,390,o),
(498,302,cs),
(498,176,o),
(424,60,o),
(292,60,cs)
);
}
);
width = 612;
},
{
layerId = "8275915C-4C26-4DD7-A30E-5590CD7E6050";
shapes = (
{
closed = 1;
nodes = (
(121,-200,l),
(179,72,l),
(197,72,l),
(209,30,o),
(253,-14,o),
(337,-14,cs),
(519,-14,o),
(593,156,o),
(593,314,cs),
(593,440,o),
(515,510,o),
(423,510,cs),
(349,510,o),
(295,480,o),
(263,424,c),
(245,424,l),
(236,477,o),
(191,510,o),
(138,510,cs),
(110,510,o),
(79,500,o),
(51,480,cs),
(-3,440,l),
(62,350,l),
(108,384,l),
(118,377,l),
(-5,-200,l)
);
},
{
closed = 1;
nodes = (
(251,106,o),
(212,148,o),
(212,210,cs),
(212,314,o),
(269,390,o),
(359,390,cs),
(423,390,o),
(461,342,o),
(461,286,cs),
(461,182,o),
(413,106,o),
(313,106,cs)
);
}
);
width = 612;
}
);
unicode = 112;
},
{
glyphname = thorn;
lastChange = "2025-01-15 13:13:32 +0000";
layers = (
{
layerId = "CCBD71C2-CFAF-4DB2-A010-494EF6BDA443";
shapes = (
{
closed = 1;
nodes = (
(23,-200,l),
(82,76,l),
(94,76,l),
(117,18,o),
(180,-14,o),
(244,-14,cs),
(442,-14,o),
(539,146,o),
(539,316,cs),
(539,438,o),
(456,510,o),
(354,510,cs),
(282,510,o),
(212,482,o),
(166,418,c),
(154,418,l),
(217,714,l),
(139,714,l),
(-54,-200,l)
);
},
{
closed = 1;
nodes = (
(169,60,o),
(112,108,o),
(112,195,cs),
(112,320,o),
(204,436,o),
(318,436,cs),
(403,436,o),
(456,382,o),
(456,291,cs),
(456,176,o),
(373,60,o),
(247,60,cs)
);
}
);
width = 612;
},
{
associatedMasterId = "8275915C-4C26-4DD7-A30E-5590CD7E6050";
layerId = "4CDDAE4B-CDA4-4E66-8BC1-B263B7584D35";
name = img;
width = 612;
},
{
guides = (
{
angle = 90;
pos = (276,0);
}
);
layerId = "8275915C-4C26-4DD7-A30E-5590CD7E6050";
shapes = (
{
closed = 1;
nodes = (
(82,-200,l),
(140,72,l),
(158,72,l),
(170,30,o),
(214,-14,o),
(298,-14,cs),
(480,-14,o),
(554,156,o),
(554,314,cs),
(554,440,o),
(476,510,o),
(384,510,cs),
(310,510,o),
(262,480,o),
(230,424,c),
(212,424,l),
(276,714,l),
(150,714,l),
(-44,-200,l)
);
},
{
closed = 1;
nodes = (
(212,106,o),
(173,148,o),
(173,210,cs),
(173,314,o),
(230,390,o),
(320,390,cs),
(384,390,o),
(422,342,o),
(422,273,cs),
(422,182,o),
(374,106,o),
(274,106,cs)
);
}
);
width = 612;
}
);
unicode = 254;
},
{
glyphname = q;
lastChange = "2025-01-15 13:13:32 +0000";
layers = (
{
guides = (
{
pos = (0,-200);
}
);
layerId = "CCBD71C2-CFAF-4DB2-A010-494EF6BDA443";
shapes = (
{
closed = 1;
nodes = (
(458,-212,o),
(481,-205,o),
(502,-191,cs),
(554,-156,l),
(514,-97,l),
(462,-132,ls),
(457,-135,o),
(452,-137,o),
(447,-137,cs),
(435,-137,o),
(426,-127,o),
(430,-111,cs),
(559,496,l),
(481,496,l),
(464,418,l),
(452,418,l),
(436,472,o),
(382,510,o),
(304,510,cs),
(136,510,o),
(20,370,o),
(20,186,cs),
(20,66,o),
(96,-14,o),
(211,-14,cs),
(280,-14,o),
(340,14,o),
(379,70,c),
(391,70,l),
(355,-98,l),
(353,-109,o),
(352,-119,o),
(352,-128,cs),
(352,-184,o),
(391,-212,o),
(436,-212,cs)
);
},
{
closed = 1;
nodes = (
(146,60,o),
(101,112,o),
(101,194,cs),
(101,320,o),
(180,436,o),
(306,436,cs),
(384,436,o),
(435,380,o),
(435,298,cs),
(435,180,o),
(350,60,o),
(228,60,cs)
);
}
);
width = 612;
},
{
guides = (
{
pos = (0,-200);
}
);
layerId = "8275915C-4C26-4DD7-A30E-5590CD7E6050";
shapes = (
{
closed = 1;
nodes = (
(477,-212,o),
(506,-204,o),
(533,-186,cs),
(600,-142,l),
(537,-48,l),
(481,-86,l),
(471,-79,l),
(594,496,l),
(468,496,l),
(453,424,l),
(435,424,l),
(420,472,o),
(384,510,o),
(302,510,cs),
(124,510,o),
(22,348,o),
(22,170,cs),
(22,58,o),
(100,-14,o),
(192,-14,cs),
(288,-14,o),
(332,28,o),
(360,72,c),
(378,72,l),
(346,-72,ls),
(343,-86,o),
(342,-95,o),
(342,-105,cs),
(342,-171,o),
(391,-212,o),
(450,-212,cs)
);
},
{
closed = 1;
nodes = (
(191,106,o),
(152,141,o),
(152,206,cs),
(152,302,o),
(219,390,o),
(316,390,cs),
(381,390,o),
(420,353,o),
(420,289,cs),
(420,194,o),
(352,106,o),
(256,106,cs)
);
}
);
width = 612;
}
);
unicode = 113;
},
{
glyphname = r;
lastChange = "2025-01-15 13:13:32 +0000";
layers = (
{
guides = (
{
pos = (0,510);
},
{
pos = (0,435);
}
);
layerId = "CCBD71C2-CFAF-4DB2-A010-494EF6BDA443";
shapes = (
{
closed = 1;
nodes = (
(318,0,l),
(318,72,l),
(200,72,l),
(247,294,ls),
(263,370,o),
(313,436,o),
(393,436,cs),
(448,436,o),
(488,406,o),
(488,342,cs),
(488,329,o),
(486,315,o),
(483,300,c),
(568,306,l),
(572,324,o),
(574,342,o),
(574,359,cs),
(574,449,o),
(515,510,o),
(420,510,cs),
(368,510,o),
(318,490,o),
(280,436,c),
(268,436,l),
(264,488,o),
(229,510,o),
(188,510,cs),
(166,510,o),
(141,502,o),
(119,487,cs),
(30,427,l),
(70,368,l),
(161,430,ls),
(167,434,o),
(172,435,o),
(176,435,cs),
(188,435,o),
(198,426,o),
(194,410,c),
(122,72,l),
(0,72,l),
(0,0,l)
);
}
);
width = 612;
},
{
layerId = "8275915C-4C26-4DD7-A30E-5590CD7E6050";
shapes = (
{
closed = 1;
nodes = (
(370,0,l),
(370,120,l),
(250,120,l),
(286,288,ls),
(300,354,o),
(331,392,o),
(384,392,cs),
(426,392,o),
(448,368,o),
(448,329,cs),
(448,321,o),
(447,312,o),
(445,302,cs),
(442,288,l),
(576,298,l),
(581,320,ls),
(586,344,o),
(588,359,o),
(588,376,cs),
(588,460,o),
(536,510,o),
(460,510,cs),
(401,510,o),
(350,482,o),
(323,426,c),
(305,426,l),
(297,479,o),
(252,510,o),
(199,510,cs),
(168,510,o),
(133,499,o),
(102,476,cs),
(22,416,l),
(89,326,l),
(168,384,l),
(178,378,l),
(124,120,l),
(28,120,l),
(28,0,l)
);
}
);
width = 612;
}
);
unicode = 114;
},
{
glyphname = rcommaaccent;
lastChange = "2025-01-15 13:17:44 +0000";
layers = (
{
associatedMasterId = "CCBD71C2-CFAF-4DB2-A010-494EF6BDA443";
layerId = "B5F68FDA-8C9D-4654-935C-D86EAB7081E6";
name = img;
width = 612;
},
{
layerId = "CCBD71C2-CFAF-4DB2-A010-494EF6BDA443";
shapes = (
{
alignment = -1;
ref = r;
},
{
alignment = -1;
pos = (-141,-180);
ref = comma;
}
);
width = 612;
},
{
associatedMasterId = "8275915C-4C26-4DD7-A30E-5590CD7E6050";
layerId = "4801E1E9-9AF4-4ED3-979C-44F70EDC0089";
name = img;
width = 612;
},
{
layerId = "8275915C-4C26-4DD7-A30E-5590CD7E6050";
shapes = (
{
closed = 1;
nodes = (
(103,-338,ls),
(155,-338,o),
(194,-316,o),
(204,-269,cs),
(228,-155,ls),
(229,-148,o),
(230,-141,o),
(230,-135,cs),
(230,-85,o),
(188,-44,o),
(139,-44,cs),
(89,-44,o),
(48,-83,o),
(48,-134,cs),
(48,-192,o),
(93,-218,o),
(136,-218,c),
(133,-237,ls),
(130,-256,o),
(119,-260,o),
(97,-260,cs),
(55,-260,l),
(55,-338,l)
);
},
{
alignment = -1;
ref = r;
}
);
width = 612;
}
);
unicode = 343;
},
{
glyphname = rturned;
lastChange = "2025-01-15 13:17:44 +0000";
layers = (
{
associatedMasterId = "CCBD71C2-CFAF-4DB2-A010-494EF6BDA443";
layerId = "B5F68FDA-8C9D-4654-935C-D86EAB7081E6";
name = img;
width = 612;
},
{
layerId = "CCBD71C2-CFAF-4DB2-A010-494EF6BDA443";
shapes = (
{
closed = 1;
nodes = (
(247,-14,o),
(297,6,o),
(335,60,c),
(347,60,l),
(351,11,o),
(386,-14,o),
(427,-14,cs),
(449,-14,o),
(474,-6,o),
(496,9,cs),
(585,69,l),
(545,128,l),
(454,66,ls),
(450,63,o),
(445,61,o),
(439,61,cs),
(427,61,o),
(417,69,o),
(421,86,cs),
(493,424,l),
(615,424,l),
(615,496,l),
(297,496,l),
(297,424,l),
(415,424,l),
(368,202,ls),
(352,126,o),
(302,60,o),
(222,60,cs),
(167,60,o),
(127,90,o),
(127,154,cs),
(127,167,o),
(129,181,o),
(132,196,c),
(47,190,l),
(43,172,o),
(41,154,o),
(41,137,cs),
(41,47,o),
(100,-14,o),
(195,-14,cs)
);
}
);
width = 612;
},
{
associatedMasterId = "8275915C-4C26-4DD7-A30E-5590CD7E6050";
layerId = "B941F84A-75E2-4440-A56D-D9D47069957F";
name = img;
width = 612;
},
{
layerId = "8275915C-4C26-4DD7-A30E-5590CD7E6050";
shapes = (
{
alignment = -1;
angle = 180;
pos = (622,496);
ref = r;
}
);
width = 612;
}
);
unicode = 633;
},
{
glyphname = s;
lastChange = "2025-01-15 13:13:32 +0000";
layers = (
{
layerId = "CCBD71C2-CFAF-4DB2-A010-494EF6BDA443";
shapes = (
{
closed = 1;
nodes = (
(396,-14,o),
(494,50,o),
(494,162,cs),
(494,242,o),
(438,282,o),
(343,289,cs),
(250,296,o),
(216,315,o),
(216,358,cs),
(216,414,o),
(282,440,o),
(336,440,cs),
(408,440,o),
(447,407,o),
(447,356,c),
(447,352,o),
(446,345,o),
(446,345,c),
(523,356,l),
(523,367,l),
(523,438,o),
(469,510,o),
(346,510,cs),
(220,510,o),
(137,442,o),
(137,348,cs),
(137,266,o),
(195,230,o),
(289,223,cs),
(372,217,o),
(414,204,o),
(414,152,cs),
(414,86,o),
(338,58,o),
(276,58,cs),
(182,58,o),
(150,102,o),
(150,160,cs),
(150,165,o),
(150,166,o),
(151,176,c),
(73,166,l),
(72,159,o),
(72,152,o),
(72,145,cs),
(72,65,o),
(126,-14,o),
(261,-14,cs)
);
}
);
width = 612;
},
{
layerId = "8275915C-4C26-4DD7-A30E-5590CD7E6050";
shapes = (
{
closed = 1;
nodes = (
(418,-14,o),
(506,58,o),
(506,174,cs),
(506,252,o),
(447,294,o),
(361,304,cs),
(284,313,o),
(255,324,o),
(255,352,cs),
(255,384,o),
(294,396,o),
(322,396,cs),
(373,396,o),
(401,374,o),
(406,338,c),
(528,370,l),
(520,427,o),
(476,510,o),
(338,510,cs),
(226,510,o),
(126,448,o),
(126,335,cs),
(126,258,o),
(187,209,o),
(283,201,cs),
(354,195,o),
(377,178,o),
(377,150,cs),
(377,113,o),
(336,100,o),
(290,100,cs),
(222,100,o),
(190,136,o),
(186,180,c),
(62,150,l),
(66,80,o),
(128,-14,o),
(274,-14,cs)
);
}
);
width = 612;
}
);
unicode = 115;
},
{
glyphname = scedilla;
lastChange = "2025-01-15 13:13:32 +0000";
layers = (
{
associatedMasterId = "CCBD71C2-CFAF-4DB2-A010-494EF6BDA443";
layerId = "B5F68FDA-8C9D-4654-935C-D86EAB7081E6";
name = img;
width = 612;
},
{
layerId = "CCBD71C2-CFAF-4DB2-A010-494EF6BDA443";
shapes = (
{
closed = 1;
nodes = (
(340,-212,o),
(374,-170,o),
(374,-110,cs),
(374,-70,o),
(350,-36,o),
(306,-36,cs),
(280,-36,o),
(263,-47,o),
(252,-68,c),
(246,-68,l),
(265,-14,l),
(398,-12,o),
(494,51,o),
(494,162,cs),
(494,242,o),
(438,282,o),
(343,289,cs),
(250,296,o),
(216,315,o),
(216,358,cs),
(216,414,o),
(282,440,o),
(336,440,cs),
(408,440,o),
(447,407,o),
(447,356,cs),
(447,352,o),
(446,345,o),
(446,345,c),
(523,356,l),
(523,367,ls),
(523,438,o),
(469,510,o),
(346,510,cs),
(220,510,o),
(137,442,o),
(137,348,cs),
(137,266,o),
(195,230,o),
(289,223,cs),
(372,217,o),
(414,204,o),
(414,152,cs),
(414,86,o),
(338,58,o),
(276,58,cs),
(182,58,o),
(150,102,o),
(150,160,cs),
(150,165,o),
(150,166,o),
(151,176,c),
(73,166,l),
(72,159,o),
(72,152,o),
(72,145,cs),
(72,76,o),
(113,6,o),
(212,-10,c),
(186,-86,l),
(186,-98,l),
(261,-98,l),
(266,-90,o),
(274,-84,o),
(288,-84,cs),
(305,-84,o),
(320,-94,o),
(320,-118,cs),
(320,-146,o),
(302,-164,o),
(272,-164,cs),
(242,-164,o),
(228,-146,o),
(226,-125,c),
(176,-142,l),
(182,-183,o),
(216,-212,o),
(270,-212,cs)
);
}
);
width = 612;
},
{
associatedMasterId = "8275915C-4C26-4DD7-A30E-5590CD7E6050";
layerId = "9F25F44A-2F63-47C1-A6D5-AF3D81AEBE71";
name = img;
width = 612;
},
{
layerId = "8275915C-4C26-4DD7-A30E-5590CD7E6050";
shapes = (
{
closed = 1;
nodes = (
(357,-212,o),
(401,-170,o),
(401,-102,cs),
(401,-52,o),
(373,-24,o),
(334,-24,cs),
(309,-24,o),
(293,-34,o),
(283,-46,c),
(271,-46,l),
(285,-14,l),
(422,-10,o),
(506,61,o),
(506,174,cs),
(506,252,o),
(447,294,o),
(361,304,cs),
(284,313,o),
(255,324,o),
(255,352,cs),
(255,384,o),
(294,396,o),
(322,396,cs),
(373,396,o),
(401,374,o),
(406,338,c),
(528,370,l),
(520,427,o),
(476,510,o),
(338,510,cs),
(226,510,o),
(126,448,o),
(126,335,cs),
(126,258,o),
(187,209,o),
(283,201,cs),
(354,195,o),
(377,178,o),
(377,150,cs),
(377,113,o),
(336,100,o),
(290,100,cs),
(222,100,o),
(190,136,o),
(186,180,c),
(62,150,l),
(65,91,o),
(109,16,o),
(209,-7,c),
(179,-92,l),
(179,-104,l),
(276,-104,l),
(280,-96,o),
(286,-90,o),
(297,-90,cs),
(308,-90,o),
(315,-97,o),
(315,-109,cs),
(315,-128,o),
(298,-138,o),
(275,-138,cs),
(254,-138,o),
(237,-132,o),
(224,-123,c),
(187,-192,l),
(207,-204,o),
(235,-212,o),
(280,-212,cs)
);
}
);
width = 612;
}
);
unicode = 351;
},
{
glyphname = germandbls;
lastChange = "2025-01-15 13:13:32 +0000";
layers = (
{
layerId = "CCBD71C2-CFAF-4DB2-A010-494EF6BDA443";
shapes = (
{
closed = 1;
nodes = (
(461,-14,o),
(534,78,o),
(534,192,cs),
(534,296,o),
(457,355,o),
(362,355,cs),
(349,355,l),
(349,367,l),
(469,378,o),
(542,458,o),
(542,556,cs),
(542,658,o),
(467,714,o),
(369,714,cs),
(253,714,o),
(168,654,o),
(137,510,cs),
(134,496,l),
(58,496,l),
(58,424,l),
(118,424,l),
(28,0,l),
(106,0,l),
(213,502,ls),
(234,602,o),
(289,642,o),
(363,642,cs),
(421,642,o),
(462,612,o),
(462,556,cs),
(462,478,o),
(403,430,o),
(323,430,cs),
(274,430,l),
(274,283,l),
(328,283,ls),
(401,283,o),
(454,258,o),
(454,182,cs),
(454,98,o),
(399,58,o),
(339,58,cs),
(278,58,o),
(248,90,o),
(248,138,cs),
(248,143,o),
(248,148,o),
(249,154,c),
(173,146,l),
(171,138,o),
(171,129,o),
(171,120,cs),
(171,53,o),
(220,-14,o),
(333,-14,cs)
);
}
);
width = 612;
},
{
associatedMasterId = "8275915C-4C26-4DD7-A30E-5590CD7E6050";
layerId = "6853FCA5-DA1A-46B6-B1BD-4697251A8B9D";
name = img;
width = 612;
},
{
layerId = "8275915C-4C26-4DD7-A30E-5590CD7E6050";
shapes = (
{
closed = 1;
nodes = (
(479,-14,o),
(548,76,o),
(548,187,cs),
(548,293,o),
(468,346,o),
(377,346,cs),
(350,346,l),
(350,364,l),
(463,375,o),
(545,438,o),
(545,553,cs),
(545,657,o),
(469,714,o),
(352,714,cs),
(227,714,o),
(131,650,o),
(108,514,cs),
(105,496,l),
(31,496,l),
(31,376,l),
(79,376,l),
(0,0,l),
(125,0,l),
(231,496,ls),
(244,560,o),
(284,594,o),
(345,594,cs),
(387,594,o),
(415,569,o),
(415,536,cs),
(415,487,o),
(376,466,o),
(328,466,cs),
(266,466,l),
(266,238,l),
(336,238,ls),
(387,238,o),
(418,216,o),
(418,173,cs),
(418,133,o),
(392,106,o),
(352,106,cs),
(321,106,o),
(306,124,o),
(306,154,c),
(183,132,l),
(183,56,o),
(237,-14,o),
(343,-14,cs)
);
}
);
width = 612;
}
);
unicode = 223;
},
{
glyphname = longs;
lastChange = "2025-01-15 13:13:32 +0000";
layers = (
{
associatedMasterId = "CCBD71C2-CFAF-4DB2-A010-494EF6BDA443";
layerId = "B5F68FDA-8C9D-4654-935C-D86EAB7081E6";
name = img;
width = 612;
},
{
layerId = "CCBD71C2-CFAF-4DB2-A010-494EF6BDA443";
shapes = (
{
closed = 1;
nodes = (
(174,-200,o),
(209,-177,o),
(220,-126,cs),
(374,598,l),
(378,617,o),
(389,628,o),
(408,628,cs),
(574,628,l),
(574,700,l),
(395,700,ls),
(350,700,o),
(311,667,o),
(301,622,cs),
(275,496,l),
(106,496,l),
(106,424,l),
(259,424,l),
(146,-106,ls),
(144,-114,o),
(139,-121,o),
(129,-121,cs),
(120,-121,o),
(115,-116,o),
(111,-109,cs),
(69,-42,l),
(8,-81,l),
(52,-152,ls),
(70,-181,o),
(94,-200,o),
(137,-200,cs)
);
}
);
width = 612;
},
{
associatedMasterId = "8275915C-4C26-4DD7-A30E-5590CD7E6050";
layerId = "474CD354-6E44-4D90-B889-DC0D8C4B6D8B";
name = img;
width = 612;
},
{
layerId = "8275915C-4C26-4DD7-A30E-5590CD7E6050";
shapes = (
{
closed = 1;
nodes = (
(194,-212,o),
(239,-185,o),
(254,-120,cs),
(403,550,ls),
(407,569,o),
(417,580,o),
(436,580,cs),
(586,580,l),
(586,700,l),
(410,700,ls),
(353,700,o),
(299,655,o),
(287,598,cs),
(265,496,l),
(98,496,l),
(98,376,l),
(239,376,l),
(139,-74,l),
(127,-76,l),
(83,0,l),
(-14,-59,l),
(49,-160,ls),
(69,-193,o),
(109,-212,o),
(148,-212,cs)
);
}
);
width = 612;
}
);
unicode = 383;
},
{
glyphname = t;
lastChange = "2025-01-15 13:13:32 +0000";
layers = (
{
layerId = "CCBD71C2-CFAF-4DB2-A010-494EF6BDA443";
shapes = (
{
closed = 1;
nodes = (
(276,-14,o),
(299,-7,o),
(320,7,cs),
(453,97,l),
(413,156,l),
(280,66,ls),
(275,63,o),
(270,61,o),
(265,61,cs),
(253,61,o),
(244,71,o),
(248,87,c),
(319,424,l),
(511,424,l),
(511,496,l),
(335,496,l),
(381,714,l),
(303,714,l),
(257,496,l),
(85,496,l),
(85,424,l),
(241,424,l),
(173,100,ls),
(171,90,o),
(169,79,o),
(169,70,cs),
(169,14,o),
(208,-14,o),
(254,-14,cs)
);
}
);
width = 612;
},
{
layerId = "8275915C-4C26-4DD7-A30E-5590CD7E6050";
shapes = (
{
closed = 1;
nodes = (
(296,-14,o),
(324,-6,o),
(350,12,cs),
(495,110,l),
(432,204,l),
(298,112,l),
(288,119,l),
(344,376,l),
(542,376,l),
(542,496,l),
(370,496,l),
(416,714,l),
(290,714,l),
(244,496,l),
(78,496,l),
(78,376,l),
(218,376,l),
(163,126,ls),
(160,111,o),
(159,104,o),
(159,94,cs),
(159,27,o),
(210,-14,o),
(269,-14,cs)
);
}
);
width = 612;
}
);
unicode = 116;
},
{
glyphname = tbar;
lastChange = "2025-01-15 13:13:32 +0000";
layers = (
{
associatedMasterId = "CCBD71C2-CFAF-4DB2-A010-494EF6BDA443";
layerId = "B5F68FDA-8C9D-4654-935C-D86EAB7081E6";
name = img;
width = 612;
},
{
layerId = "CCBD71C2-CFAF-4DB2-A010-494EF6BDA443";
shapes = (
{
closed = 1;
nodes = (
(276,-14,o),
(299,-7,o),
(320,7,cs),
(453,97,l),
(413,156,l),
(280,66,ls),
(275,63,o),
(270,61,o),
(265,61,cs),
(253,61,o),
(244,71,o),
(248,87,cs),
(288,278,l),
(453,278,l),
(453,350,l),
(303,350,l),
(319,424,l),
(511,424,l),
(511,496,l),
(335,496,l),
(381,714,l),
(303,714,l),
(257,496,l),
(85,496,l),
(85,424,l),
(241,424,l),
(225,350,l),
(99,350,l),
(99,278,l),
(210,278,l),
(173,100,ls),
(171,90,o),
(169,79,o),
(169,70,cs),
(169,14,o),
(208,-14,o),
(254,-14,cs)
);
}
);
width = 612;
},
{
associatedMasterId = "8275915C-4C26-4DD7-A30E-5590CD7E6050";
layerId = "EEE7272D-152E-4E57-A7E2-F919BCCB2418";
name = img;
width = 612;
},
{
layerId = "8275915C-4C26-4DD7-A30E-5590CD7E6050";
shapes = (
{
closed = 1;
nodes = (
(296,-14,o),
(324,-6,o),
(350,12,cs),
(495,110,l),
(432,204,l),
(298,112,l),
(288,119,l),
(306,202,l),
(378,202,l),
(378,316,l),
(331,316,l),
(344,376,l),
(542,376,l),
(542,496,l),
(370,496,l),
(416,714,l),
(290,714,l),
(244,496,l),
(78,496,l),
(78,376,l),
(218,376,l),
(204,316,l),
(84,316,l),
(84,202,l),
(179,202,l),
(163,126,ls),
(160,111,o),
(159,104,o),
(159,94,cs),
(159,27,o),
(210,-14,o),
(269,-14,cs)
);
}
);
width = 612;
}
);
unicode = 359;
},
{
glyphname = tcaron;
lastChange = "2025-01-15 13:13:32 +0000";
layers = (
{
associatedMasterId = "CCBD71C2-CFAF-4DB2-A010-494EF6BDA443";
layerId = "B5F68FDA-8C9D-4654-935C-D86EAB7081E6";
name = img;
width = 612;
},
{
layerId = "CCBD71C2-CFAF-4DB2-A010-494EF6BDA443";
shapes = (
{
closed = 1;
nodes = (
(276,-14,o),
(299,-7,o),
(320,7,cs),
(453,97,l),
(413,156,l),
(280,66,ls),
(275,63,o),
(270,61,o),
(265,61,cs),
(253,61,o),
(244,71,o),
(248,87,cs),
(319,424,l),
(399,424,l),
(399,496,l),
(335,496,l),
(381,714,l),
(303,714,l),
(257,496,l),
(93,496,l),
(93,424,l),
(241,424,l),
(173,100,ls),
(171,90,o),
(169,79,o),
(169,70,cs),
(169,14,o),
(208,-14,o),
(254,-14,cs)
);
},
{
closed = 1;
nodes = (
(473,424,ls),
(525,424,o),
(556,452,o),
(566,502,cs),
(590,618,ls),
(591,623,o),
(591,627,o),
(591,630,cs),
(591,668,o),
(559,700,o),
(521,700,cs),
(483,700,o),
(451,668,o),
(451,630,cs),
(451,592,o),
(483,560,o),
(521,560,cs),
(525,560,l),
(514,508,ls),
(510,489,o),
(499,478,o),
(480,478,cs),
(421,478,l),
(421,424,l)
);
}
);
width = 612;
},
{
associatedMasterId = "8275915C-4C26-4DD7-A30E-5590CD7E6050";
layerId = "60445CF7-874C-4366-A399-8DBEA8C6C11B";
name = img;
width = 612;
},
{
layerId = "8275915C-4C26-4DD7-A30E-5590CD7E6050";
shapes = (
{
closed = 1;
nodes = (
(296,-14,o),
(324,-6,o),
(350,12,cs),
(495,110,l),
(432,204,l),
(298,112,l),
(288,119,l),
(344,376,l),
(414,376,l),
(414,496,l),
(370,496,l),
(416,714,l),
(290,714,l),
(244,496,l),
(78,496,l),
(78,376,l),
(218,376,l),
(163,126,ls),
(160,111,o),
(159,104,o),
(159,94,cs),
(159,27,o),
(210,-14,o),
(269,-14,cs)
);
},
{
closed = 1;
nodes = (
(504,376,ls),
(558,376,o),
(598,399,o),
(609,449,cs),
(638,585,ls),
(639,592,o),
(640,599,o),
(640,605,cs),
(640,658,o),
(597,700,o),
(545,700,cs),
(493,700,o),
(450,660,o),
(450,606,cs),
(450,544,o),
(496,516,o),
(542,516,c),
(535,482,ls),
(531,462,o),
(520,454,o),
(498,454,cs),
(450,454,l),
(450,376,l)
);
}
);
width = 612;
}
);
unicode = 357;
},
